<svg width="83" height="81" viewBox="0 0 83 81" fill="none" xmlns="http://www.w3.org/2000/svg">
<g id="_&#208;&#161;&#208;&#187;&#208;&#190;&#208;&#185;_1" clip-path="url(#clip0_3_283)">
<path id="Vector" d="M12.166 72.398C12.166 73.8883 19.3563 75.091 28.2398 75.091C37.1234 75.091 44.3136 73.8883 44.3136 72.398C44.3136 70.9077 37.1234 69.705 28.2398 69.705C19.3563 69.705 12.166 70.9077 12.166 72.398Z" fill="#FDB728"/>
<path id="Vector_2" d="M0.547089 22.6162H56.0367V62.3841H0.547089V22.6162Z" fill="#FDB728"/>
<g id="Group">
<path id="Vector_3" d="M56.0367 56.083V58.2531C56.0367 60.5539 54.1871 62.4103 51.8945 62.4103H4.66321C2.37068 62.4103 0.521027 60.5539 0.521027 58.2531V56.083H56.0367Z" fill="white"/>
<path id="Vector_4" d="M51.8945 62.9332H4.66321C2.08412 62.9332 0 60.8415 0 58.2531V56.083C0 55.7954 0.234463 55.56 0.52103 55.56H56.0107C56.2972 55.56 56.5317 55.7954 56.5317 56.083V58.2531C56.5578 60.8154 54.4476 62.9332 51.8945 62.9332ZM1.06811 56.6059V58.2531C1.06811 60.2663 2.6833 61.8874 4.68927 61.8874H51.9206C53.9005 61.8874 55.5417 60.2663 55.5417 58.2531V56.6059H1.06811Z" fill="#474747"/>
</g>
<path id="Vector_5" d="M29.4382 59.1943C29.3861 59.848 28.865 60.3709 28.1877 60.397C27.5625 60.3447 27.0935 59.7957 27.1456 59.1682C27.1978 58.5407 27.7448 58.0701 28.3701 58.1223C28.9432 58.1485 29.4121 58.6191 29.4382 59.1943Z" fill="#474747"/>
<path id="Vector_6" d="M56.0367 62.9332H0.547091C0.260525 62.9332 0.026062 62.6979 0.026062 62.4103V22.6162C0.026062 22.3286 0.260525 22.0933 0.547091 22.0933H56.0367C56.3233 22.0933 56.5578 22.3286 56.5578 22.6162V62.3841C56.5578 62.6979 56.3233 62.9332 56.0367 62.9332ZM1.06812 61.8874H55.5157V23.1391H1.06812V61.8874Z" fill="#474747"/>
<path id="Vector_7" d="M33.0333 68.7637H23.5245L24.306 62.4103H32.2257L33.0333 68.7637Z" fill="white"/>
<g id="Group_2">
<path id="Vector_8" d="M38.0352 70.1494C38.3999 70.6724 38.2696 71.3783 37.7486 71.7443C37.5662 71.8751 37.3318 71.9535 37.0973 71.9535H19.5126C18.8873 71.9535 18.3663 71.4306 18.3663 70.8031C18.3663 70.5678 18.4445 70.3325 18.5747 70.1494C19.1739 69.2866 20.1378 68.7637 21.1799 68.7637H35.4561C36.446 68.7637 37.436 69.2866 38.0352 70.1494Z" fill="white"/>
<path id="Vector_9" d="M19.4865 72.4764C19.0436 72.4764 18.6268 72.2934 18.3142 71.9797C18.0016 71.6659 17.8192 71.2476 17.8192 70.8031C17.8192 70.4632 17.9234 70.1233 18.1058 69.8357C18.7831 68.8422 19.9294 68.2408 21.1278 68.2408H35.404C36.6284 68.2408 37.7486 68.8422 38.4259 69.8357C38.947 70.5939 38.7646 71.6398 38.0091 72.1627C37.7225 72.3719 37.4099 72.4503 37.0452 72.4503H19.4865V72.4764ZM21.1538 69.2866C20.2941 69.2866 19.4605 69.705 18.9655 70.4371C18.8873 70.5416 18.8613 70.6724 18.8613 70.8031C18.8613 70.96 18.9394 71.1168 19.0436 71.2476C19.1478 71.3783 19.3041 71.4306 19.4865 71.4306H37.0713C37.2015 71.4306 37.3318 71.4044 37.436 71.326C37.7225 71.1168 37.8007 70.7247 37.5923 70.4632C37.0973 69.7311 36.2637 69.3128 35.404 69.3128H21.1538V69.2866Z" fill="#474747"/>
</g>
<path id="Vector_10" d="M33.0333 69.2866H23.5245C23.3682 69.2866 23.2379 69.2343 23.1337 69.1036C23.0295 68.999 22.9774 68.8422 23.0035 68.6853L23.785 62.3318C23.8111 62.0704 24.0455 61.8612 24.306 61.8612H32.2257C32.4862 61.8612 32.7207 62.0704 32.7467 62.3318L33.5283 68.6853C33.5543 68.8422 33.5022 68.9729 33.398 69.1036C33.3198 69.2343 33.1896 69.2866 33.0333 69.2866ZM24.1237 68.2408H32.4601L31.8089 62.9332H24.801L24.1237 68.2408Z" fill="#474747"/>
<g id="Group_3">
<path id="Vector_11" d="M61.0386 47.2979H16.2822C14.6149 47.2718 13.2602 45.9645 13.182 44.2912V11.1382L64.0866 11.0859V44.2389C64.0866 45.9122 62.7059 47.2718 61.0386 47.2979Z" fill="white"/>
<path id="Vector_12" d="M61.0386 47.8209H16.2822C14.3283 47.7947 12.7392 46.2782 12.661 44.3173V11.1382C12.661 10.8505 12.8955 10.6152 13.182 10.6152L64.0866 10.5629C64.2169 10.5629 64.3471 10.6152 64.4513 10.7198C64.5555 10.8244 64.6077 10.9551 64.6077 11.0859V44.2389C64.6077 46.1998 62.9925 47.7947 61.0386 47.8209ZM13.677 11.6611V44.2912C13.7291 45.6507 14.8754 46.7489 16.2561 46.775H61.0126C62.3933 46.775 63.5395 45.6246 63.5395 44.2389V11.6088L13.677 11.6611Z" fill="#474747"/>
</g>
<g id="Group_4">
<path id="Vector_13" d="M64.0866 11.0597L13.182 11.1382L13.2341 3.58199C13.2341 1.88251 14.5888 0.522919 16.2822 0.522919H61.0386C62.7319 0.522919 64.0866 1.88251 64.0866 3.58199V11.0597Z" fill="#FDB728"/>
<path id="Vector_14" d="M13.182 11.6611C13.0518 11.6611 12.9215 11.6088 12.8173 11.5042C12.7131 11.3996 12.661 11.2689 12.661 11.1382L12.7131 3.58199C12.7131 1.62105 14.3283 0 16.2822 0H61.0386C62.9925 0 64.6077 1.62105 64.6077 3.58199V11.0859C64.6077 11.3735 64.3732 11.6088 64.0866 11.6088L13.182 11.6611ZM16.2822 1.04584C14.9014 1.04584 13.7552 2.19626 13.7552 3.58199L13.7031 10.6152L63.5656 10.5629V3.58199C63.5656 2.19626 62.4193 1.04584 61.0386 1.04584H16.2822Z" fill="#474747"/>
</g>
<g id="Group_5">
<path id="Vector_15" d="M16.725 5.80439C16.725 6.77179 17.5066 7.55616 18.4705 7.55616C19.4344 7.55616 20.2159 6.77179 20.2159 5.80439C20.2159 4.83699 19.4344 4.05261 18.4705 4.05261C17.5066 4.05261 16.725 4.81084 16.725 5.80439C16.725 5.78696 16.725 5.78696 16.725 5.80439Z" fill="white"/>
<path id="Vector_16" d="M18.4965 8.07909C17.8974 8.07909 17.3242 7.84377 16.8813 7.39929C16.4385 6.95481 16.204 6.40575 16.204 5.77825C16.204 4.52325 17.22 3.50356 18.4705 3.50356C19.721 3.50356 20.737 4.52325 20.737 5.77825C20.737 6.3796 20.5025 6.95481 20.0596 7.39929C19.6689 7.84377 19.0957 8.07909 18.4965 8.07909ZM18.4965 4.54939C17.8192 4.54939 17.2721 5.09846 17.2721 5.77825C17.2721 6.11815 17.4024 6.4319 17.6368 6.64106C17.8713 6.87638 18.1839 7.00711 18.4965 7.00711C18.8352 7.00711 19.1478 6.87638 19.3562 6.64106C19.5907 6.40575 19.721 6.092 19.721 5.77825C19.721 5.09846 19.1739 4.54939 18.4965 4.54939Z" fill="#474747"/>
</g>
<g id="Group_6">
<path id="Vector_17" d="M27.2498 5.80439C27.2238 6.79793 26.4422 7.60846 25.4523 7.6346C24.4623 7.60846 23.6808 6.79793 23.7068 5.83054C23.7329 4.83699 24.5405 4.05261 25.5044 4.07876C26.4683 4.05261 27.2498 4.83699 27.2498 5.80439Z" fill="white"/>
<path id="Vector_18" d="M25.4523 8.13138C24.1497 8.10523 23.1337 7.0594 23.1598 5.77825C23.1598 5.15075 23.4203 4.57554 23.8632 4.1572C24.306 3.73887 24.8792 3.50356 25.5044 3.50356C26.7549 3.5297 27.7448 4.52325 27.7709 5.77825V5.80439C27.7448 7.08554 26.7288 8.10523 25.4523 8.13138ZM25.4783 4.54939C25.1397 4.54939 24.8271 4.68012 24.5926 4.91543C24.3581 5.15075 24.2018 5.4645 24.2018 5.80439C24.2018 6.51033 24.7489 7.08554 25.4523 7.08554C26.1296 7.0594 26.7028 6.51033 26.7288 5.77825C26.7288 5.09846 26.1817 4.57554 25.4783 4.54939Z" fill="#474747"/>
</g>
<g id="Group_7">
<path id="Vector_19" d="M30.7668 5.80438C30.7668 6.77178 31.5483 7.55616 32.5122 7.55616C33.4761 7.55616 34.2577 6.77178 34.2577 5.80438C34.2577 4.83698 33.4761 4.05261 32.5122 4.05261C31.5483 4.02646 30.7668 4.81084 30.7668 5.80438Z" fill="white"/>
<path id="Vector_20" d="M32.5122 8.07908C31.2618 8.07908 30.2458 7.05939 30.2458 5.80439C30.2458 4.54938 31.2618 3.52969 32.5122 3.52969C33.7627 3.52969 34.7787 4.54938 34.7787 5.80439C34.7787 7.05939 33.7627 8.07908 32.5122 8.07908ZM32.5122 4.54938C31.8349 4.54938 31.2878 5.09845 31.2878 5.77824C31.2878 6.45803 31.8349 7.0071 32.5122 7.0071C33.1896 7.0071 33.7367 6.45803 33.7367 5.77824C33.7367 5.09845 33.1896 4.54938 32.5122 4.54938Z" fill="#474747"/>
</g>
<g id="Group_8">
<path id="Vector_21" d="M44.4699 15.2692L45.3817 17.1256C45.4598 17.2824 45.5901 17.387 45.7725 17.4132L47.8305 17.7008C48.1171 17.7531 48.2994 17.9884 48.2473 18.276C48.2213 18.3806 48.1692 18.4852 48.091 18.5636L46.6061 20.0016C46.4758 20.1062 46.4237 20.2892 46.4498 20.4461L46.7885 22.4855C46.8406 22.7731 46.6582 23.0345 46.3716 23.0607C46.2674 23.0868 46.1632 23.0607 46.059 23.0084L44.2094 22.041C44.0531 21.9626 43.8967 21.9626 43.7404 22.041L41.9168 23.0084C41.6563 23.1391 41.3698 23.0345 41.2395 22.7992C41.1874 22.6946 41.1613 22.5901 41.1874 22.4855L41.5261 20.4461C41.5521 20.2892 41.5 20.1062 41.3698 20.0016L39.8848 18.5636C39.6764 18.3806 39.6764 18.0407 39.8848 17.8577C39.963 17.7792 40.0672 17.7269 40.1714 17.7008L42.2295 17.4132C42.3858 17.387 42.5421 17.2824 42.6202 17.1256L43.532 15.2692C43.6623 15.0078 43.9749 14.9293 44.2094 15.06C44.3396 15.1123 44.4178 15.1908 44.4699 15.2692Z" fill="white"/>
<path id="Vector_22" d="M46.3195 23.6359C46.1632 23.6359 46.0069 23.6097 45.8506 23.5313L44.0009 22.5639L42.1773 23.5313C41.9168 23.662 41.6563 23.6882 41.3958 23.5836C41.1353 23.5052 40.9269 23.3221 40.7966 23.0607C40.6924 22.8515 40.6664 22.6424 40.6924 22.4332L41.0311 20.3938L39.5461 18.9558C39.1293 18.5636 39.1293 17.9099 39.5201 17.4916C39.6764 17.3347 39.8848 17.2301 40.1193 17.1779L42.1773 16.8903L43.0891 15.0339C43.3497 14.511 43.9749 14.328 44.4699 14.5894C44.6522 14.694 44.8085 14.8509 44.9127 15.0339L45.8246 16.8903L47.8566 17.1779C48.1171 17.2301 48.3776 17.3609 48.5339 17.5962C48.6902 17.8054 48.7684 18.093 48.7163 18.3544C48.6902 18.5636 48.586 18.7728 48.4297 18.9296L46.9448 20.3938L47.3095 22.4332C47.4137 23.0084 47.0229 23.5313 46.4758 23.6097C46.4237 23.6359 46.3716 23.6359 46.3195 23.6359ZM44.027 21.5181C44.1833 21.5181 44.3657 21.5442 44.4959 21.6227L46.2935 22.5639L45.9548 20.5507C45.9027 20.2108 46.0069 19.8709 46.2414 19.6356L47.7003 18.1975L45.6943 17.9099C45.3556 17.8576 45.0691 17.6485 44.9127 17.3347L44.0009 15.5045L43.0891 17.3347C42.9328 17.6485 42.6463 17.8576 42.3076 17.9099L40.3016 18.1975L41.7605 19.6356C41.995 19.8709 42.1252 20.2108 42.0471 20.5507L41.7084 22.5639L43.506 21.6227C43.6883 21.5442 43.8446 21.5181 44.027 21.5181Z" fill="#474747"/>
</g>
<g id="Group_9">
<path id="Vector_23" d="M54.8123 15.2692L55.7241 17.1256C55.8023 17.2824 55.9325 17.387 56.1149 17.4132L58.1729 17.7008C58.4595 17.7531 58.6419 17.9884 58.5898 18.276C58.5637 18.3806 58.5116 18.4852 58.4335 18.5636L56.9485 20.0016C56.8183 20.1062 56.7662 20.2892 56.7922 20.4461L57.1309 22.4855C57.183 22.7731 57.0006 23.0345 56.7141 23.0607C56.6099 23.0868 56.5056 23.0607 56.4014 23.0084L54.5778 22.041C54.4215 21.9626 54.2652 21.9626 54.1089 22.041L52.2853 23.0084C52.0248 23.1391 51.7382 23.0345 51.608 22.7992C51.5559 22.6946 51.5298 22.5901 51.5559 22.4855L51.8945 20.4461C51.9206 20.2892 51.8685 20.1062 51.7382 20.0016L50.2533 18.5636C50.0449 18.3544 50.0449 18.0407 50.2533 17.8577C50.3314 17.7792 50.4357 17.7269 50.5399 17.7008L52.5979 17.4132C52.7542 17.387 52.9105 17.2824 52.9887 17.1256L53.9005 15.2692C54.0308 15.0078 54.3434 14.9293 54.5778 15.06C54.682 15.1123 54.7602 15.1908 54.8123 15.2692Z" fill="white"/>
<path id="Vector_24" d="M56.662 23.6359C56.5057 23.6359 56.3494 23.6098 56.193 23.5313L54.3434 22.5639L52.5198 23.5313C51.9988 23.7928 51.3996 23.5836 51.1391 23.0868C51.0349 22.8777 51.0088 22.6685 51.0349 22.4593L51.3735 20.42L49.9146 18.9558C49.4978 18.5636 49.4978 17.9099 49.8886 17.4916C50.0449 17.3347 50.2533 17.2302 50.4617 17.204L52.5198 16.9164L53.4316 15.06C53.6921 14.5371 54.3173 14.3541 54.8123 14.6156C54.9947 14.7201 55.151 14.877 55.2552 15.06L56.167 16.9164L58.199 17.204C58.7721 17.2824 59.1369 17.8054 59.0587 18.3806C59.0327 18.6159 58.9285 18.7989 58.7721 18.9558L57.2872 20.3938L57.6519 22.4332C57.704 22.6946 57.6259 22.9823 57.4696 23.1914C57.3133 23.4267 57.0788 23.5575 56.7922 23.6098C56.7662 23.6359 56.7141 23.6359 56.662 23.6359ZM54.3694 21.5181C54.5258 21.5181 54.7081 21.5442 54.8384 21.6227L56.6359 22.5639L56.2973 20.5507C56.2452 20.2108 56.3494 19.8709 56.5838 19.6356L58.0427 18.1976L56.0367 17.9099C55.6981 17.8577 55.4115 17.6485 55.2552 17.3347L54.3434 15.5045L53.4316 17.3347C53.2753 17.6485 52.9887 17.8577 52.6501 17.9099L50.6441 18.1976L52.103 19.6356C52.3374 19.8709 52.4677 20.2108 52.3895 20.5507L52.0509 22.5639L53.8484 21.6227C54.0308 21.5442 54.1871 21.5181 54.3694 21.5181Z" fill="#474747"/>
</g>
<path id="Vector_25" d="M56.8443 30.643H39.0251C38.7386 30.643 38.5041 30.4077 38.5041 30.1201C38.5041 29.8325 38.7386 29.5972 39.0251 29.5972H56.8443C57.1309 29.5972 57.3654 29.8325 57.3654 30.1201C57.3654 30.4077 57.1309 30.643 56.8443 30.643Z" fill="#474747"/>
<path id="Vector_26" d="M56.8443 34.8002H39.0251C38.7386 34.8002 38.5041 34.5649 38.5041 34.2773C38.5041 33.9897 38.7386 33.7544 39.0251 33.7544H56.8443C57.1309 33.7544 57.3654 33.9897 57.3654 34.2773C57.3654 34.5649 57.1309 34.8002 56.8443 34.8002Z" fill="#474747"/>
<path id="Vector_27" d="M56.8443 38.9574H39.0251C38.7386 38.9574 38.5041 38.7221 38.5041 38.4345C38.5041 38.1469 38.7386 37.9116 39.0251 37.9116H56.8443C57.1309 37.9116 57.3654 38.1469 57.3654 38.4345C57.3654 38.7221 57.1309 38.9574 56.8443 38.9574Z" fill="#474747"/>
<path id="Vector_28" d="M22.769 15.2692L23.6808 17.1256C23.7589 17.2824 23.8892 17.387 24.0716 17.4132L26.1296 17.7008C26.4162 17.7531 26.5986 17.9884 26.5465 18.276C26.5204 18.3806 26.4683 18.4852 26.3901 18.5636L24.9052 20.0016C24.7749 20.1062 24.7228 20.2892 24.7489 20.4461L25.0876 22.4855C25.1397 22.7731 24.9573 23.0345 24.6707 23.0607C24.5665 23.0868 24.4623 23.0607 24.3581 23.0084L22.5085 22.041C22.3522 21.9626 22.1959 21.9626 22.0395 22.041L20.2159 23.0084C19.9554 23.1391 19.6689 23.0345 19.5386 22.7992C19.4865 22.6946 19.4604 22.5901 19.4865 22.4855L19.8252 20.4461C19.8512 20.2892 19.7991 20.1062 19.6689 20.0016L18.1839 18.5636C17.9755 18.3544 17.9755 18.0407 18.1839 17.8577C18.2621 17.7792 18.3663 17.7269 18.4705 17.7008L20.5286 17.4132C20.6849 17.387 20.8412 17.2824 20.9193 17.1256L21.8311 15.2692C21.9614 15.0078 22.274 14.9293 22.5085 15.0339C22.6387 15.0862 22.7169 15.1646 22.769 15.2692Z" fill="#FDB728"/>
<path id="Vector_29" d="M24.6186 23.6359C24.4623 23.6359 24.306 23.6098 24.1497 23.5313L22.3001 22.5639L20.4764 23.5313C19.9815 23.7928 19.3562 23.5836 19.0957 23.0868C18.9915 22.8777 18.9655 22.6685 18.9915 22.4332L19.3302 20.3938L17.8713 18.9558C17.6629 18.7728 17.5587 18.5113 17.5587 18.2237C17.5587 17.9361 17.6629 17.7008 17.8453 17.4916C18.0016 17.3347 18.21 17.2302 18.4184 17.204L20.4764 16.9164L21.3883 15.06C21.5185 14.7986 21.7269 14.6156 21.9874 14.5371C22.248 14.4587 22.5345 14.4848 22.769 14.5894C22.9774 14.694 23.1337 14.8509 23.2119 15.0339L24.1237 16.8903L26.1557 17.1779C26.4162 17.204 26.6767 17.3609 26.833 17.57C26.9893 17.7792 27.0675 18.0668 27.0154 18.3283C26.9893 18.5636 26.8851 18.7728 26.7028 18.9296L25.2178 20.3677L25.5825 22.407C25.6867 22.9822 25.296 23.5052 24.7489 23.5836C24.7228 23.6359 24.6707 23.6359 24.6186 23.6359ZM22.3001 21.5181C22.4564 21.5181 22.6387 21.5442 22.769 21.6227L24.5665 22.5639L24.2279 20.5507C24.1758 20.2108 24.28 19.8709 24.5144 19.6356L25.9733 18.1975L23.9673 17.9099C23.6287 17.8577 23.3421 17.6485 23.1858 17.3347L22.274 15.4784L21.3883 17.3347C21.2319 17.6485 20.9454 17.8577 20.6067 17.9099L18.6007 18.1975L20.0596 19.6356C20.2941 19.8709 20.4243 20.2108 20.3462 20.5507L20.0075 22.5639L21.8051 21.6227C21.9874 21.5442 22.1437 21.5181 22.3001 21.5181Z" fill="#474747"/>
<path id="Vector_30" d="M33.6585 15.2692L34.5703 17.1256C34.6485 17.2824 34.7787 17.387 34.9611 17.4132L37.0192 17.7008C37.3057 17.7531 37.4881 17.9884 37.436 18.276C37.4099 18.3806 37.3578 18.4851 37.2797 18.5636L35.7947 20.0016C35.6645 20.1062 35.6124 20.2892 35.6384 20.4461L35.9771 22.4855C36.0292 22.7731 35.8468 23.0345 35.5603 23.0607C35.4561 23.0868 35.3519 23.0607 35.2477 23.0084L33.398 22.041C33.2417 21.9626 33.0854 21.9626 32.9291 22.041L31.1055 23.0084C30.845 23.1391 30.5584 23.0345 30.4281 22.7731C30.376 22.6685 30.35 22.5639 30.376 22.4593L30.7147 20.4199C30.7407 20.2631 30.6886 20.08 30.5584 19.9755L29.0735 18.5374C28.865 18.3283 28.865 18.0145 29.0735 17.8315C29.1516 17.7531 29.2558 17.7008 29.36 17.6746L31.4181 17.387C31.5744 17.3609 31.7307 17.2563 31.8089 17.0994L32.7207 15.2431C32.8509 14.9816 33.1375 14.877 33.398 15.0077C33.5283 15.0862 33.6325 15.1646 33.6585 15.2692Z" fill="#FDB728"/>
<path id="Vector_31" d="M35.5082 23.6359C35.3519 23.6359 35.1955 23.6097 35.0392 23.5313L33.1896 22.5639L31.366 23.5313C30.8449 23.7928 30.2458 23.5836 29.9852 23.0868C29.881 22.8777 29.855 22.6685 29.881 22.4593L30.2197 20.4199L28.7348 18.9819C28.318 18.5897 28.318 17.9361 28.7087 17.5177C28.865 17.3609 29.0734 17.2563 29.2819 17.2301L31.3399 16.9425L32.2517 15.0862C32.5122 14.5894 33.1114 14.3541 33.6325 14.6156C33.8409 14.7201 33.9972 14.877 34.1014 15.0862L35.0132 16.9425L37.0452 17.2301C37.6183 17.3086 37.983 17.8315 37.9049 18.4067C37.8788 18.6159 37.7746 18.825 37.6183 18.9819L36.1334 20.4461L36.4981 22.4855C36.5502 22.7731 36.4721 23.0345 36.3158 23.2698C36.1594 23.5052 35.925 23.6359 35.6384 23.6882C35.6384 23.6359 35.5603 23.6359 35.5082 23.6359ZM33.2156 21.5181C33.3719 21.5181 33.5543 21.5442 33.6846 21.6227L35.4821 22.5639L35.1434 20.5507C35.0913 20.2108 35.1955 19.8709 35.43 19.6356L36.8889 18.1975L34.8829 17.9099C34.5443 17.8576 34.2577 17.6485 34.1014 17.3347L33.1896 15.4784L32.3038 17.3347C32.1475 17.6485 31.861 17.8576 31.5223 17.9099L29.5163 18.1975L30.9752 19.6356C31.2097 19.8709 31.3399 20.2108 31.2618 20.5507L30.9231 22.5639L32.7207 21.6227C32.877 21.5442 33.0593 21.5181 33.2156 21.5181Z" fill="#474747"/>
<path id="Vector_32" d="M18.4966 28.9435H33.919V39.611H18.4966V28.9435Z" fill="#FDB728"/>
<path id="Vector_33" d="M33.919 40.134H18.4966C18.21 40.134 17.9755 39.8986 17.9755 39.611V28.9435C17.9755 28.6559 18.21 28.4206 18.4966 28.4206H33.919C34.2056 28.4206 34.4401 28.6559 34.4401 28.9435V39.611C34.4401 39.8986 34.2056 40.134 33.919 40.134ZM19.0176 39.0881H33.398V29.4664H19.0176V39.0881Z" fill="#474747"/>
<path id="Vector_34" d="M45.6943 62.0181C45.6943 72.215 53.9265 80.4771 64.0606 80.4771C74.1946 80.4771 82.4529 72.215 82.4529 62.0442C82.4529 51.8473 74.2206 43.5852 64.0866 43.5852C53.9526 43.5852 45.6943 51.8212 45.6943 62.0181Z" fill="white"/>
<path id="Vector_35" d="M67.1347 60.1879C67.3691 57.704 67.7078 52.3702 65.6497 52.3702C64.8161 52.3702 64.1648 53.05 64.1648 53.8606V54.3573C64.1648 58.0178 62.5756 61.8351 59.5276 61.8351V69.4697H59.9184C61.8201 69.4697 62.7319 70.8031 66.1447 70.8031H71.9281C72.6576 70.8292 73.2567 70.254 73.2828 69.5219C73.3088 68.7899 72.7357 68.1885 72.0063 68.1624H71.9281H72.5794C73.3088 68.1362 73.882 67.5349 73.8559 66.8028C73.8299 66.0968 73.2828 65.5216 72.5794 65.5216H73.2307C73.9601 65.5216 74.5593 64.9203 74.5593 64.1882C74.5593 63.4561 73.9601 62.8547 73.2307 62.8547H73.882C74.6114 62.8809 75.2106 62.3057 75.2367 61.5736C75.2627 60.8415 74.6896 60.2402 73.9601 60.214H67.1347V60.1879Z" fill="white"/>
<path id="Vector_36" d="M67.1347 60.7108H65.806C65.5195 60.7108 65.285 60.4755 65.285 60.1879C65.285 59.9003 65.5195 59.6649 65.806 59.6649H67.1347C67.4212 59.6649 67.6557 59.9003 67.6557 60.1879C67.6557 60.4755 67.4212 60.7108 67.1347 60.7108Z" fill="#474747"/>
<path id="Vector_37" d="M71.9542 68.6853H71.2768C70.9903 68.6853 70.7558 68.45 70.7558 68.1624C70.7558 67.8748 70.9903 67.6395 71.2768 67.6395H71.9281C72.2147 67.6395 72.4491 67.8748 72.4491 68.1624C72.4491 68.45 72.2407 68.6853 71.9542 68.6853Z" fill="#474747"/>
<path id="Vector_38" d="M72.6055 66.0446H71.9542C71.6676 66.0446 71.4332 65.8092 71.4332 65.5216C71.4332 65.234 71.6676 64.9987 71.9542 64.9987H72.6055C72.892 64.9987 73.1265 65.234 73.1265 65.5216C73.1265 65.8092 72.892 66.0446 72.6055 66.0446Z" fill="#474747"/>
<path id="Vector_39" d="M73.2828 63.3777H72.6315C72.3449 63.3777 72.1105 63.1423 72.1105 62.8547C72.1105 62.5671 72.3449 62.3318 72.6315 62.3318H73.2828C73.5694 62.3318 73.8038 62.5671 73.8038 62.8547C73.8038 63.1423 73.5694 63.3777 73.2828 63.3777Z" fill="#474747"/>
<path id="Vector_40" d="M71.9802 71.3522H66.1447C64.0866 71.3522 62.8622 70.8815 61.8983 70.5155C61.1949 70.254 60.6218 70.0187 59.9184 70.0187H59.5276C59.2411 70.0187 59.0066 69.7834 59.0066 69.4958V61.8612C59.0066 61.5736 59.2411 61.3383 59.5276 61.3383C62.2109 61.3383 63.6438 57.7563 63.6438 54.3835V53.8867C63.6438 52.7624 64.5556 51.8735 65.6497 51.8735C66.1186 51.8735 66.5355 52.0565 66.8481 52.4225C67.7599 53.4161 68.0465 55.8477 67.7078 59.6911H74.0122C74.5072 59.7172 74.9501 59.9003 75.2888 60.2663C75.6274 60.6324 75.8098 61.103 75.7837 61.5998C75.7577 62.0965 75.5753 62.5672 75.2106 62.907C75.0804 63.0378 74.9501 63.1162 74.7938 63.2208C74.9761 63.5084 75.1064 63.8483 75.1064 64.2405C75.1064 64.7373 74.924 65.2079 74.5593 65.5478C74.4291 65.6785 74.2728 65.8092 74.0904 65.8877C74.2728 66.1753 74.377 66.489 74.377 66.8551C74.403 67.3518 74.2207 67.8225 73.882 68.1885C73.7517 68.3192 73.6215 68.4238 73.4652 68.5284C73.6996 68.8422 73.8038 69.2344 73.8038 69.6265C73.8038 70.5678 72.9702 71.3522 71.9802 71.3522ZM60.0487 68.9729C60.9083 68.999 61.5596 69.2605 62.2891 69.522C63.2269 69.888 64.295 70.3063 66.1707 70.3063H71.9542C72.3971 70.3325 72.7878 69.9664 72.7878 69.522C72.7878 69.3128 72.7097 69.1036 72.5794 68.9468C72.4231 68.7899 72.2407 68.7114 72.0323 68.6853H71.9542C71.6676 68.6853 71.4331 68.45 71.4331 68.1624C71.4331 67.8748 71.6676 67.6395 71.9542 67.6395H72.6055C72.8139 67.6395 72.9962 67.5349 73.1525 67.378C73.3088 67.2211 73.387 67.012 73.361 66.8028C73.361 66.3845 72.9962 66.0184 72.5794 66.0184C72.2928 66.0184 72.0584 65.7831 72.0844 65.4955C72.1105 65.2079 72.3189 64.9726 72.6055 64.9726H73.2568C73.4652 64.9726 73.6736 64.8941 73.8299 64.7373C73.9862 64.5804 74.0643 64.3712 74.0643 64.162C74.0643 63.7176 73.6996 63.3515 73.2568 63.3515C72.9702 63.3515 72.7357 63.1162 72.7357 62.8286C72.7357 62.541 72.9702 62.3057 73.2568 62.3057H73.908C74.1425 62.3057 74.3509 62.2273 74.5072 62.0965C74.6635 61.9658 74.7417 61.7566 74.7677 61.5213C74.7677 61.3121 74.6896 61.103 74.5593 60.9461C74.403 60.7892 74.2207 60.7108 73.9862 60.6846H67.1347C66.9783 60.6846 66.8481 60.6324 66.7439 60.5016C66.6397 60.397 66.5876 60.2402 66.6136 60.1094C66.9783 56.4229 66.796 53.8606 66.0665 53.0762C65.9363 52.9193 65.806 52.867 65.6237 52.867C65.0766 52.867 64.6598 53.3115 64.6598 53.8344V54.3312C64.6598 58.0962 63.0706 61.9135 60.0226 62.3057V68.9729H60.0487Z" fill="#474747"/>
<g id="Group_10">
<path id="Vector_41" d="M52.9106 60.5278H59.5276V70.8292H52.9106V60.5278Z" fill="#FDB728"/>
<path id="Vector_42" d="M59.5276 71.3522H52.9106C52.624 71.3522 52.3895 71.1168 52.3895 70.8292V60.5278C52.3895 60.2402 52.624 60.0048 52.9106 60.0048H59.5276C59.8142 60.0048 60.0487 60.2402 60.0487 60.5278V70.8292C60.0487 71.1168 59.8142 71.3522 59.5276 71.3522ZM53.4316 70.3063H59.0066V61.0507H53.4316V70.3063Z" fill="#474747"/>
</g>
<path id="Vector_43" d="M64.0866 81C59.0326 81 54.2913 79.0129 50.7222 75.4309C47.1532 71.8489 45.1993 67.0904 45.1993 62.0181C45.1993 51.5597 53.6921 43.0623 64.1127 43.0623C69.1667 43.0623 73.908 45.0494 77.4771 48.6314C81.0461 52.2134 83 56.9719 83 62.0442C82.974 72.5026 74.5072 81 64.0866 81ZM64.0866 44.1081C54.2392 44.1081 46.2153 52.1349 46.2153 62.0181C46.2153 66.8028 48.065 71.2999 51.4517 74.6988C54.8123 78.0978 59.3192 79.9542 64.0866 79.9542C73.9341 79.9542 81.9579 71.9274 81.9579 62.0442C81.9579 57.2595 80.1083 52.7363 76.7216 49.3635C73.3349 45.9645 68.8541 44.1081 64.0866 44.1081Z" fill="#474747"/>
</g>
<defs>
<clipPath id="clip0_3_283">
<rect width="83" height="81" fill="white"/>
</clipPath>
</defs>
</svg>
