<svg width="100" height="100" viewBox="0 0 100 100" fill="none" xmlns="http://www.w3.org/2000/svg">
<g id="contract-handshake-1 1">
<path id="Vector" d="M68.354 81.547C68.3527 81.8118 68.2474 82.0655 68.0608 82.2534C67.8742 82.4413 67.6213 82.5484 67.3565 82.5515L32.6805 82.789C32.5495 82.7899 32.4196 82.765 32.2982 82.7158C32.1769 82.6665 32.0664 82.5938 31.9731 82.5018C31.8798 82.4098 31.8056 82.3004 31.7546 82.1797C31.7036 82.059 31.6769 81.9295 31.676 81.7985L31.3467 35.757L68.354 35.5815V81.547Z" fill="white" stroke="#474747" stroke-linecap="round" stroke-linejoin="round"/>
<path id="Vector_2" d="M50.9388 55.545L63.0295 55.4172" stroke="#474747" stroke-linecap="round" stroke-linejoin="round"/>
<path id="Vector_3" d="M38.1768 60.5255L63.0635 60.355" stroke="#474747" stroke-linecap="round" stroke-linejoin="round"/>
<path id="Vector_4" d="M38.2105 65.4633L63.0972 65.2928" stroke="#474747" stroke-linecap="round" stroke-linejoin="round"/>
<path id="Vector_5" d="M52.2743 71.0352C52.015 71.298 51.8246 71.6207 51.7198 71.9747C51.6151 72.3287 51.5992 72.7031 51.6738 73.0646C51.7483 73.4262 51.9108 73.7638 52.147 74.0475C52.3832 74.3312 52.6857 74.5523 53.0277 74.6912C53.3697 74.8301 53.7408 74.8824 54.1079 74.8437C54.475 74.8049 54.8269 74.6761 55.1323 74.4688C55.4378 74.2616 55.6874 73.9821 55.8591 73.6553C56.0308 73.3285 56.1192 72.9644 56.1165 72.5953V73.045C56.1198 73.5212 56.3122 73.9766 56.6512 74.311C56.9903 74.6453 57.4483 74.8313 57.9245 74.828C58.4007 74.8247 58.8561 74.6323 59.1905 74.2933C59.5248 73.9542 59.7108 73.4962 59.7075 73.02C59.7092 73.2558 59.7573 73.4889 59.8491 73.7061C59.9409 73.9233 60.0746 74.1203 60.2426 74.2858C60.4105 74.4513 60.6094 74.5822 60.8279 74.6708C61.0464 74.7595 61.2802 74.8042 61.516 74.8025L62.8628 74.7935" stroke="#474747" stroke-linecap="round" stroke-linejoin="round"/>
<path id="Vector_6" d="M51.9222 77.3873L62.6205 77.3135" stroke="#FDB728" stroke-linecap="round" stroke-linejoin="round"/>
<path id="Vector_7" d="M37.5172 77.486L48.2165 77.4122" stroke="#FDB728" stroke-linecap="round" stroke-linejoin="round"/>
<path id="Vector_8" d="M38.6445 75.6147C38.2748 75.6246 37.9104 75.5247 37.5974 75.3275C37.2845 75.1303 37.0371 74.8448 36.8864 74.507C36.7357 74.1692 36.6886 73.7943 36.751 73.4297C36.8133 73.0652 36.9824 72.7273 37.2368 72.4588C37.4912 72.1903 37.8195 72.0033 38.1802 71.9214C38.5409 71.8394 38.9178 71.8663 39.2632 71.9986C39.6086 72.1308 39.9071 72.3626 40.1208 72.6644C40.3345 72.9663 40.454 73.3248 40.464 73.6945" stroke="#474747" stroke-linecap="round" stroke-linejoin="round"/>
<path id="Vector_9" d="M47.9242 72.8708C47.9377 73.3658 47.7542 73.8459 47.414 74.2057C47.0738 74.5655 46.6047 74.7757 46.1097 74.79" stroke="#474747" stroke-linecap="round" stroke-linejoin="round"/>
<path id="Vector_10" d="M40.4808 74.318C40.4741 74.0726 40.5159 73.8282 40.6037 73.5989C40.6915 73.3696 40.8236 73.1599 40.9924 72.9817C41.1613 72.8034 41.3636 72.6602 41.5879 72.5602C41.8121 72.4602 42.0538 72.4053 42.2993 72.3987" stroke="#474747" stroke-linecap="round" stroke-linejoin="round"/>
<path id="Vector_11" d="M43.596 74.2393C43.5888 73.9937 43.6301 73.7491 43.7174 73.5195C43.8048 73.2899 43.9365 73.0797 44.1051 72.901C44.2737 72.7223 44.4758 72.5786 44.7 72.478C44.9242 72.3775 45.1659 72.3221 45.4115 72.315" stroke="#474747" stroke-linecap="round" stroke-linejoin="round"/>
<g id="Vector_12">
<path d="M88.298 25.674H71.4932C71.2907 25.6737 71.0901 25.7134 70.9029 25.7907C70.7157 25.8681 70.5455 25.9815 70.4022 26.1246C70.2589 26.2678 70.1452 26.4377 70.0676 26.6248C69.99 26.8119 69.95 27.0125 69.95 27.215V44.771C69.95 45.1798 70.1124 45.5718 70.4014 45.8608C70.6905 46.1499 71.0825 46.3123 71.4912 46.3123H88.2982" fill="#FDB728"/>
<path d="M88.298 25.674H71.4932C71.2907 25.6737 71.0901 25.7134 70.9029 25.7907C70.7157 25.8681 70.5455 25.9815 70.4022 26.1246C70.2589 26.2678 70.1452 26.4377 70.0676 26.6248C69.99 26.8119 69.95 27.0125 69.95 27.215V44.771C69.95 45.1798 70.1124 45.5718 70.4014 45.8608C70.6905 46.1499 71.0825 46.3123 71.4912 46.3123H88.2982" stroke="#474747" stroke-linecap="round" stroke-linejoin="round"/>
</g>
<path id="Vector_13" d="M69.95 44.9825H67.7115C67.2467 44.9817 66.8012 44.7965 66.4728 44.4676C66.1444 44.1386 65.96 43.6928 65.96 43.228V28.7643C65.96 28.2989 66.1448 27.8527 66.4739 27.5236C66.8029 27.1946 67.2492 27.0098 67.7145 27.0098H69.95V44.9825Z" fill="white" stroke="#474747" stroke-linecap="round" stroke-linejoin="round"/>
<path id="Vector_14" d="M65.96 28.7602L55.213 22.6227C54.7296 22.3461 54.1803 22.2058 53.6235 22.2167C53.0666 22.2275 52.5232 22.3892 52.051 22.6845L38.2465 31.312C37.4883 31.8662 36.8667 32.5863 36.4293 33.4174C35.9918 34.2486 35.7502 35.1686 35.7226 36.1074C35.6951 37.0462 35.8825 37.9789 36.2705 38.8342C36.6585 39.6895 37.2368 40.4448 37.9612 41.0425L45.243 47.0515C46.4626 48.0585 47.9627 48.6657 49.5394 48.7906C51.1161 48.9155 52.693 48.5521 54.056 47.7497L61.7298 43.231H65.96V28.7602Z" fill="white" stroke="#474747" stroke-linecap="round" stroke-linejoin="round"/>
<g id="Vector_15">
<path d="M10.3503 27.8405H26.5655C26.7679 27.8405 26.9683 27.8804 27.1553 27.9578C27.3423 28.0353 27.5122 28.1488 27.6553 28.2919C27.7984 28.4351 27.912 28.605 27.9894 28.792C28.0669 28.9789 28.1068 29.1794 28.1068 29.3818V46.9378C28.1068 47.3465 27.9444 47.7386 27.6553 48.0276C27.3663 48.3166 26.9743 48.479 26.5655 48.479H10.3503" fill="#FDB728"/>
<path d="M10.3503 27.8405H26.5655C26.7679 27.8405 26.9683 27.8804 27.1553 27.9578C27.3423 28.0353 27.5122 28.1488 27.6553 28.2919C27.7984 28.4351 27.912 28.605 27.9894 28.792C28.0669 28.9789 28.1068 29.1794 28.1068 29.3818V46.9378C28.1068 47.3465 27.9444 47.7386 27.6553 48.0276C27.3663 48.3166 26.9743 48.479 26.5655 48.479H10.3503" stroke="#474747" stroke-linecap="round" stroke-linejoin="round"/>
</g>
<path id="Vector_16" d="M28.1068 47.1482H30.3493C30.8146 47.1482 31.2608 46.9634 31.5899 46.6344C31.9189 46.3053 32.1038 45.8591 32.1038 45.3937V30.93C32.1042 30.6993 32.0591 30.4708 31.9711 30.2576C31.8831 30.0443 31.754 29.8505 31.591 29.6873C31.4281 29.524 31.2345 29.3945 31.0214 29.3061C30.8083 29.2177 30.5799 29.1722 30.3493 29.1722H28.1068V47.1482Z" fill="white" stroke="#474747" stroke-linecap="round" stroke-linejoin="round"/>
<path id="Vector_17" d="M32.1018 30.9268L42.8448 24.7883C43.3283 24.5121 43.8777 24.3721 44.4344 24.3832C44.9912 24.3942 45.5345 24.5559 46.0068 24.851L59.8123 33.4775C60.5704 34.0319 61.1919 34.7522 61.6293 35.5834C62.0666 36.4147 62.3082 37.3349 62.3356 38.2737C62.363 39.2126 62.1756 40.1453 61.7875 41.0006C61.3994 41.856 60.8211 42.6113 60.0965 43.209L52.8148 49.218C51.5948 50.2248 50.0946 50.8319 48.5178 50.9568C46.941 51.0817 45.364 50.7184 44.0008 49.9163L36.328 45.3965H32.1015L32.1018 30.9268Z" fill="white"/>
<path id="Vector_18" d="M32.1018 30.9268L42.8448 24.7883C43.3283 24.5121 43.8777 24.3721 44.4344 24.3832C44.9912 24.3942 45.5345 24.5559 46.0068 24.851L59.8123 33.4775C60.5704 34.0319 61.1919 34.7522 61.6293 35.5834C62.0666 36.4147 62.3082 37.3349 62.3356 38.2737C62.363 39.2126 62.1756 40.1453 61.7875 41.0006C61.3994 41.856 60.8211 42.6113 60.0965 43.209L52.8148 49.218C51.5948 50.2248 50.0946 50.8319 48.5178 50.9568C46.941 51.0817 45.364 50.7184 44.0008 49.9163L36.328 45.3965H32.1015L32.1018 30.9268Z" stroke="#474747" stroke-linecap="round" stroke-linejoin="round"/>
<g id="Vector_19">
<path d="M56.2275 29.3847L47.0645 36.4052C46.6379 36.732 46.1478 36.9662 45.6256 37.0926C45.1033 37.2191 44.5604 37.2352 44.0316 37.1398C43.5027 37.0444 42.9997 36.8396 42.5545 36.5386C42.1094 36.2376 41.732 35.847 41.4465 35.3917C40.9426 34.5882 40.7521 33.6273 40.9114 32.6923C41.0707 31.7574 41.5687 30.9138 42.3103 30.3225L51.2968 23.1572" fill="white"/>
<path d="M56.2275 29.3847L47.0645 36.4052C46.6379 36.732 46.1478 36.9662 45.6256 37.0926C45.1033 37.2191 44.5604 37.2352 44.0316 37.1398C43.5027 37.0444 42.9997 36.8396 42.5545 36.5386C42.1094 36.2376 41.732 35.847 41.4465 35.3917C40.9426 34.5882 40.7521 33.6273 40.9114 32.6923C41.0707 31.7574 41.5687 30.9138 42.3103 30.3225L51.2968 23.1572" stroke="#474747" stroke-linecap="round" stroke-linejoin="round"/>
</g>
</g>
</svg>
