<svg width="100" height="100" viewBox="0 0 100 100" fill="none" xmlns="http://www.w3.org/2000/svg">
<g id="online-store-imac 1">
<path id="Vector" d="M31.9813 80.0118C31.9813 80.249 32.3631 80.4839 33.1049 80.7031C33.8467 80.9222 34.934 81.1214 36.3047 81.2891C37.6753 81.4569 39.3026 81.59 41.0935 81.6807C42.8844 81.7715 44.8038 81.8183 46.7423 81.8183C48.6807 81.8183 50.6002 81.7715 52.3911 81.6807C54.1819 81.59 55.8092 81.4569 57.1799 81.2891C58.5505 81.1214 59.6378 80.9222 60.3796 80.7031C61.1215 80.4839 61.5033 80.249 61.5033 80.0118C61.5033 79.7745 61.1215 79.5396 60.3796 79.3204C59.6378 79.1013 58.5505 78.9021 57.1799 78.7344C55.8092 78.5666 54.1819 78.4336 52.3911 78.3428C50.6002 78.252 48.6807 78.2053 46.7423 78.2053C44.8038 78.2053 42.8844 78.252 41.0935 78.3428C39.3026 78.4336 37.6753 78.5666 36.3047 78.7344C34.934 78.9021 33.8467 79.1013 33.1049 79.3204C32.3631 79.5396 31.9813 79.7745 31.9813 80.0118Z" fill="#FDB728"/>
<path id="Vector_2" d="M76.2262 28.862C76.2266 28.2321 76.1029 27.6083 75.8621 27.0263C75.6213 26.4442 75.2681 25.9153 74.8228 25.4698C74.3775 25.0243 73.8488 24.671 73.2668 24.4299C72.6849 24.1889 72.0611 24.0649 71.4312 24.065H22.055C21.4254 24.0649 20.8019 24.1888 20.2202 24.4297C19.6386 24.6705 19.11 25.0236 18.6648 25.4688C18.2196 25.914 17.8665 26.4426 17.6256 27.0243C17.3848 27.606 17.2609 28.2294 17.261 28.859V61.593H76.2262V28.862Z" fill="#FDB728"/>
<path id="Vector_3" d="M53.8892 75.888H39.594L40.4877 68.74H52.9965L53.8892 75.888Z" fill="white"/>
<path id="Vector_4" d="M53.8892 75.888H39.594L40.4877 68.74H52.9965L53.8892 75.888Z" stroke="#474747" stroke-linecap="round" stroke-linejoin="round"/>
<path id="Vector_5" d="M56.9825 79.4622H36.5068C36.3222 79.4644 36.14 79.4204 35.9767 79.3342C35.8135 79.248 35.6744 79.1224 35.5721 78.9687C35.4698 78.8151 35.4075 78.6383 35.3909 78.4544C35.3744 78.2706 35.4041 78.0855 35.4773 77.916C35.7687 77.3085 36.2259 76.7958 36.7962 76.437C37.3664 76.0782 38.0265 75.8879 38.7003 75.888H54.788C55.4618 75.8878 56.1219 76.078 56.6922 76.4369C57.2625 76.7957 57.7197 77.3085 58.011 77.916C58.0842 78.0854 58.1138 78.2704 58.0973 78.4541C58.0808 78.6379 58.0187 78.8147 57.9165 78.9683C57.8143 79.1219 57.6753 79.2476 57.5122 79.3339C57.3491 79.4201 57.167 79.4643 56.9825 79.4622Z" fill="white" stroke="#474747" stroke-linecap="round" stroke-linejoin="round"/>
<path id="Vector_6" d="M71.4312 68.74C72.0609 68.7401 72.6844 68.6162 73.2661 68.3754C73.8479 68.1345 74.3765 67.7814 74.8218 67.3362C75.267 66.891 75.6203 66.3625 75.8612 65.7808C76.1022 65.1991 76.2262 64.5756 76.2262 63.946V61.593H17.258V63.946C17.2579 64.5756 17.3818 65.199 17.6227 65.7807C17.8635 66.3624 18.2166 66.891 18.6618 67.3362C19.107 67.7813 19.6356 68.1345 20.2173 68.3753C20.799 68.6162 21.4224 68.7401 22.052 68.74H71.4312Z" fill="white" stroke="#474747" stroke-linecap="round" stroke-linejoin="round"/>
<path id="Vector_7" d="M76.2262 28.862C76.2266 28.2321 76.1029 27.6083 75.8621 27.0263C75.6213 26.4442 75.2681 25.9153 74.8228 25.4698C74.3775 25.0243 73.8488 24.671 73.2668 24.4299C72.6849 24.1889 72.0611 24.0649 71.4312 24.065H22.055C21.4254 24.0649 20.8019 24.1888 20.2202 24.4297C19.6386 24.6705 19.11 25.0236 18.6648 25.4688C18.2196 25.914 17.8665 26.4426 17.6256 27.0243C17.3848 27.606 17.2609 28.2294 17.261 28.859V61.593H76.2262V28.862Z" stroke="#474747" stroke-linecap="round" stroke-linejoin="round"/>
<path id="Vector_8" d="M45.6948 65.167C45.6926 65.3059 45.7181 65.4439 45.7698 65.5728C45.8215 65.7018 45.8983 65.8192 45.9957 65.9182C46.0932 66.0171 46.2094 66.0957 46.3375 66.1494C46.4657 66.2031 46.6032 66.2307 46.7421 66.2307C46.8811 66.2307 47.0186 66.2031 47.1467 66.1494C47.2749 66.0957 47.3911 66.0171 47.4885 65.9182C47.586 65.8192 47.6628 65.7018 47.7145 65.5728C47.7662 65.4439 47.7917 65.3059 47.7895 65.167C47.7917 65.0281 47.7662 64.8902 47.7145 64.7612C47.6628 64.6323 47.586 64.5149 47.4885 64.4159C47.3911 64.3169 47.2749 64.2383 47.1467 64.1846C47.0186 64.131 46.8811 64.1033 46.7421 64.1033C46.6032 64.1033 46.4657 64.131 46.3375 64.1846C46.2094 64.2383 46.0932 64.3169 45.9957 64.4159C45.8983 64.5149 45.8215 64.6323 45.7698 64.7612C45.7181 64.8902 45.6926 65.0281 45.6948 65.167Z" fill="#474747"/>
<path id="Vector_9" d="M78.6722 33.5903H14.8112L17.9455 25.4108C18.0971 25.0149 18.3652 24.6743 18.7144 24.434C19.0637 24.1937 19.4776 24.0651 19.9015 24.065H73.583C74.0066 24.0658 74.42 24.195 74.7687 24.4356C75.1174 24.6761 75.3849 25.0168 75.536 25.4125L78.6722 33.5903Z" fill="#FDB728"/>
<path id="Vector_10" d="M14.8112 33.5902V36.447C14.7853 37.6839 15.2517 38.8804 16.1079 39.7734C16.9641 40.6664 18.1399 41.1828 19.3767 41.209C20.613 41.182 21.7879 40.6653 22.6433 39.7723C23.4987 38.8793 23.9644 37.6833 23.9382 36.447V33.5902H14.8112Z" fill="#FDB728"/>
<path id="Vector_11" d="M23.9342 33.5902V36.447C23.9089 37.0619 24.0081 37.6755 24.2259 38.251C24.4437 38.8266 24.7757 39.3521 25.2017 39.7962C25.6278 40.2402 26.1393 40.5935 26.7054 40.8348C27.2714 41.0761 27.8805 41.2006 28.4959 41.2006C29.1112 41.2006 29.7203 41.0761 30.2864 40.8348C30.8524 40.5935 31.3639 40.2402 31.79 39.7962C32.2161 39.3521 32.548 38.8266 32.7658 38.251C32.9836 37.6755 33.0828 37.0619 33.0575 36.447V33.5902H23.9342Z" fill="white"/>
<path id="Vector_12" d="M33.0575 33.5902V36.447C33.0321 37.0619 33.1314 37.6755 33.3492 38.251C33.567 38.8266 33.8989 39.3521 34.325 39.7962C34.7511 40.2402 35.2625 40.5935 35.8286 40.8348C36.3947 41.0761 37.0037 41.2006 37.6191 41.2006C38.2345 41.2006 38.8435 41.0761 39.4096 40.8348C39.9757 40.5935 40.4871 40.2402 40.9132 39.7962C41.3393 39.3521 41.6712 38.8266 41.8891 38.251C42.1069 37.6755 42.2061 37.0619 42.1807 36.447V33.5902H33.0575Z" fill="#FDB728"/>
<path id="Vector_13" d="M42.1805 33.5902V36.447C42.1552 37.0619 42.2544 37.6755 42.4722 38.251C42.69 38.8266 43.0219 39.3521 43.448 39.7962C43.8741 40.2402 44.3856 40.5935 44.9516 40.8348C45.5177 41.0761 46.1268 41.2006 46.7421 41.2006C47.3575 41.2006 47.9666 41.0761 48.5326 40.8348C49.0987 40.5935 49.6102 40.2402 50.0363 39.7962C50.4623 39.3521 50.7943 38.8266 51.0121 38.251C51.2299 37.6755 51.3291 37.0619 51.3038 36.447V33.5902H42.1805Z" fill="white"/>
<path id="Vector_14" d="M51.3038 33.5902V36.447C51.2768 37.0628 51.3748 37.6776 51.5918 38.2545C51.8089 38.8314 52.1405 39.3584 52.5667 39.8037C52.9929 40.249 53.5048 40.6033 54.0717 40.8454C54.6385 41.0875 55.2485 41.2123 55.8649 41.2123C56.4813 41.2123 57.0912 41.0875 57.6581 40.8454C58.2249 40.6033 58.7369 40.249 59.1631 39.8037C59.5893 39.3584 59.9209 38.8314 60.1379 38.2545C60.355 37.6776 60.453 37.0628 60.426 36.447V33.5902H51.3038Z" fill="#FDB728"/>
<path id="Vector_15" d="M60.4258 33.5902V36.447C60.4004 37.0619 60.4996 37.6755 60.7174 38.251C60.9353 38.8266 61.2672 39.3521 61.6933 39.7962C62.1193 40.2402 62.6308 40.5935 63.1969 40.8348C63.763 41.0761 64.372 41.2006 64.9874 41.2006C65.6028 41.2006 66.2118 41.0761 66.7779 40.8348C67.344 40.5935 67.8554 40.2402 68.2815 39.7962C68.7076 39.3521 69.0395 38.8266 69.2573 38.251C69.4751 37.6755 69.5744 37.0619 69.549 36.447V33.5902H60.4258Z" fill="white"/>
<path id="Vector_16" d="M69.551 33.5902V36.447C69.5256 37.0619 69.6249 37.6755 69.8427 38.251C70.0605 38.8266 70.3924 39.3521 70.8185 39.7962C71.2446 40.2402 71.756 40.5935 72.3221 40.8348C72.8882 41.0761 73.4972 41.2006 74.1126 41.2006C74.728 41.2006 75.337 41.0761 75.9031 40.8348C76.4692 40.5935 76.9806 40.2402 77.4067 39.7962C77.8328 39.3521 78.1647 38.8266 78.3826 38.251C78.6004 37.6755 78.6996 37.0619 78.6742 36.447V33.5902H69.551Z" fill="#FDB728"/>
<path id="Vector_17" d="M78.6722 33.5903H14.8112L17.9455 25.4108C18.0971 25.0149 18.3652 24.6743 18.7144 24.434C19.0637 24.1937 19.4776 24.0651 19.9015 24.065H73.583C74.0066 24.0658 74.42 24.195 74.7687 24.4356C75.1174 24.6761 75.3849 25.0168 75.536 25.4125L78.6722 33.5903Z" stroke="#474747" stroke-linecap="round" stroke-linejoin="round"/>
<path id="Vector_18" d="M14.8112 33.5902V36.447C14.7853 37.6839 15.2517 38.8804 16.1079 39.7734C16.9641 40.6664 18.1399 41.1828 19.3767 41.209C20.613 41.182 21.7879 40.6653 22.6433 39.7723C23.4987 38.8793 23.9644 37.6833 23.9382 36.447V33.5902H14.8112Z" stroke="#474747" stroke-linecap="round" stroke-linejoin="round"/>
<path id="Vector_19" d="M23.9342 33.5902V36.447C23.9089 37.0619 24.0081 37.6755 24.2259 38.251C24.4437 38.8266 24.7757 39.3521 25.2017 39.7962C25.6278 40.2402 26.1393 40.5935 26.7054 40.8348C27.2714 41.0761 27.8805 41.2006 28.4959 41.2006C29.1112 41.2006 29.7203 41.0761 30.2864 40.8348C30.8524 40.5935 31.3639 40.2402 31.79 39.7962C32.2161 39.3521 32.548 38.8266 32.7658 38.251C32.9836 37.6755 33.0828 37.0619 33.0575 36.447V33.5902H23.9342Z" stroke="#474747" stroke-linecap="round" stroke-linejoin="round"/>
<path id="Vector_20" d="M33.0575 33.5902V36.447C33.0321 37.0619 33.1314 37.6755 33.3492 38.251C33.567 38.8266 33.8989 39.3521 34.325 39.7962C34.7511 40.2402 35.2625 40.5935 35.8286 40.8348C36.3947 41.0761 37.0037 41.2006 37.6191 41.2006C38.2345 41.2006 38.8435 41.0761 39.4096 40.8348C39.9757 40.5935 40.4871 40.2402 40.9132 39.7962C41.3393 39.3521 41.6712 38.8266 41.8891 38.251C42.1069 37.6755 42.2061 37.0619 42.1807 36.447V33.5902H33.0575Z" stroke="#474747" stroke-linecap="round" stroke-linejoin="round"/>
<path id="Vector_21" d="M42.1805 33.5902V36.447C42.1552 37.0619 42.2544 37.6755 42.4722 38.251C42.69 38.8266 43.0219 39.3521 43.448 39.7962C43.8741 40.2402 44.3856 40.5935 44.9516 40.8348C45.5177 41.0761 46.1268 41.2006 46.7421 41.2006C47.3575 41.2006 47.9666 41.0761 48.5326 40.8348C49.0987 40.5935 49.6102 40.2402 50.0363 39.7962C50.4623 39.3521 50.7943 38.8266 51.0121 38.251C51.2299 37.6755 51.3291 37.0619 51.3038 36.447V33.5902H42.1805Z" stroke="#474747" stroke-linecap="round" stroke-linejoin="round"/>
<path id="Vector_22" d="M51.3038 33.5902V36.447C51.2768 37.0628 51.3748 37.6776 51.5918 38.2545C51.8089 38.8314 52.1405 39.3584 52.5667 39.8037C52.9929 40.249 53.5048 40.6033 54.0717 40.8454C54.6385 41.0875 55.2485 41.2123 55.8649 41.2123C56.4813 41.2123 57.0912 41.0875 57.6581 40.8454C58.2249 40.6033 58.7369 40.249 59.1631 39.8037C59.5893 39.3584 59.9209 38.8314 60.1379 38.2545C60.355 37.6776 60.453 37.0628 60.426 36.447V33.5902H51.3038Z" stroke="#474747" stroke-linecap="round" stroke-linejoin="round"/>
<path id="Vector_23" d="M60.4258 33.5902V36.447C60.4004 37.0619 60.4996 37.6755 60.7174 38.251C60.9353 38.8266 61.2672 39.3521 61.6933 39.7962C62.1193 40.2402 62.6308 40.5935 63.1969 40.8348C63.763 41.0761 64.372 41.2006 64.9874 41.2006C65.6028 41.2006 66.2118 41.0761 66.7779 40.8348C67.344 40.5935 67.8554 40.2402 68.2815 39.7962C68.7076 39.3521 69.0395 38.8266 69.2573 38.251C69.4751 37.6755 69.5744 37.0619 69.549 36.447V33.5902H60.4258Z" stroke="#474747" stroke-linecap="round" stroke-linejoin="round"/>
<path id="Vector_24" d="M69.551 33.5902V36.447C69.5256 37.0619 69.6249 37.6755 69.8427 38.251C70.0605 38.8266 70.3924 39.3521 70.8185 39.7962C71.2446 40.2402 71.756 40.5935 72.3221 40.8348C72.8882 41.0761 73.4972 41.2006 74.1126 41.2006C74.728 41.2006 75.337 41.0761 75.9031 40.8348C76.4692 40.5935 76.9806 40.2402 77.4067 39.7962C77.8328 39.3521 78.1647 38.8266 78.3826 38.251C78.6004 37.6755 78.6996 37.0619 78.6742 36.447V33.5902H69.551Z" stroke="#474747" stroke-linecap="round" stroke-linejoin="round"/>
<path id="Vector_25" d="M59.7345 77.0532C59.7356 77.8599 60.0564 78.6332 60.6267 79.2036C61.1969 79.7741 61.9701 80.0952 62.7768 80.0965H80.8615C81.0229 80.1011 81.1835 80.0734 81.334 80.0148C81.4844 79.9563 81.6216 79.8682 81.7373 79.7557C81.8531 79.6432 81.9452 79.5086 82.008 79.3599C82.0709 79.2112 82.1032 79.0514 82.1032 78.89C82.1032 78.7286 82.0709 78.5688 82.008 78.4201C81.9452 78.2714 81.8531 78.1368 81.7373 78.0243C81.6216 77.9118 81.4844 77.8237 81.334 77.7652C81.1835 77.7066 81.0229 77.6789 80.8615 77.6835H62.7768C62.6384 77.6836 62.5039 77.6382 62.3939 77.5542C62.284 77.4702 62.2048 77.3523 62.1686 77.2188C62.1324 77.0853 62.1411 76.9436 62.1935 76.8155C62.2459 76.6875 62.3391 76.5803 62.4585 76.5105L66.4485 74.1585C66.7163 73.9921 66.9083 73.7275 66.9836 73.4213C67.0588 73.1152 67.0113 72.7917 66.8511 72.5201C66.6909 72.2486 66.4309 72.0505 66.1265 71.9682C65.8222 71.8859 65.4977 71.9259 65.2225 72.0797L61.2325 74.4327C60.7772 74.7023 60.3997 75.0856 60.137 75.545C59.8744 76.0044 59.7356 76.5241 59.7343 77.0532H59.7345Z" fill="#FDB728"/>
<path id="Vector_26" d="M59.7345 77.0532C59.7356 77.8599 60.0564 78.6332 60.6267 79.2036C61.1969 79.7741 61.9701 80.0952 62.7768 80.0965H80.8615C81.0229 80.1011 81.1835 80.0734 81.334 80.0148C81.4844 79.9563 81.6216 79.8682 81.7373 79.7557C81.8531 79.6432 81.9452 79.5086 82.008 79.3599C82.0709 79.2112 82.1032 79.0514 82.1032 78.89C82.1032 78.7286 82.0709 78.5688 82.008 78.4201C81.9452 78.2714 81.8531 78.1368 81.7373 78.0243C81.6216 77.9118 81.4844 77.8237 81.334 77.7652C81.1835 77.7066 81.0229 77.6789 80.8615 77.6835H62.7768C62.6384 77.6836 62.5039 77.6382 62.3939 77.5542C62.284 77.4702 62.2048 77.3523 62.1686 77.2188C62.1324 77.0853 62.1411 76.9436 62.1935 76.8155C62.2459 76.6875 62.3391 76.5803 62.4585 76.5105L66.4485 74.1585C66.7163 73.9921 66.9083 73.7275 66.9836 73.4213C67.0588 73.1152 67.0113 72.7917 66.8511 72.5201C66.6909 72.2486 66.4309 72.0505 66.1265 71.9682C65.8222 71.8859 65.4977 71.9259 65.2225 72.0797L61.2325 74.4327C60.7772 74.7023 60.3997 75.0856 60.137 75.545C59.8744 76.0044 59.7356 76.5241 59.7343 77.0532H59.7345Z" stroke="#474747" stroke-linecap="round" stroke-linejoin="round"/>
<path id="Vector_27" d="M77.492 81.7045C77.492 82.1312 77.6615 82.5405 77.9633 82.8422C78.265 83.144 78.6743 83.3135 79.101 83.3135C79.5277 83.3135 79.937 83.144 80.2387 82.8422C80.5405 82.5405 80.71 82.1312 80.71 81.7045C80.71 81.2778 80.5405 80.8685 80.2387 80.5668C79.937 80.265 79.5277 80.0955 79.101 80.0955C78.6743 80.0955 78.265 80.265 77.9633 80.5668C77.6615 80.8685 77.492 81.2778 77.492 81.7045Z" fill="white" stroke="#474747" stroke-linecap="round" stroke-linejoin="round"/>
<path id="Vector_28" d="M62.369 81.7045C62.369 82.1312 62.5385 82.5405 62.8403 82.8422C63.142 83.144 63.5513 83.3135 63.978 83.3135C64.4047 83.3135 64.814 83.144 65.1157 82.8422C65.4175 82.5405 65.587 82.1312 65.587 81.7045C65.587 81.2778 65.4175 80.8685 65.1157 80.5668C64.814 80.265 64.4047 80.0955 63.978 80.0955C63.5513 80.0955 63.142 80.265 62.8403 80.5668C62.5385 80.8685 62.369 81.2778 62.369 81.7045Z" fill="white" stroke="#474747" stroke-linecap="round" stroke-linejoin="round"/>
<path id="Vector_29" d="M57.0075 56.743V59.156H58.7133C58.8921 59.156 59.0658 59.2155 59.207 59.3251C59.3482 59.4348 59.4489 59.5883 59.4933 59.7615L63.3265 72.0448C63.4653 72.6687 63.8131 73.2265 64.3124 73.6256C64.8116 74.0248 65.4323 74.2413 66.0715 74.2393H78.8755C79.5147 74.2415 80.1355 74.025 80.6348 73.6259C81.1341 73.2267 81.4819 72.6688 81.6205 72.0448L83.1835 65.188C83.2718 64.802 83.2776 64.4017 83.2006 64.0132C83.1235 63.6248 82.9653 63.257 82.7363 62.934C82.5073 62.6109 82.2126 62.3398 81.8717 62.1385C81.5307 61.9371 81.151 61.81 80.7575 61.7655L62.0613 59.611L61.4478 57.656C61.3819 57.3947 61.2306 57.163 61.0179 56.9976C60.8051 56.8322 60.5432 56.7427 60.2738 56.7433L57.0075 56.743ZM71.2278 66.5415C71.1345 66.5416 71.0422 66.5234 70.956 66.4878C70.8699 66.4522 70.7916 66.4 70.7256 66.3341C70.6596 66.2683 70.6073 66.19 70.5716 66.1039C70.5359 66.0178 70.5175 65.9255 70.5175 65.8323V63.7955C70.5177 63.6949 70.5393 63.5955 70.5808 63.5039C70.6223 63.4123 70.6827 63.3305 70.7581 63.2639C70.8335 63.1974 70.9222 63.1476 71.0183 63.1178C71.1144 63.088 71.2157 63.079 71.3155 63.0913L73.3185 63.3435C73.49 63.3651 73.6477 63.4486 73.7619 63.5783C73.8762 63.708 73.9391 63.8749 73.939 64.0478V65.8323C73.939 66.0204 73.8643 66.2008 73.7313 66.3338C73.5983 66.4668 73.4179 66.5415 73.2298 66.5415H71.2278ZM73.2308 68.9525C73.4189 68.9525 73.5993 69.0272 73.7323 69.1602C73.8653 69.2933 73.94 69.4737 73.94 69.6618V71.1073C73.9401 71.2005 73.9219 71.2928 73.8863 71.379C73.8507 71.4652 73.7985 71.5435 73.7326 71.6094C73.6668 71.6754 73.5885 71.7277 73.5024 71.7634C73.4163 71.7991 73.324 71.8175 73.2308 71.8175H71.2278C71.0394 71.8175 70.8587 71.7427 70.7255 71.6095C70.5923 71.4763 70.5175 71.2956 70.5175 71.1073V69.6638C70.5174 69.5704 70.5356 69.4779 70.5713 69.3917C70.6069 69.3054 70.6592 69.227 70.7252 69.1609C70.7911 69.0948 70.8695 69.0424 70.9557 69.0067C71.042 68.9709 71.1344 68.9525 71.2278 68.9525H73.2308ZM80.8308 64.6463L80.5235 65.99C80.4881 66.1468 80.4004 66.2869 80.2747 66.3871C80.1491 66.4874 79.993 66.5418 79.8323 66.5415H77.0633C76.97 66.5416 76.8777 66.5234 76.7915 66.4878C76.7054 66.4522 76.6271 66.4 76.5611 66.3341C76.4951 66.2683 76.4428 66.19 76.4071 66.1039C76.3714 66.0178 76.353 65.9255 76.353 65.8323V64.4875C76.3532 64.3877 76.3745 64.289 76.4154 64.198C76.4563 64.1069 76.5158 64.0255 76.5903 63.959C76.6647 63.8924 76.7523 63.8423 76.8473 63.8119C76.9424 63.7814 77.0428 63.7713 77.142 63.7823L80.4838 64.1593C80.5402 64.1651 80.5947 64.1829 80.6438 64.2115C80.6928 64.2401 80.7351 64.2788 80.768 64.3251C80.8009 64.3713 80.8235 64.424 80.8343 64.4797C80.8452 64.5354 80.8441 64.5928 80.831 64.648L80.8308 64.6463ZM79.2668 71.506C79.2472 71.595 79.1977 71.6747 79.1265 71.7317C79.0554 71.7886 78.9669 71.8196 78.8758 71.8193H77.0633C76.8749 71.8193 76.6942 71.7444 76.561 71.6112C76.4278 71.478 76.353 71.2974 76.353 71.109V69.6635C76.3529 69.5702 76.3711 69.4777 76.4068 69.3914C76.4424 69.3051 76.4947 69.2267 76.5607 69.1606C76.6266 69.0946 76.705 69.0422 76.7912 69.0064C76.8775 68.9707 76.9699 68.9523 77.0633 68.9523H78.9585C79.0652 68.9521 79.1705 68.976 79.2667 69.0223C79.3629 69.0685 79.4474 69.1358 79.5139 69.2192C79.5804 69.3026 79.6273 69.3999 79.651 69.504C79.6747 69.608 79.6746 69.716 79.6508 69.82L79.2668 71.506ZM65.8733 71.7603L65.3048 69.865C65.273 69.7591 65.2665 69.6473 65.2857 69.5385C65.3049 69.4296 65.3492 69.3268 65.4152 69.2381C65.4812 69.1494 65.567 69.0774 65.6657 69.0278C65.7645 68.9781 65.8735 68.9523 65.984 68.9523H67.3955C67.5836 68.9523 67.764 69.027 67.897 69.16C68.03 69.293 68.1048 69.4734 68.1048 69.6615V71.107C68.1049 71.2002 68.0866 71.2926 68.0511 71.3787C68.0155 71.4649 67.9633 71.5432 67.8974 71.6092C67.8315 71.6751 67.7533 71.7275 67.6672 71.7632C67.581 71.7989 67.4887 71.8173 67.3955 71.8173H66.0718C66.0017 71.8167 65.933 71.7971 65.8733 71.7605V71.7603ZM63.2928 63.167C63.259 63.0546 63.2537 62.9356 63.2772 62.8207C63.3008 62.7057 63.3525 62.5984 63.4277 62.5084C63.5029 62.4183 63.5993 62.3483 63.7082 62.3047C63.8171 62.261 63.9352 62.2451 64.0518 62.2583L67.4753 62.6443C67.6486 62.6637 67.8087 62.7463 67.9249 62.8765C68.0411 63.0066 68.1051 63.1751 68.1048 63.3495V65.8283C68.1048 66.0164 68.03 66.1968 67.897 66.3298C67.764 66.4628 67.5836 66.5375 67.3955 66.5375H64.8328C64.6803 66.5375 64.532 66.4885 64.4096 66.3975C64.2873 66.3066 64.1975 66.1787 64.1535 66.0328L63.2928 63.167Z" fill="white"/>
<path id="Vector_30" d="M53.3307 57.949C53.3307 57.7906 53.362 57.6336 53.4226 57.4873C53.4833 57.3409 53.5722 57.2079 53.6843 57.0959C53.7964 56.9839 53.9295 56.8951 54.0759 56.8345C54.2224 56.774 54.3793 56.7429 54.5378 56.743H57.0075V59.156H54.5378C54.2176 59.156 53.9106 59.0288 53.6843 58.8025C53.4579 58.5761 53.3307 58.2691 53.3307 57.949Z" fill="#FDB728"/>
<path id="Vector_31" d="M57.0075 56.743V59.156H58.7133C58.8921 59.156 59.0658 59.2155 59.207 59.3251C59.3482 59.4348 59.4489 59.5883 59.4933 59.7615L63.3265 72.0448C63.4653 72.6687 63.8131 73.2265 64.3124 73.6256C64.8116 74.0248 65.4323 74.2413 66.0715 74.2393H78.8755C79.5148 74.2415 80.1355 74.025 80.6348 73.6259C81.1341 73.2267 81.4819 72.6688 81.6205 72.0448L83.1835 65.188C83.2718 64.802 83.2776 64.4017 83.2006 64.0132C83.1235 63.6248 82.9653 63.257 82.7363 62.934C82.5073 62.6109 82.2126 62.3398 81.8717 62.1385C81.5307 61.9371 81.151 61.81 80.7575 61.7655L62.0613 59.611L61.4478 57.656C61.3819 57.3947 61.2306 57.163 61.0179 56.9976C60.8051 56.8322 60.5432 56.7427 60.2738 56.7433L57.0075 56.743ZM71.2278 66.5415C71.1345 66.5416 71.0422 66.5234 70.956 66.4878C70.8699 66.4522 70.7916 66.4 70.7256 66.3341C70.6596 66.2683 70.6073 66.19 70.5716 66.1039C70.5359 66.0178 70.5175 65.9255 70.5175 65.8323V63.7955C70.5177 63.6949 70.5393 63.5955 70.5808 63.5039C70.6223 63.4123 70.6827 63.3305 70.7581 63.2639C70.8335 63.1974 70.9222 63.1476 71.0183 63.1178C71.1144 63.088 71.2157 63.079 71.3155 63.0913L73.3185 63.3435C73.49 63.3651 73.6477 63.4486 73.7619 63.5783C73.8762 63.708 73.9392 63.8749 73.939 64.0478V65.8323C73.939 66.0204 73.8643 66.2008 73.7313 66.3338C73.5983 66.4668 73.4179 66.5415 73.2298 66.5415H71.2278ZM73.2308 68.9525C73.4189 68.9525 73.5993 69.0272 73.7323 69.1602C73.8653 69.2933 73.94 69.4737 73.94 69.6618V71.1073C73.9401 71.2005 73.9219 71.2928 73.8863 71.379C73.8507 71.4652 73.7985 71.5435 73.7326 71.6094C73.6668 71.6754 73.5885 71.7277 73.5024 71.7634C73.4163 71.7991 73.324 71.8175 73.2308 71.8175H71.2278C71.0394 71.8175 70.8587 71.7427 70.7255 71.6095C70.5923 71.4763 70.5175 71.2956 70.5175 71.1073V69.6638C70.5174 69.5704 70.5356 69.4779 70.5713 69.3917C70.6069 69.3054 70.6592 69.227 70.7252 69.1609C70.7911 69.0948 70.8695 69.0424 70.9557 69.0067C71.042 68.9709 71.1344 68.9525 71.2278 68.9525H73.2308ZM80.8308 64.6463L80.5235 65.99C80.4881 66.1468 80.4004 66.2869 80.2747 66.3871C80.1491 66.4874 79.993 66.5418 79.8323 66.5415H77.0633C76.97 66.5416 76.8777 66.5234 76.7915 66.4878C76.7054 66.4522 76.6271 66.4 76.5611 66.3341C76.4951 66.2683 76.4428 66.19 76.4071 66.1039C76.3714 66.0178 76.353 65.9255 76.353 65.8323V64.4875C76.3532 64.3877 76.3745 64.289 76.4154 64.198C76.4563 64.1069 76.5158 64.0255 76.5903 63.959C76.6647 63.8924 76.7523 63.8423 76.8473 63.8119C76.9424 63.7814 77.0428 63.7713 77.142 63.7823L80.4838 64.1593C80.5402 64.1651 80.5947 64.1829 80.6438 64.2115C80.6928 64.2401 80.7351 64.2788 80.768 64.3251C80.8009 64.3713 80.8235 64.424 80.8343 64.4797C80.8452 64.5354 80.8441 64.5928 80.831 64.648L80.8308 64.6463ZM79.2668 71.506C79.2472 71.595 79.1977 71.6747 79.1265 71.7317C79.0554 71.7886 78.9669 71.8196 78.8758 71.8193H77.0633C76.8749 71.8193 76.6942 71.7444 76.561 71.6112C76.4278 71.478 76.353 71.2974 76.353 71.109V69.6635C76.3529 69.5702 76.3711 69.4777 76.4068 69.3914C76.4424 69.3051 76.4947 69.2267 76.5607 69.1606C76.6267 69.0946 76.705 69.0422 76.7912 69.0064C76.8775 68.9707 76.9699 68.9523 77.0633 68.9523H78.9585C79.0652 68.9521 79.1705 68.976 79.2667 69.0223C79.3629 69.0685 79.4474 69.1358 79.5139 69.2192C79.5804 69.3026 79.6273 69.3999 79.651 69.504C79.6747 69.608 79.6746 69.716 79.6508 69.82L79.2668 71.506ZM65.8733 71.7603L65.3048 69.865C65.273 69.7591 65.2665 69.6473 65.2857 69.5385C65.3049 69.4296 65.3492 69.3268 65.4152 69.2381C65.4812 69.1494 65.567 69.0774 65.6657 69.0278C65.7645 68.9781 65.8735 68.9523 65.984 68.9523H67.3955C67.5836 68.9523 67.764 69.027 67.897 69.16C68.03 69.293 68.1048 69.4734 68.1048 69.6615V71.107C68.1049 71.2002 68.0866 71.2926 68.0511 71.3787C68.0155 71.4649 67.9633 71.5432 67.8974 71.6092C67.8315 71.6751 67.7533 71.7275 67.6672 71.7632C67.581 71.7989 67.4887 71.8173 67.3955 71.8173H66.0718C66.0017 71.8167 65.933 71.7971 65.8733 71.7605V71.7603ZM63.2928 63.167C63.259 63.0546 63.2537 62.9356 63.2772 62.8207C63.3008 62.7057 63.3525 62.5984 63.4277 62.5084C63.5029 62.4183 63.5993 62.3483 63.7082 62.3047C63.8171 62.261 63.9352 62.2451 64.0518 62.2583L67.4753 62.6443C67.6486 62.6637 67.8087 62.7464 67.9249 62.8765C68.0411 63.0066 68.1051 63.1751 68.1048 63.3495V65.8283C68.1048 66.0164 68.03 66.1968 67.897 66.3298C67.764 66.4628 67.5836 66.5375 67.3955 66.5375H64.8328C64.6803 66.5375 64.532 66.4885 64.4096 66.3975C64.2873 66.3066 64.1975 66.1787 64.1535 66.0328L63.2928 63.167Z" stroke="#474747" stroke-linecap="round" stroke-linejoin="round"/>
<path id="Vector_32" d="M53.3307 57.949C53.3307 57.7906 53.362 57.6336 53.4226 57.4873C53.4833 57.3409 53.5722 57.2079 53.6843 57.0959C53.7964 56.9839 53.9295 56.8951 54.0759 56.8345C54.2224 56.774 54.3793 56.7429 54.5378 56.743H57.0075V59.156H54.5378C54.2176 59.156 53.9106 59.0288 53.6843 58.8025C53.4579 58.5761 53.3307 58.2691 53.3307 57.949Z" stroke="#474747" stroke-linecap="round" stroke-linejoin="round"/>
</g>
</svg>
