<svg width="100" height="100" viewBox="0 0 100 100" fill="none" xmlns="http://www.w3.org/2000/svg">
<path d="M53.9253 81.3813L39.661 81.3633C37.8008 81.3598 36.0181 80.618 34.7045 79.3009C33.3909 77.9837 32.6539 76.199 32.6555 74.3388L32.6745 58.678C32.6764 57.189 33.2696 55.7617 34.3237 54.71C35.3778 53.6583 36.8065 53.0684 38.2955 53.07L55.3638 53.091C56.8522 53.0924 58.2791 53.6848 59.3309 54.738C60.3826 55.7911 60.9731 57.2189 60.9725 58.7073L60.9535 74.368C60.953 75.2901 60.7707 76.2031 60.4171 77.0548C60.0636 77.9065 59.5456 78.6801 58.8928 79.3314C58.2401 79.9828 57.4654 80.4991 56.613 80.8509C55.7605 81.2026 54.8472 81.383 53.925 81.3815L53.9253 81.3813Z" fill="#FDB728"/>
<path d="M54.1895 49.0425L39.4792 49.0245C39.107 49.0245 38.7499 49.1722 38.4865 49.4351C38.223 49.698 38.0745 50.0548 38.0737 50.427V53.0655L55.5907 53.0865V50.448C55.591 50.0759 55.4436 49.7189 55.1809 49.4554C54.9181 49.1919 54.5616 49.0434 54.1895 49.0425Z" fill="#FDB728"/>
<path d="M53.9253 81.3813L39.661 81.3633C37.8008 81.3598 36.0181 80.618 34.7045 79.3009C33.3909 77.9837 32.6539 76.199 32.6555 74.3388L32.6745 58.678C32.6764 57.189 33.2696 55.7617 34.3237 54.71C35.3778 53.6583 36.8065 53.0684 38.2955 53.07L55.3638 53.091C56.8522 53.0924 58.2791 53.6848 59.3309 54.738C60.3826 55.7911 60.9731 57.2189 60.9725 58.7073L60.9535 74.368C60.953 75.2901 60.7707 76.2031 60.4171 77.0548C60.0636 77.9065 59.5456 78.6801 58.8928 79.3314C58.2401 79.9828 57.4654 80.4991 56.613 80.8509C55.7605 81.2026 54.8472 81.383 53.925 81.3815L53.9253 81.3813Z" stroke="#474747" stroke-linecap="round" stroke-linejoin="round"/>
<path d="M54.1895 49.0425L39.4792 49.0245C39.107 49.0245 38.7499 49.1722 38.4865 49.4351C38.223 49.698 38.0745 50.0548 38.0737 50.427V53.0655L55.5907 53.0865V50.448C55.591 50.0759 55.4436 49.7189 55.1809 49.4554C54.9181 49.1919 54.5616 49.0434 54.1895 49.0425Z" stroke="#474747" stroke-linecap="round" stroke-linejoin="round"/>
<path d="M56.9068 76.6692C56.9072 76.4038 56.8552 76.1408 56.754 75.8954C56.6527 75.65 56.5041 75.4269 56.3166 75.2389C56.1291 75.051 55.9064 74.9018 55.6612 74.7999C55.4161 74.6981 55.1532 74.6455 54.8878 74.6452L48.1508 74.6382C47.6187 74.6435 47.1101 74.8583 46.7354 75.2362C46.3608 75.6141 46.1503 76.1245 46.1496 76.6566C46.1489 77.1888 46.3582 77.6997 46.7319 78.0785C47.1056 78.4573 47.6137 78.6735 48.1458 78.68L54.8828 78.688C55.1482 78.6884 55.4112 78.6365 55.6566 78.5352C55.902 78.4339 56.1251 78.2853 56.3131 78.0978C56.501 77.9103 56.6502 77.6876 56.7521 77.4425C56.8539 77.1973 56.9065 76.9345 56.9068 76.669V76.6692Z" fill="white"/>
<path d="M56.9068 76.6692C56.9072 76.4038 56.8552 76.1408 56.754 75.8954C56.6527 75.65 56.5041 75.4269 56.3166 75.2389C56.1291 75.051 55.9064 74.9018 55.6612 74.7999C55.4161 74.6981 55.1532 74.6455 54.8878 74.6452L48.1508 74.6382C47.6187 74.6435 47.1101 74.8583 46.7354 75.2362C46.3608 75.6141 46.1503 76.1245 46.1496 76.6566C46.1489 77.1888 46.3582 77.6997 46.7319 78.0785C47.1056 78.4573 47.6137 78.6735 48.1458 78.68L54.8828 78.688C55.1482 78.6884 55.4112 78.6365 55.6566 78.5352C55.902 78.4339 56.1251 78.2853 56.3131 78.0978C56.501 77.9103 56.6502 77.6876 56.7521 77.4425C56.8539 77.1973 56.9065 76.9345 56.9068 76.669V76.6692Z" stroke="#474747" stroke-linecap="round" stroke-linejoin="round"/>
<path d="M58.2593 72.6273C58.2595 72.0912 58.0469 71.5769 57.6681 71.1975C57.2893 70.8182 56.7754 70.6048 56.2393 70.6042L49.5013 70.5963C48.9739 70.6094 48.4725 70.8281 48.1041 71.2057C47.7357 71.5834 47.5295 72.0901 47.5295 72.6176C47.5295 73.1452 47.7357 73.6519 48.1041 74.0295C48.4725 74.4072 48.9739 74.6259 49.5013 74.639L56.2373 74.647C56.7731 74.6467 57.287 74.4339 57.666 74.0552C58.0451 73.6765 58.2585 73.1628 58.2593 72.627V72.6273Z" fill="white"/>
<path d="M58.2593 72.6273C58.2595 72.0912 58.0469 71.5769 57.6681 71.1975C57.2893 70.8182 56.7754 70.6048 56.2393 70.6042L49.5013 70.5963C48.9739 70.6094 48.4725 70.8281 48.1041 71.2057C47.7357 71.5834 47.5295 72.0901 47.5295 72.6176C47.5295 73.1452 47.7357 73.6519 48.1041 74.0295C48.4725 74.4072 48.9739 74.6259 49.5013 74.639L56.2373 74.647C56.7731 74.6467 57.287 74.4339 57.666 74.0552C58.0451 73.6765 58.2585 73.1628 58.2593 72.627V72.6273Z" stroke="#474747" stroke-linecap="round" stroke-linejoin="round"/>
<path d="M58.2733 60.5018C58.2737 60.2363 58.2217 59.9734 58.1205 59.7281C58.0192 59.4827 57.8705 59.2597 57.683 59.0718C57.4955 58.8839 57.2728 58.7349 57.0277 58.6331C56.7825 58.5313 56.5197 58.4789 56.2543 58.4788L49.5173 58.4708C48.9899 58.4839 48.4885 58.7026 48.1201 59.0803C47.7517 59.4579 47.5455 59.9646 47.5455 60.4921C47.5455 61.0197 47.7517 61.5264 48.1201 61.904C48.4885 62.2817 48.9899 62.5004 49.5173 62.5135L56.2543 62.5215C56.7897 62.5207 57.3029 62.3076 57.6814 61.9289C58.0599 61.5503 58.2727 61.0369 58.2733 60.5015V60.5018Z" fill="white"/>
<path d="M58.2733 60.5018C58.2737 60.2363 58.2217 59.9734 58.1205 59.7281C58.0192 59.4827 57.8705 59.2597 57.683 59.0718C57.4955 58.8839 57.2728 58.7349 57.0277 58.6331C56.7825 58.5313 56.5197 58.4789 56.2543 58.4788L49.5173 58.4708C48.9899 58.4839 48.4885 58.7026 48.1201 59.0803C47.7517 59.4579 47.5455 59.9646 47.5455 60.4921C47.5455 61.0197 47.7517 61.5264 48.1201 61.904C48.4885 62.2817 48.9899 62.5004 49.5173 62.5135L56.2543 62.5215C56.7897 62.5207 57.3029 62.3076 57.6814 61.9289C58.0599 61.5503 58.2727 61.0369 58.2733 60.5015V60.5018Z" stroke="#474747" stroke-linecap="round" stroke-linejoin="round"/>
<path d="M54.8998 64.5395C54.9002 64.2741 54.8483 64.0113 54.7471 63.766C54.6459 63.5207 54.4973 63.2978 54.3099 63.1099C54.1225 62.922 53.8999 62.7729 53.6549 62.6711C53.4098 62.5693 53.1471 62.5168 52.8818 62.5165L46.1448 62.5075C45.8751 62.5008 45.6068 62.5481 45.3557 62.6467C45.1046 62.7452 44.8757 62.8931 44.6826 63.0814C44.4895 63.2698 44.3361 63.4949 44.2313 63.7435C44.1265 63.9921 44.0725 64.2591 44.0725 64.5289C44.0725 64.7986 44.1265 65.0657 44.2313 65.3142C44.3361 65.5628 44.4895 65.7879 44.6826 65.9763C44.8757 66.1647 45.1046 66.3125 45.3557 66.4111C45.6068 66.5096 45.8751 66.5569 46.1448 66.5502L52.8818 66.5582C53.4168 66.5572 53.9297 66.3441 54.3079 65.9657C54.6862 65.5872 54.899 65.0745 54.8998 64.5395Z" fill="white"/>
<path d="M54.8998 64.5395C54.9002 64.2741 54.8483 64.0113 54.7471 63.766C54.6459 63.5207 54.4973 63.2978 54.3099 63.1099C54.1225 62.922 53.8999 62.7729 53.6549 62.6711C53.4098 62.5693 53.1471 62.5168 52.8818 62.5165L46.1448 62.5075C45.8751 62.5008 45.6068 62.5481 45.3557 62.6467C45.1046 62.7452 44.8757 62.8931 44.6826 63.0814C44.4895 63.2698 44.3361 63.4949 44.2313 63.7435C44.1265 63.9921 44.0725 64.2591 44.0725 64.5289C44.0725 64.7986 44.1265 65.0657 44.2313 65.3142C44.3361 65.5628 44.4895 65.7879 44.6826 65.9763C44.8757 66.1647 45.1046 66.3125 45.3557 66.4111C45.6068 66.5096 45.8751 66.5569 46.1448 66.5502L52.8818 66.5582C53.4168 66.5572 53.9297 66.3441 54.3079 65.9657C54.6862 65.5872 54.899 65.0745 54.8998 64.5395Z" stroke="#474747" stroke-linecap="round" stroke-linejoin="round"/>
<path d="M45.201 59.8922C44.959 59.4139 44.5369 59.0512 44.0275 58.884C43.5182 58.7168 42.9632 58.7587 42.4848 59.0005L36.4728 62.041C36.0008 62.2864 35.6447 62.7081 35.4816 63.2145C35.3185 63.7208 35.3616 64.2711 35.6017 64.7458C35.8417 65.2206 36.2592 65.5815 36.7636 65.7504C37.2681 65.9193 37.8188 65.8825 38.2963 65.648L44.3143 62.6075C44.7915 62.3646 45.1529 61.9423 45.3191 61.4332C45.4854 60.9242 45.4429 60.37 45.201 59.8922Z" fill="white"/>
<path d="M45.201 59.8922C44.959 59.4139 44.5369 59.0512 44.0275 58.884C43.5182 58.7168 42.9632 58.7587 42.4848 59.0005L36.4728 62.041C36.0008 62.2864 35.6447 62.7081 35.4816 63.2145C35.3185 63.7208 35.3616 64.2711 35.6017 64.7458C35.8417 65.2206 36.2592 65.5815 36.7636 65.7504C37.2681 65.9193 37.8188 65.8825 38.2963 65.648L44.3143 62.6075C44.7915 62.3646 45.1529 61.9423 45.3191 61.4332C45.4854 60.9242 45.4429 60.37 45.201 59.8922Z" stroke="#474747" stroke-linecap="round" stroke-linejoin="round"/>
<path d="M47.4753 76.6573C47.4745 76.1219 47.2614 75.6086 46.8827 75.2301C46.504 74.8516 45.9907 74.6388 45.4553 74.6383L38.7183 74.6293C38.4486 74.6225 38.1803 74.6699 37.9292 74.7684C37.6781 74.867 37.4492 75.0148 37.2561 75.2032C37.063 75.3916 36.9095 75.6167 36.8048 75.8652C36.7 76.1138 36.646 76.3809 36.646 76.6506C36.646 76.9204 36.7 77.1874 36.8048 77.436C36.9095 77.6846 37.063 77.9097 37.2561 78.0981C37.4492 78.2864 37.6781 78.4343 37.9292 78.5328C38.1803 78.6314 38.4486 78.6787 38.7183 78.672L45.4553 78.68C45.9913 78.6792 46.5051 78.4657 46.8838 78.0864C47.2625 77.7071 47.4753 77.193 47.4753 76.657V76.6573Z" fill="white"/>
<path d="M47.4753 76.6573C47.4745 76.1219 47.2614 75.6086 46.8827 75.2301C46.504 74.8516 45.9907 74.6388 45.4553 74.6383L38.7183 74.6293C38.4486 74.6225 38.1803 74.6699 37.9292 74.7684C37.6781 74.867 37.4492 75.0148 37.2561 75.2032C37.063 75.3916 36.9095 75.6167 36.8048 75.8652C36.7 76.1138 36.646 76.3809 36.646 76.6506C36.646 76.9204 36.7 77.1874 36.8048 77.436C36.9095 77.6846 37.063 77.9097 37.2561 78.0981C37.4492 78.2864 37.6781 78.4343 37.9292 78.5328C38.1803 78.6314 38.4486 78.6787 38.7183 78.672L45.4553 78.68C45.9913 78.6792 46.5051 78.4657 46.8838 78.0864C47.2625 77.7071 47.4753 77.193 47.4753 76.657V76.6573Z" stroke="#474747" stroke-linecap="round" stroke-linejoin="round"/>
<path d="M46.1327 72.6133C46.133 72.0775 45.9206 71.5635 45.5423 71.1842C45.1639 70.8049 44.6505 70.5913 44.1147 70.5902L37.3787 70.5813C37.109 70.5745 36.8408 70.6219 36.5896 70.7204C36.3385 70.819 36.1097 70.9668 35.9166 71.1552C35.7235 71.3436 35.57 71.5687 35.4652 71.8172C35.3604 72.0658 35.3065 72.3329 35.3065 72.6026C35.3065 72.8724 35.3604 73.1394 35.4652 73.388C35.57 73.6366 35.7235 73.8617 35.9166 74.0501C36.1097 74.2384 36.3385 74.3862 36.5896 74.4848C36.8408 74.5834 37.109 74.6307 37.3787 74.624L44.1147 74.632C44.6497 74.6307 45.1624 74.4175 45.5406 74.0391C45.9188 73.6608 46.1317 73.148 46.1327 72.613V72.6133Z" fill="white"/>
<path d="M46.1327 72.6133C46.133 72.0775 45.9206 71.5635 45.5423 71.1842C45.1639 70.8049 44.6505 70.5913 44.1147 70.5902L37.3787 70.5813C37.109 70.5745 36.8408 70.6219 36.5896 70.7204C36.3385 70.819 36.1097 70.9668 35.9166 71.1552C35.7235 71.3436 35.57 71.5687 35.4652 71.8172C35.3604 72.0658 35.3065 72.3329 35.3065 72.6026C35.3065 72.8724 35.3604 73.1394 35.4652 73.388C35.57 73.6366 35.7235 73.8617 35.9166 74.0501C36.1097 74.2384 36.3385 74.3862 36.5896 74.4848C36.8408 74.5834 37.109 74.6307 37.3787 74.624L44.1147 74.632C44.6497 74.6307 45.1624 74.4175 45.5406 74.0391C45.9188 73.6608 46.1317 73.148 46.1327 72.613V72.6133Z" stroke="#474747" stroke-linecap="round" stroke-linejoin="round"/>
<path d="M47.4843 68.5725C47.4847 68.3071 47.4327 68.0442 47.3315 67.7988C47.2302 67.5534 47.0815 67.3304 46.894 67.1426C46.7065 66.9547 46.4838 66.8056 46.2387 66.7038C45.9935 66.6021 45.7307 66.5496 45.4653 66.5495L38.7283 66.5415C38.461 66.5382 38.1957 66.588 37.9479 66.6879C37.7 66.7878 37.4743 66.9359 37.2841 67.1237C37.0938 67.3114 36.9427 67.535 36.8394 67.7815C36.7361 68.028 36.6828 68.2926 36.6824 68.5599C36.6821 68.8271 36.7348 69.0918 36.8375 69.3386C36.9401 69.5854 37.0907 69.8094 37.2805 69.9975C37.4703 70.1857 37.6956 70.3344 37.9432 70.4349C38.1909 70.5355 38.456 70.5859 38.7233 70.5833L45.4603 70.5913C45.9964 70.5918 46.5107 70.3794 46.8903 70.0008C47.2698 69.6222 47.4835 69.1084 47.4843 68.5723V68.5725Z" fill="white"/>
<path d="M47.4843 68.5725C47.4847 68.3071 47.4327 68.0442 47.3315 67.7988C47.2302 67.5534 47.0815 67.3304 46.894 67.1426C46.7065 66.9547 46.4838 66.8056 46.2387 66.7038C45.9935 66.6021 45.7307 66.5496 45.4653 66.5495L38.7283 66.5415C38.461 66.5382 38.1957 66.588 37.9479 66.6879C37.7 66.7878 37.4743 66.9359 37.2841 67.1237C37.0938 67.3114 36.9427 67.535 36.8394 67.7815C36.7361 68.028 36.6828 68.2926 36.6824 68.5599C36.6821 68.8271 36.7348 69.0918 36.8375 69.3386C36.9401 69.5854 37.0907 69.8094 37.2805 69.9975C37.4703 70.1857 37.6956 70.3344 37.9432 70.4349C38.1909 70.5355 38.456 70.5859 38.7233 70.5833L45.4603 70.5913C45.9964 70.5918 46.5107 70.3794 46.8903 70.0008C47.2698 69.6222 47.4835 69.1084 47.4843 68.5723V68.5725Z" stroke="#474747" stroke-linecap="round" stroke-linejoin="round"/>
<path d="M56.9168 68.5845C56.9174 68.3188 56.8657 68.0555 56.7644 67.8098C56.6632 67.5641 56.5146 67.3407 56.3269 67.1526C56.1393 66.9644 55.9164 66.815 55.671 66.7131C55.4256 66.6112 55.1625 66.5586 54.8968 66.5585L48.1608 66.5495C47.6334 66.5626 47.132 66.7813 46.7636 67.159C46.3952 67.5366 46.189 68.0433 46.189 68.5709C46.189 69.0984 46.3952 69.6051 46.7636 69.9828C47.132 70.3604 47.6334 70.5791 48.1608 70.5922L54.8968 70.6003C55.4316 70.5995 55.9443 70.3869 56.3228 70.0091C56.7014 69.6314 56.9149 69.1191 56.9168 68.5843V68.5845Z" fill="white"/>
<path d="M56.9168 68.5845C56.9174 68.3188 56.8657 68.0555 56.7644 67.8098C56.6632 67.5641 56.5146 67.3407 56.3269 67.1526C56.1393 66.9644 55.9164 66.815 55.671 66.7131C55.4256 66.6112 55.1625 66.5586 54.8968 66.5585L48.1608 66.5495C47.6334 66.5626 47.132 66.7813 46.7636 67.159C46.3952 67.5366 46.189 68.0433 46.189 68.5709C46.189 69.0984 46.3952 69.6051 46.7636 69.9828C47.132 70.3604 47.6334 70.5791 48.1608 70.5922L54.8968 70.6003C55.4316 70.5995 55.9443 70.3869 56.3228 70.0091C56.7014 69.6314 56.9149 69.1191 56.9168 68.5843V68.5845Z" stroke="#474747" stroke-linecap="round" stroke-linejoin="round"/>
<path d="M70.8598 71.579C70.8606 70.9744 70.6212 70.3943 70.1944 69.9661C69.7675 69.5379 69.1881 69.2968 68.5835 69.2957L60.9825 69.2867C60.3778 69.2867 59.7978 69.527 59.3701 69.9546C58.9425 70.3822 58.7023 70.9622 58.7023 71.567C58.7023 72.1718 58.9425 72.7517 59.3701 73.1794C59.7978 73.607 60.3778 73.8472 60.9825 73.8472L68.5825 73.8562C69.1863 73.8557 69.7652 73.6156 70.1922 73.1887C70.6191 72.7617 70.8592 72.1828 70.8598 71.579Z" fill="white"/>
<path d="M70.8598 71.579C70.8606 70.9744 70.6212 70.3943 70.1944 69.9661C69.7675 69.5379 69.1881 69.2968 68.5835 69.2957L60.9825 69.2867C60.3778 69.2867 59.7978 69.527 59.3701 69.9546C58.9425 70.3822 58.7023 70.9622 58.7023 71.567C58.7023 72.1718 58.9425 72.7517 59.3701 73.1794C59.7978 73.607 60.3778 73.8472 60.9825 73.8472L68.5825 73.8562C69.1863 73.8557 69.7652 73.6156 70.1922 73.1887C70.6191 72.7617 70.8592 72.1828 70.8598 71.579Z" stroke="#474747" stroke-linecap="round" stroke-linejoin="round"/>
<path d="M78.4548 76.1485C78.4551 75.8491 78.3966 75.5525 78.2823 75.2757C78.1681 74.9989 78.0005 74.7473 77.789 74.5353C77.5775 74.3232 77.3264 74.1549 77.0499 74.04C76.7734 73.925 76.4769 73.8657 76.1775 73.8653L68.5775 73.8563C68.2781 73.8559 67.9815 73.9145 67.7047 74.0287C67.4279 74.1429 67.1763 74.3106 66.9642 74.522C66.7522 74.7335 66.5839 74.9846 66.469 75.2611C66.354 75.5376 66.2946 75.8341 66.2943 76.1335C66.2939 76.433 66.3524 76.7296 66.4667 77.0064C66.5809 77.2832 66.7485 77.5348 66.96 77.7468C67.1715 77.9588 67.4226 78.1271 67.6991 78.242C67.9756 78.357 68.2721 78.4164 68.5715 78.4168L76.1725 78.4268C76.4719 78.427 76.7685 78.3683 77.0453 78.254C77.322 78.1396 77.5735 77.9719 77.7855 77.7603C77.9974 77.5488 78.1656 77.2975 78.2804 77.021C78.3952 76.7444 78.4545 76.448 78.4548 76.1485Z" fill="white"/>
<path d="M78.4548 76.1485C78.4551 75.8491 78.3966 75.5525 78.2823 75.2757C78.1681 74.9989 78.0005 74.7473 77.789 74.5353C77.5775 74.3232 77.3264 74.1549 77.0499 74.04C76.7734 73.925 76.4769 73.8657 76.1775 73.8653L68.5775 73.8563C68.2781 73.8559 67.9815 73.9145 67.7047 74.0287C67.4279 74.1429 67.1763 74.3106 66.9642 74.522C66.7522 74.7335 66.5839 74.9846 66.469 75.2611C66.354 75.5376 66.2946 75.8341 66.2943 76.1335C66.2939 76.433 66.3524 76.7296 66.4667 77.0064C66.5809 77.2832 66.7485 77.5348 66.96 77.7468C67.1715 77.9588 67.4226 78.1271 67.6991 78.242C67.9756 78.357 68.2721 78.4164 68.5715 78.4168L76.1725 78.4268C76.4719 78.427 76.7685 78.3683 77.0453 78.254C77.322 78.1396 77.5735 77.9719 77.7855 77.7603C77.9974 77.5488 78.1656 77.2975 78.2804 77.021C78.3952 76.7444 78.4545 76.448 78.4548 76.1485Z" stroke="#474747" stroke-linecap="round" stroke-linejoin="round"/>
<path d="M66.2942 76.1345C66.2946 75.835 66.236 75.5385 66.1218 75.2617C66.0076 74.9848 65.8399 74.7333 65.6285 74.5212C65.417 74.3092 65.1659 74.1409 64.8894 74.026C64.6129 73.911 64.3164 73.8516 64.017 73.8512L56.417 73.8402C55.8122 73.8394 55.2319 74.0789 54.8037 74.506C54.3755 74.9331 54.1345 75.5127 54.1337 76.1175C54.1329 76.7223 54.3724 77.3026 54.7995 77.7308C55.2265 78.1589 55.8062 78.3999 56.411 78.4007L64.012 78.4107C64.6163 78.411 65.1961 78.1715 65.6239 77.7447C66.0518 77.3179 66.2929 76.7388 66.2942 76.1345Z" fill="white"/>
<path d="M66.2942 76.1345C66.2946 75.835 66.236 75.5385 66.1218 75.2617C66.0076 74.9848 65.8399 74.7333 65.6285 74.5212C65.417 74.3092 65.1659 74.1409 64.8894 74.026C64.6129 73.911 64.3164 73.8516 64.017 73.8512L56.417 73.8402C55.8122 73.8394 55.2319 74.0789 54.8037 74.506C54.3755 74.9331 54.1345 75.5127 54.1337 76.1175C54.1329 76.7223 54.3724 77.3026 54.7995 77.7308C55.2265 78.1589 55.8062 78.3999 56.411 78.4007L64.012 78.4107C64.6163 78.411 65.1961 78.1715 65.6239 77.7447C66.0518 77.3179 66.2929 76.7388 66.2942 76.1345Z" stroke="#474747" stroke-linecap="round" stroke-linejoin="round"/>
<path d="M63.2488 80.69C63.2493 80.0855 63.0099 79.5055 62.5831 79.0774C62.1563 78.6493 61.577 78.4081 60.9725 78.4068L53.3725 78.3968C52.7759 78.4084 52.2075 78.6535 51.7894 79.0793C51.3713 79.5051 51.1367 80.0778 51.1359 80.6746C51.1351 81.2713 51.3682 81.8447 51.7852 82.2716C52.2022 82.6985 52.7699 82.945 53.3665 82.9583L60.9665 82.9673C61.5711 82.9678 62.1511 82.7282 62.5791 82.3012C63.0071 81.8741 63.248 81.2946 63.2488 80.69Z" fill="white"/>
<path d="M63.2488 80.69C63.2493 80.0855 63.0099 79.5055 62.5831 79.0774C62.1563 78.6493 61.577 78.4081 60.9725 78.4068L53.3725 78.3968C52.7759 78.4084 52.2075 78.6535 51.7894 79.0793C51.3713 79.5051 51.1367 80.0778 51.1359 80.6746C51.1351 81.2713 51.3682 81.8447 51.7852 82.2716C52.2022 82.6985 52.7699 82.945 53.3665 82.9583L60.9665 82.9673C61.5711 82.9678 62.1511 82.7282 62.5791 82.3012C63.0071 81.8741 63.248 81.2946 63.2488 80.69Z" stroke="#474747" stroke-linecap="round" stroke-linejoin="round"/>
<path d="M40.445 82.5185C40.4455 82.219 40.387 81.9224 40.2728 81.6455C40.1586 81.3686 39.991 81.117 39.7795 80.905C39.568 80.6929 39.3168 80.5246 39.0403 80.4097C38.7637 80.2948 38.4672 80.2355 38.1677 80.2353L30.5677 80.2263C29.963 80.2255 29.3827 80.4649 28.9545 80.892C28.5263 81.3191 28.2853 81.8988 28.2845 82.5035C28.2837 83.1083 28.5232 83.6886 28.9502 84.1168C29.3773 84.545 29.957 84.786 30.5617 84.7868L38.1627 84.7958C38.4621 84.7962 38.7587 84.7376 39.0354 84.6233C39.3122 84.5091 39.5637 84.3414 39.7756 84.13C39.9876 83.9185 40.1558 83.6673 40.2706 83.3908C40.3855 83.1143 40.4447 82.8179 40.445 82.5185Z" fill="white"/>
<path d="M40.445 82.5185C40.4455 82.219 40.387 81.9224 40.2728 81.6455C40.1586 81.3686 39.991 81.117 39.7795 80.905C39.568 80.6929 39.3168 80.5246 39.0403 80.4097C38.7637 80.2948 38.4672 80.2355 38.1677 80.2353L30.5677 80.2263C29.963 80.2255 29.3827 80.4649 28.9545 80.892C28.5263 81.3191 28.2853 81.8988 28.2845 82.5035C28.2837 83.1083 28.5232 83.6886 28.9502 84.1168C29.3773 84.545 29.957 84.786 30.5617 84.7868L38.1627 84.7958C38.4621 84.7962 38.7587 84.7376 39.0354 84.6233C39.3122 84.5091 39.5637 84.3414 39.7756 84.13C39.9876 83.9185 40.1558 83.6673 40.2706 83.3908C40.3855 83.1143 40.4447 82.8179 40.445 82.5185Z" stroke="#474747" stroke-linecap="round" stroke-linejoin="round"/>
<path d="M28.2845 82.5075C28.2849 82.208 28.2263 81.9115 28.1121 81.6347C27.9979 81.3578 27.8302 81.1063 27.6188 80.8942C27.4073 80.6822 27.1562 80.5139 26.8797 80.399C26.6032 80.284 26.3067 80.2246 26.0073 80.2242L18.4073 80.2152C18.1078 80.2148 17.8112 80.2734 17.5344 80.3877C17.2576 80.5019 17.006 80.6695 16.794 80.881C16.582 81.0925 16.4137 81.3436 16.2987 81.6201C16.1838 81.8966 16.1244 82.193 16.124 82.4925C16.1236 82.7919 16.1822 83.0885 16.2965 83.3653C16.4107 83.6421 16.5783 83.8937 16.7898 84.1058C17.0012 84.3178 17.2524 84.4861 17.5289 84.601C17.8054 84.716 18.1018 84.7753 18.4013 84.7757L26.0023 84.7847C26.6069 84.7853 27.1869 84.5457 27.6149 84.1186C28.0429 83.6916 28.2837 83.1121 28.2845 82.5075Z" fill="white"/>
<path d="M28.2845 82.5075C28.2849 82.208 28.2263 81.9115 28.1121 81.6347C27.9979 81.3578 27.8302 81.1063 27.6188 80.8942C27.4073 80.6822 27.1562 80.5139 26.8797 80.399C26.6032 80.284 26.3067 80.2246 26.0073 80.2242L18.4073 80.2152C18.1078 80.2148 17.8112 80.2734 17.5344 80.3877C17.2576 80.5019 17.006 80.6695 16.794 80.881C16.582 81.0925 16.4137 81.3436 16.2987 81.6201C16.1838 81.8966 16.1244 82.193 16.124 82.4925C16.1236 82.7919 16.1822 83.0885 16.2965 83.3653C16.4107 83.6421 16.5783 83.8937 16.7898 84.1058C17.0012 84.3178 17.2524 84.4861 17.5289 84.601C17.8054 84.716 18.1018 84.7753 18.4013 84.7757L26.0023 84.7847C26.6069 84.7853 27.1869 84.5457 27.6149 84.1186C28.0429 83.6916 28.2837 83.1121 28.2845 82.5075Z" stroke="#474747" stroke-linecap="round" stroke-linejoin="round"/>
<path d="M37.4095 77.959C37.4103 77.3551 37.1715 76.7756 36.7455 76.3475C36.3195 75.9195 35.7411 75.6779 35.1372 75.6758L27.5362 75.6667C26.9396 75.6792 26.3716 75.925 25.9541 76.3514C25.5366 76.7778 25.3027 77.3507 25.3027 77.9475C25.3027 78.5443 25.5366 79.1172 25.9541 79.5436C26.3716 79.97 26.9396 80.2158 27.5362 80.2282L35.1362 80.2373C35.7395 80.2357 36.3176 79.995 36.7437 79.5679C37.1698 79.1409 37.4092 78.5623 37.4095 77.959Z" fill="white"/>
<path d="M37.4095 77.959C37.4103 77.3551 37.1715 76.7756 36.7455 76.3475C36.3195 75.9195 35.7411 75.6779 35.1372 75.6758L27.5362 75.6667C26.9396 75.6792 26.3716 75.925 25.9541 76.3514C25.5366 76.7777 25.3027 77.3507 25.3027 77.9475C25.3027 78.5443 25.5366 79.1172 25.9541 79.5436C26.3716 79.97 26.9396 80.2158 27.5362 80.2282L35.1362 80.2373C35.7395 80.2357 36.3176 79.995 36.7437 79.5679C37.1698 79.1409 37.4092 78.5623 37.4095 77.959Z" stroke="#474747" stroke-linecap="round" stroke-linejoin="round"/>
<path d="M75.4082 80.705C75.4088 80.4056 75.3503 80.109 75.2362 79.8322C75.122 79.5554 74.9545 79.3038 74.7431 79.0918C74.5317 78.8798 74.2807 78.7115 74.0042 78.5965C73.7278 78.4815 73.4314 78.4221 73.132 78.4217L65.531 78.4117C64.9344 78.4242 64.3664 78.67 63.9489 79.0964C63.5313 79.5227 63.2975 80.0957 63.2975 80.6925C63.2975 81.2892 63.5313 81.8622 63.9489 82.2886C64.3664 82.715 64.9344 82.9608 65.531 82.9732L73.131 82.9822C73.7348 82.9817 74.3137 82.7416 74.7407 82.3147C75.1676 81.8877 75.4077 81.3088 75.4082 80.705Z" fill="white"/>
<path d="M75.4082 80.705C75.4088 80.4056 75.3503 80.109 75.2362 79.8322C75.122 79.5554 74.9545 79.3038 74.7431 79.0918C74.5317 78.8798 74.2807 78.7115 74.0042 78.5965C73.7278 78.4815 73.4314 78.4221 73.132 78.4217L65.531 78.4117C64.9344 78.4242 64.3664 78.67 63.9489 79.0964C63.5313 79.5227 63.2975 80.0957 63.2975 80.6925C63.2975 81.2892 63.5313 81.8622 63.9489 82.2886C64.3664 82.715 64.9344 82.9608 65.531 82.9732L73.131 82.9822C73.7348 82.9817 74.3137 82.7416 74.7407 82.3147C75.1676 81.8877 75.4077 81.3088 75.4082 80.705Z" stroke="#474747" stroke-linecap="round" stroke-linejoin="round"/>
<path d="M87.5697 80.723C87.57 80.1184 87.3304 79.5384 86.9034 79.1103C86.4765 78.6823 85.8971 78.4411 85.2925 78.4398L77.6915 78.4308C77.0949 78.4432 76.5269 78.689 76.1094 79.1154C75.6918 79.5418 75.458 80.1148 75.458 80.7115C75.458 81.3083 75.6918 81.8813 76.1094 82.3076C76.5269 82.734 77.0949 82.9798 77.6915 82.9923L85.2915 83.0013C85.8955 83.0005 86.4745 82.7602 86.9016 82.3331C87.3287 81.906 87.569 81.327 87.5697 80.723Z" fill="white"/>
<path d="M87.5697 80.723C87.57 80.1184 87.3304 79.5384 86.9034 79.1103C86.4765 78.6823 85.8971 78.4411 85.2925 78.4398L77.6915 78.4308C77.0949 78.4432 76.5269 78.689 76.1094 79.1154C75.6918 79.5418 75.458 80.1148 75.458 80.7115C75.458 81.3083 75.6918 81.8813 76.1094 82.3076C76.5269 82.734 77.0949 82.9798 77.6915 82.9923L85.2915 83.0013C85.8955 83.0005 86.4745 82.7602 86.9016 82.3331C87.3287 81.906 87.569 81.327 87.5697 80.723Z" stroke="#474747" stroke-linecap="round" stroke-linejoin="round"/>
<path d="M26.7413 39.3037C26.6002 38.9501 26.3738 38.6368 26.0822 38.392C25.7906 38.1472 25.4429 37.9785 25.0701 37.9008C24.6974 37.8232 24.3112 37.839 23.9461 37.947C23.581 38.055 23.2483 38.2518 22.9778 38.5197C19.6432 41.6281 15.419 43.6143 10.898 44.1995C10.5414 44.2315 10.1971 44.3462 9.89245 44.5345C9.58782 44.7227 9.33124 44.9793 9.14304 45.284C8.95485 45.5886 8.84021 45.9329 8.80823 46.2896C8.77624 46.6463 8.82779 47.0055 8.95877 47.3387L10.7093 51.7955C10.899 52.2811 11.2479 52.6879 11.6989 52.9494C12.1499 53.2109 12.6763 53.3116 13.192 53.235C18.0701 52.3922 22.7046 50.4917 26.77 47.667C27.5047 47.1418 28.0421 46.3856 28.2965 45.5191C28.5509 44.6527 28.5076 43.726 28.1735 42.887L26.7413 39.3037Z" fill="#FDB728" stroke="#474747" stroke-linejoin="round"/>
<path d="M20.5967 46.5087C20.5963 46.8507 20.4945 47.1849 20.3042 47.4689C20.1139 47.753 19.8436 47.9743 19.5275 48.1048C19.2114 48.2352 18.8637 48.269 18.5284 48.2018C18.1931 48.1346 17.8852 47.9695 17.6438 47.7274C17.4023 47.4852 17.2381 47.1769 17.1719 46.8414C17.1057 46.5059 17.1405 46.1583 17.2719 45.8426C17.4032 45.5269 17.6253 45.2572 17.9099 45.0677C18.1946 44.8782 18.529 44.7774 18.871 44.778C19.0979 44.7782 19.3226 44.8232 19.5322 44.9104C19.7418 44.9975 19.9322 45.1251 20.0924 45.2858C20.2527 45.4465 20.3797 45.6373 20.4663 45.8471C20.5528 46.0569 20.5971 46.2818 20.5967 46.5087Z" fill="white"/>
<path d="M72.5635 32.9857C72.3091 33.269 72.1288 33.6108 72.0388 33.9808C71.9488 34.3507 71.9518 34.7372 72.0476 35.1056C72.1435 35.4741 72.3291 35.8131 72.588 36.0922C72.8468 36.3714 73.1708 36.5821 73.531 36.7055C77.7963 38.3152 81.4506 41.2201 83.9808 45.0125C84.1679 45.3178 84.4235 45.5754 84.7274 45.7649C85.0312 45.9544 85.3751 46.0705 85.7316 46.1041C86.0881 46.1377 86.4476 46.0878 86.7815 45.9584C87.1154 45.8291 87.4147 45.6238 87.6555 45.3587L90.8755 41.8097C91.2251 41.4247 91.4339 40.9324 91.4677 40.4134C91.5016 39.8944 91.3586 39.3793 91.062 38.952C88.1434 34.9535 84.3845 31.6427 80.0495 29.2522C79.2528 28.8273 78.3367 28.6813 77.4474 28.8377C76.5581 28.9941 75.7467 29.4438 75.1428 30.115L72.5635 32.9857Z" fill="#FDB728" stroke="#474747" stroke-linejoin="round"/>
<path d="M81.7465 35.2957C82.0532 35.1446 82.3978 35.0877 82.7368 35.1324C83.0757 35.177 83.3939 35.3212 83.6509 35.5466C83.9079 35.7721 84.0923 36.0687 84.1808 36.399C84.2693 36.7292 84.2579 37.0783 84.1479 37.402C84.038 37.7258 83.8346 38.0097 83.5633 38.2178C83.2921 38.426 82.9652 38.549 82.624 38.5714C82.2829 38.5937 81.9427 38.5144 81.6466 38.3435C81.3505 38.1725 81.1118 37.9176 80.9605 37.611C80.86 37.4074 80.8005 37.186 80.7856 36.9594C80.7707 36.7328 80.8006 36.5055 80.8736 36.2904C80.9466 36.0754 81.0612 35.8769 81.211 35.7062C81.3608 35.5355 81.5428 35.396 81.7465 35.2957Z" fill="white"/>
<path d="M47.3735 49.0345C40.9895 36.1417 54.316 31.3507 48.2512 22.7612" stroke="#474747" stroke-linecap="round" stroke-linejoin="round"/>
<path d="M30.3903 12.088C30.1726 12.4004 30.0357 12.762 29.9921 13.1402C29.9484 13.5185 29.9992 13.9017 30.14 14.2555C30.278 14.6109 30.5031 14.9259 30.7948 15.1715C31.0864 15.4172 31.4351 15.5855 31.8088 15.661C37.0408 16.6745 43.679 22.066 48.2515 22.7613C49.1563 17.7738 46.7173 10.2805 37.3418 7.45552C36.4978 7.1621 35.5821 7.14622 34.7284 7.41019C33.8747 7.67416 33.1278 8.20416 32.5968 8.92277L30.3903 12.088Z" fill="#FDB728" stroke="#474747" stroke-linejoin="round"/>
<path d="M39.7865 13.254C40.0724 13.067 40.4073 12.969 40.7489 12.9723C41.0904 12.9756 41.4234 13.0801 41.7056 13.2725C41.9878 13.465 42.2066 13.7368 42.3344 14.0536C42.4622 14.3704 42.4933 14.7179 42.4236 15.0524C42.3539 15.3868 42.1867 15.693 41.943 15.9324C41.6993 16.1718 41.3902 16.3336 41.0546 16.3974C40.719 16.4611 40.372 16.424 40.0575 16.2906C39.7431 16.1572 39.4752 15.9336 39.2877 15.648C39.163 15.4582 39.0769 15.2456 39.0345 15.0224C38.992 14.7993 38.994 14.5699 39.0403 14.3475C39.0867 14.1251 39.1764 13.9141 39.3045 13.7264C39.4325 13.5388 39.5963 13.3782 39.7865 13.254Z" fill="white"/>
<path d="M30.3903 12.088C30.1726 12.4004 30.0357 12.762 29.9921 13.1402C29.9484 13.5185 29.9992 13.9017 30.14 14.2555C30.278 14.6109 30.5031 14.9259 30.7948 15.1715C31.0864 15.4172 31.4351 15.5855 31.8088 15.661C37.0408 16.6745 43.679 22.066 48.2515 22.7613C49.1563 17.7738 46.7173 10.2805 37.3418 7.45552C36.4978 7.1621 35.5821 7.14622 34.7284 7.41019C33.8747 7.67416 33.1278 8.20416 32.5968 8.92277L30.3903 12.088Z" stroke="#474747" stroke-linecap="round" stroke-linejoin="round"/>
<path d="M68.4478 16.5778C68.6293 16.9125 68.7252 17.287 68.7268 17.6679C68.7283 18.0487 68.6356 18.424 68.4568 18.7603C68.2807 19.0987 68.0223 19.3873 67.7054 19.5997C67.3885 19.812 67.0232 19.9412 66.6433 19.9753C61.3305 20.4043 54.1415 25.0285 49.5173 25.214C49.1673 20.1578 52.419 12.9788 62.0518 11.208C62.9231 11.0098 63.835 11.0955 64.6542 11.4524C65.4735 11.8094 66.1571 12.4189 66.6053 13.192L68.4478 16.5778Z" fill="#FDB728" stroke="#474747" stroke-linejoin="round"/>
<path d="M58.9775 16.6965C58.7142 16.4784 58.3922 16.3432 58.0522 16.3081C57.7121 16.273 57.3693 16.3395 57.067 16.4991C56.7647 16.6588 56.5166 16.9046 56.3539 17.2053C56.1913 17.506 56.1214 17.8481 56.1532 18.1885C56.1851 18.5289 56.3171 18.8522 56.5326 19.1176C56.7481 19.383 57.0375 19.5785 57.3641 19.6794C57.6907 19.7803 58.04 19.7821 58.3676 19.6846C58.6953 19.5871 58.9867 19.3946 59.205 19.1315C59.35 18.9567 59.4591 18.7551 59.5262 18.5381C59.5932 18.3211 59.6169 18.093 59.5958 17.8669C59.5746 17.6408 59.5092 17.421 59.4031 17.2202C59.297 17.0194 59.1524 16.8414 58.9775 16.6965Z" fill="white"/>
<path d="M68.4478 16.5778C68.6293 16.9125 68.7252 17.287 68.7268 17.6679C68.7283 18.0487 68.6356 18.424 68.4568 18.7603C68.2807 19.0987 68.0223 19.3873 67.7054 19.5997C67.3885 19.812 67.0232 19.9412 66.6433 19.9753C61.3305 20.4043 54.1415 25.0285 49.5173 25.214C49.1673 20.1578 52.419 12.9788 62.0518 11.208C62.9231 11.0098 63.835 11.0955 64.6542 11.4524C65.4735 11.8094 66.1571 12.4189 66.6053 13.192L68.4478 16.5778Z" stroke="#474747" stroke-linecap="round" stroke-linejoin="round"/>
<path d="M61.6578 39.5042C61.7236 39.7943 61.7164 40.0963 61.6366 40.3829C61.5569 40.6695 61.4072 40.9318 61.201 41.1462C60.9964 41.3625 60.7408 41.5239 60.4575 41.6156C60.1743 41.7073 59.8725 41.7264 59.58 41.671C55.4963 40.862 49.1063 42.8072 45.596 41.9612C46.409 38.087 50.384 33.3827 57.996 34.106C58.6927 34.1427 59.3595 34.4011 59.8991 34.8434C60.4386 35.2857 60.8228 35.8888 60.9955 36.5647L61.6578 39.5042Z" fill="#FDB728" stroke="#474747" stroke-linejoin="round"/>
<path d="M54.5188 37.5792C54.3677 37.3592 54.1547 37.1889 53.9068 37.09C53.6589 36.991 53.3873 36.9677 53.1262 37.0231C52.8651 37.0785 52.6263 37.2101 52.4399 37.4013C52.2536 37.5924 52.1282 37.8345 52.0795 38.0969C52.0308 38.3594 52.061 38.6304 52.1663 38.8756C52.2716 39.1209 52.4473 39.3294 52.6711 39.4748C52.8949 39.6203 53.1568 39.696 53.4237 39.6926C53.6906 39.6892 53.9505 39.6066 54.1705 39.4555C54.4655 39.2529 54.6679 38.9413 54.7332 38.5895C54.7985 38.2376 54.7213 37.8742 54.5188 37.5792Z" fill="white"/>
<path d="M61.6578 39.5042C61.7236 39.7943 61.7164 40.0963 61.6366 40.3829C61.5569 40.6695 61.4072 40.9318 61.201 41.1462C60.9964 41.3625 60.7408 41.5239 60.4575 41.6156C60.1743 41.7073 59.8725 41.7264 59.58 41.671C55.4963 40.862 49.1063 42.8072 45.596 41.9612C46.409 38.087 50.384 33.3827 57.996 34.106C58.6927 34.1427 59.3595 34.4011 59.8991 34.8434C60.4386 35.2857 60.8228 35.8888 60.9955 36.5647L61.6578 39.5042Z" stroke="#474747" stroke-linecap="round" stroke-linejoin="round"/>
<path d="M32.2665 28.9648C32.1357 29.2319 32.0733 29.5274 32.085 29.8246C32.0966 30.1218 32.1819 30.4114 32.3332 30.6675C32.4827 30.925 32.6945 31.1409 32.9491 31.2953C33.2037 31.4497 33.493 31.5377 33.7905 31.5513C37.951 31.7028 43.7175 35.0625 47.3335 35.0425C47.4332 31.0855 44.6482 25.5973 37.0722 24.5468C36.3846 24.4233 35.6755 24.5229 35.0485 24.831C34.4214 25.1391 33.9093 25.6397 33.587 26.2595L32.2665 28.9648Z" fill="#FDB728" stroke="#474747" stroke-linejoin="round"/>
<path d="M39.658 28.7313C39.856 28.552 40.1027 28.4354 40.367 28.3963C40.6312 28.3572 40.9011 28.3974 41.1425 28.5117C41.3839 28.626 41.586 28.8094 41.7233 29.0386C41.8605 29.2678 41.9266 29.5325 41.9134 29.7993C41.9001 30.0661 41.808 30.3229 41.6488 30.5374C41.4895 30.7519 41.2703 30.9143 41.0187 31.0041C40.7671 31.0939 40.4946 31.1072 40.2355 31.0421C39.9764 30.977 39.7425 30.8366 39.5632 30.6385C39.4441 30.5071 39.3521 30.3535 39.2924 30.1865C39.2327 30.0195 39.2065 29.8424 39.2153 29.6652C39.2241 29.4881 39.2677 29.3145 39.3437 29.1542C39.4196 28.9939 39.5264 28.8502 39.658 28.7313Z" fill="white"/>
<path d="M32.2665 28.9648C32.1357 29.2319 32.0733 29.5274 32.085 29.8246C32.0966 30.1218 32.1819 30.4114 32.3332 30.6675C32.4827 30.925 32.6945 31.1409 32.9491 31.2953C33.2037 31.4497 33.493 31.5377 33.7905 31.5513C37.951 31.7028 43.7175 35.0625 47.3335 35.0425C47.4332 31.0855 44.6482 25.5973 37.0722 24.5468C36.3846 24.4233 35.6755 24.5229 35.0485 24.831C34.4214 25.1391 33.9093 25.6397 33.587 26.2595L32.2665 28.9648Z" stroke="#474747" stroke-linecap="round" stroke-linejoin="round"/>
</svg>
