<svg width="100" height="100" viewBox="0 0 100 100" fill="none" xmlns="http://www.w3.org/2000/svg">
<g id="acheivement-2 1">
<path id="Vector" d="M18.8212 84.8775C18.8212 85.1277 19.6544 85.3755 21.2733 85.6066C22.8922 85.8378 25.265 86.0478 28.2563 86.2247C31.2475 86.4016 34.7987 86.542 38.707 86.6377C42.6153 86.7335 46.8042 86.7828 51.0345 86.7828C55.2648 86.7828 59.4537 86.7335 63.362 86.6377C67.2702 86.542 70.8214 86.4016 73.8127 86.2247C76.804 86.0478 79.1768 85.8378 80.7956 85.6066C82.4145 85.3755 83.2477 85.1277 83.2477 84.8775C83.2477 84.3722 79.8538 83.8876 73.8127 83.5303C67.7715 83.173 59.578 82.9723 51.0345 82.9723C42.491 82.9723 34.2974 83.173 28.2563 83.5303C22.2151 83.8876 18.8212 84.3722 18.8212 84.8775Z" fill="#FDB728"/>
<path id="Vector_2" d="M57.9043 42.039C57.9043 41.057 57.5142 40.1152 56.8198 39.4208C56.1254 38.7264 55.1836 38.3362 54.2015 38.3362H45.561C44.579 38.3362 43.6372 38.7264 42.9428 39.4208C42.2484 40.1152 41.8583 41.057 41.8583 42.039H57.9043Z" fill="#FDB728" stroke="#474747" stroke-linecap="round" stroke-linejoin="round"/>
<path id="Vector_3" d="M36.3032 9.03075C40.007 9.03075 40.6235 25.9932 40.6235 25.9932C40.6235 28.4486 41.5988 30.8033 43.335 32.5395C45.0712 34.2756 47.4259 35.251 49.8812 35.251C52.3365 35.251 54.6913 34.2756 56.4274 32.5395C58.1636 30.8033 59.139 28.4486 59.139 25.9932C59.139 25.9932 59.7565 9.03575 63.4592 9.03575L36.3032 9.03075Z" fill="white"/>
<path id="Vector_4" d="M36.3032 9.03075C40.007 9.03075 40.6235 25.9932 40.6235 25.9932C40.6235 28.4486 41.5988 30.8033 43.335 32.5395C45.0712 34.2756 47.4259 35.251 49.8812 35.251C52.3365 35.251 54.6913 34.2756 56.4274 32.5395C58.1636 30.8033 59.139 28.4486 59.139 25.9932C59.139 25.9932 59.7565 9.03575 63.4592 9.03575L36.3032 9.03075Z" stroke="#474747" stroke-linecap="round" stroke-linejoin="round"/>
<path id="Vector_5" d="M60.1505 53.148H39.612C39.4327 53.148 39.2556 53.1089 39.093 53.0335C38.9304 52.9581 38.7861 52.8482 38.6703 52.7113C38.5545 52.5745 38.4698 52.4141 38.4223 52.2413C38.3748 52.0684 38.3654 51.8873 38.395 51.7105L39.8345 43.0703C39.8829 42.7821 40.0317 42.5204 40.2547 42.3316C40.4777 42.1427 40.7603 42.039 41.0525 42.0388H58.7083C59.0004 42.039 59.2831 42.1427 59.5061 42.3316C59.729 42.5204 59.8779 42.7821 59.9263 43.0703L61.3718 51.7105C61.4012 51.8876 61.3917 52.069 61.3438 52.2421C61.296 52.4151 61.211 52.5757 61.0947 52.7125C60.9785 52.8494 60.8338 52.9592 60.6708 53.0344C60.5078 53.1096 60.3301 53.1484 60.1505 53.148Z" fill="white" stroke="#474747" stroke-linecap="round" stroke-linejoin="round"/>
<path id="Vector_6" d="M43.0922 45.7428H56.6702V49.4455H43.0922V45.7428Z" fill="#FDB728" stroke="#474747" stroke-linecap="round" stroke-linejoin="round"/>
<path id="Vector_7" d="M52.9675 38.3363C53.4585 38.3363 53.9294 38.1412 54.2766 37.794C54.6238 37.4468 54.8189 36.9759 54.8189 36.4849C54.8189 35.9939 54.6238 35.523 54.2766 35.1758C53.9294 34.8286 53.4585 34.6335 52.9675 34.6335H46.796C46.305 34.6335 45.8341 34.8286 45.4869 35.1758C45.1397 35.523 44.9446 35.9939 44.9446 36.4849C44.9446 36.9759 45.1397 37.4468 45.4869 37.794C45.8341 38.1412 46.305 38.3363 46.796 38.3363H52.9675Z" fill="white" stroke="#474747" stroke-linecap="round" stroke-linejoin="round"/>
<path id="Vector_8" d="M36.3033 30.3133C35.3216 30.3122 34.3804 29.9217 33.6862 29.2276C32.992 28.5334 32.6016 27.5922 32.6005 26.6105C32.5952 26.4451 32.6233 26.2803 32.6829 26.126C32.7426 25.9716 32.8327 25.8308 32.9478 25.7119C33.063 25.5931 33.2008 25.4986 33.3532 25.434C33.5056 25.3695 33.6694 25.3362 33.8349 25.3362C34.0004 25.3362 34.1642 25.3695 34.3166 25.434C34.4689 25.4986 34.6068 25.5931 34.7219 25.7119C34.8371 25.8308 34.9272 25.9716 34.9868 26.126C35.0465 26.2803 35.0745 26.4451 35.0693 26.6105C35.0698 26.9376 35.2 27.2512 35.4313 27.4825C35.6626 27.7138 35.9761 27.844 36.3033 27.8445C36.7942 27.844 37.2648 27.6488 37.6121 27.3018C37.9593 26.9547 38.1547 26.4842 38.1555 25.9933C38.1555 24.2775 36.731 23.6073 33.4853 22.487C29.986 21.28 25.195 19.6263 25.195 13.6503C25.195 12.1772 25.7802 10.7645 26.8218 9.7229C27.8634 8.6813 29.2761 8.09613 30.7491 8.09613C32.2222 8.09613 33.6349 8.6813 34.6765 9.7229C35.7181 10.7645 36.3033 12.1772 36.3033 13.6503C36.3022 14.632 35.9117 15.5732 35.2176 16.2673C34.5234 16.9615 33.5822 17.3519 32.6005 17.353C32.2799 17.3428 31.9759 17.2083 31.7527 16.9779C31.5296 16.7475 31.4048 16.4394 31.4048 16.1186C31.4048 15.7979 31.5296 15.4897 31.7527 15.2594C31.9759 15.029 32.2799 14.8945 32.6005 14.8843C32.763 14.8848 32.924 14.8533 33.0743 14.7915C33.2246 14.7298 33.3612 14.639 33.4764 14.5244C33.5915 14.4097 33.683 14.2736 33.7455 14.1236C33.808 13.9736 33.8402 13.8127 33.8405 13.6503C33.8405 12.8317 33.5153 12.0467 32.9366 11.4679C32.3578 10.8892 31.5728 10.564 30.7543 10.564C29.9357 10.564 29.1507 10.8892 28.5719 11.4679C27.9932 12.0467 27.668 12.8317 27.668 13.6503C27.668 17.8668 30.888 18.978 34.2955 20.153C37.265 21.1775 40.6288 22.3395 40.6288 25.9933C40.6274 27.1395 40.1712 28.2384 39.3602 29.0484C38.5492 29.8585 37.4498 30.3135 36.3035 30.3135L36.3033 30.3133Z" fill="#FDB728" stroke="#474747" stroke-linecap="round" stroke-linejoin="round"/>
<path id="Vector_9" d="M63.4592 30.3132C64.4409 30.3122 65.3821 29.9217 66.0763 29.2276C66.7705 28.5334 67.1609 27.5922 67.162 26.6105C67.1673 26.4451 67.1392 26.2803 67.0796 26.126C67.0199 25.9716 66.9298 25.8308 66.8147 25.7119C66.6995 25.5931 66.5617 25.4986 66.4093 25.434C66.2569 25.3695 66.0931 25.3362 65.9276 25.3362C65.7621 25.3362 65.5983 25.3695 65.4459 25.434C65.2936 25.4986 65.1557 25.5931 65.0406 25.7119C64.9254 25.8308 64.8353 25.9716 64.7757 26.126C64.716 26.2803 64.688 26.4451 64.6932 26.6105C64.693 26.9377 64.5629 27.2514 64.3315 27.4828C64.1002 27.7141 63.7864 27.8442 63.4592 27.8445C62.9684 27.844 62.4978 27.6488 62.1508 27.3017C61.8037 26.9546 61.6085 26.4841 61.608 25.9932C61.608 24.2775 63.0315 23.6072 66.2772 22.487C69.7765 21.28 74.5685 19.6262 74.5685 13.6502C74.577 12.9154 74.4397 12.1861 74.1643 11.5047C73.889 10.8233 73.4812 10.2033 72.9646 9.68061C72.4479 9.15793 71.8327 8.74296 71.1546 8.45975C70.4764 8.17653 69.7488 8.0307 69.0139 8.0307C68.2789 8.0307 67.5513 8.17653 66.8732 8.45975C66.195 8.74296 65.5798 9.15793 65.0631 9.68061C64.5465 10.2033 64.1387 10.8233 63.8634 11.5047C63.5881 12.1861 63.4507 12.9154 63.4592 13.6502C63.4603 14.632 63.8507 15.5731 64.5449 16.2673C65.2391 16.9615 66.1803 17.3519 67.162 17.353C67.3274 17.3583 67.4922 17.3302 67.6465 17.2706C67.8009 17.2109 67.9417 17.1208 68.0605 17.0057C68.1794 16.8905 68.2739 16.7527 68.3385 16.6003C68.403 16.4479 68.4363 16.2841 68.4363 16.1186C68.4363 15.9531 68.403 15.7893 68.3385 15.6369C68.2739 15.4846 68.1794 15.3467 68.0605 15.2316C67.9417 15.1164 67.8009 15.0263 67.6465 14.9667C67.4922 14.907 67.3274 14.879 67.162 14.8842C66.8348 14.884 66.5211 14.7539 66.2897 14.5225C66.0583 14.2912 65.9283 13.9774 65.928 13.6502C65.9206 13.2403 65.995 12.8331 66.1467 12.4522C66.2985 12.0714 66.5246 11.7246 66.8119 11.4321C67.0991 11.1396 67.4418 10.9073 67.8199 10.7487C68.1979 10.5901 68.6038 10.5084 69.0137 10.5084C69.4237 10.5084 69.8296 10.5901 70.2076 10.7487C70.5857 10.9073 70.9283 11.1396 71.2156 11.4321C71.5029 11.7246 71.729 12.0714 71.8807 12.4522C72.0325 12.8331 72.1069 13.2403 72.0995 13.6502C72.0995 17.8667 68.8795 18.978 65.472 20.153C62.5035 21.1775 59.1387 22.3395 59.1387 25.9932C59.1401 27.1386 59.5956 28.2367 60.4056 29.0467C61.2155 29.8566 62.3136 30.3122 63.459 30.3135L63.4592 30.3132Z" fill="#FDB728" stroke="#474747" stroke-linecap="round" stroke-linejoin="round"/>
<path id="Vector_10" d="M48.5855 74.3927H22.7442C22.046 74.4024 21.3529 74.2731 20.705 74.0126C20.0572 73.7521 19.4675 73.3654 18.9704 72.8751C18.4733 72.3847 18.0785 71.8005 17.8091 71.1563C17.5396 70.5121 17.4009 69.8208 17.4009 69.1225C17.4009 68.4242 17.5396 67.7329 17.8091 67.0887C18.0785 66.4445 18.4733 65.8603 18.9704 65.3699C19.4675 64.8796 20.0572 64.4929 20.705 64.2324C21.3529 63.9718 22.046 63.8426 22.7442 63.8522H48.5855V74.3927Z" fill="white"/>
<path id="Vector_11" d="M48.5855 74.3927H22.7442C22.046 74.4024 21.3529 74.2731 20.705 74.0126C20.0572 73.7521 19.4675 73.3654 18.9704 72.8751C18.4733 72.3847 18.0785 71.8005 17.8091 71.1563C17.5396 70.5121 17.4009 69.8208 17.4009 69.1225C17.4009 68.4242 17.5396 67.7329 17.8091 67.0887C18.0785 66.4445 18.4733 65.8603 18.9704 65.3699C19.4675 64.8796 20.0572 64.4929 20.705 64.2324C21.3529 63.9718 22.046 63.8426 22.7442 63.8522H48.5855V74.3927Z" stroke="#474747" stroke-linecap="round" stroke-linejoin="round"/>
<path id="Vector_12" d="M30.1758 74.3938H26.7115C25.3134 74.3938 23.9725 73.8383 22.9838 72.8497C21.9952 71.861 21.4398 70.5202 21.4398 69.122C21.4398 67.7238 21.9952 66.383 22.9838 65.3943C23.9725 64.4057 25.3134 63.8503 26.7115 63.8503H30.1758C28.7776 63.8503 27.4367 64.4057 26.4481 65.3943C25.4594 66.383 24.904 67.7238 24.904 69.122C24.904 70.5202 25.4594 71.861 26.4481 72.8497C27.4367 73.8383 28.7776 74.3938 30.1758 74.3938Z" fill="#FDB728" stroke="#474747" stroke-linecap="round" stroke-linejoin="round"/>
<path id="Vector_13" d="M42.3093 66.0198C41.9196 66.0117 41.5323 66.0815 41.17 66.225C40.8077 66.3686 40.4777 66.583 40.1993 66.8557C39.9209 67.1284 39.6998 67.4539 39.5488 67.8131C39.3978 68.1724 39.32 68.5582 39.32 68.9479C39.32 69.3376 39.3978 69.7234 39.5488 70.0826C39.6998 70.4419 39.9209 70.7674 40.1993 71.0401C40.4777 71.3128 40.8077 71.5272 41.17 71.6707C41.5323 71.8143 41.9196 71.8841 42.3093 71.876H68.1545C68.4651 71.876 68.763 71.9994 68.9826 72.219C69.2023 72.4387 69.3256 72.7365 69.3256 73.0471C69.3256 73.3577 69.2023 73.6556 68.9826 73.8752C68.763 74.0949 68.4651 74.2183 68.1545 74.2183H42.3093C40.9114 74.2183 39.5707 73.6629 38.5823 72.6745C37.5938 71.686 37.0385 70.3454 37.0385 68.9475C37.0385 67.5496 37.5938 66.209 38.5823 65.2205C39.5707 64.2321 40.9114 63.6768 42.3093 63.6768H68.1545C68.4601 63.6845 68.7506 63.8113 68.964 64.0302C69.1774 64.2491 69.2969 64.5427 69.2969 64.8484C69.2969 65.1541 69.1774 65.4477 68.964 65.6666C68.7506 65.8854 68.4601 66.0123 68.1545 66.02L42.3093 66.0198Z" fill="white"/>
<path id="Vector_14" d="M42.3093 66.0198C41.9196 66.0117 41.5323 66.0815 41.17 66.225C40.8077 66.3686 40.4777 66.583 40.1993 66.8557C39.9209 67.1284 39.6998 67.4539 39.5488 67.8131C39.3978 68.1724 39.32 68.5582 39.32 68.9479C39.32 69.3376 39.3978 69.7234 39.5488 70.0826C39.6998 70.4419 39.9209 70.7674 40.1993 71.0401C40.4777 71.3128 40.8077 71.5272 41.17 71.6707C41.5323 71.8143 41.9196 71.8841 42.3093 71.876H68.1545C68.4651 71.876 68.763 71.9994 68.9826 72.219C69.2023 72.4387 69.3256 72.7365 69.3256 73.0471C69.3256 73.3577 69.2023 73.6556 68.9826 73.8752C68.763 74.0949 68.4651 74.2183 68.1545 74.2183H42.3093C40.9114 74.2183 39.5707 73.6629 38.5823 72.6745C37.5938 71.686 37.0385 70.3454 37.0385 68.9475C37.0385 67.5496 37.5938 66.209 38.5823 65.2205C39.5707 64.2321 40.9114 63.6768 42.3093 63.6768H68.1545C68.4601 63.6845 68.7506 63.8113 68.964 64.0302C69.1774 64.2491 69.2969 64.5427 69.2969 64.8484C69.2969 65.1541 69.1774 65.4477 68.964 65.6666C68.7506 65.8854 68.4601 66.0123 68.1545 66.02L42.3093 66.0198Z" stroke="#474747" stroke-linecap="round" stroke-linejoin="round"/>
<path id="Vector_15" d="M68.1545 71.8763V66.0198H42.3093C41.9196 66.0117 41.5323 66.0815 41.17 66.225C40.8077 66.3686 40.4777 66.583 40.1993 66.8557C39.9209 67.1284 39.6998 67.4539 39.5488 67.8131C39.3978 68.1724 39.32 68.5582 39.32 68.9479C39.32 69.3376 39.3978 69.7234 39.5488 70.0826C39.6998 70.4419 39.9209 70.7674 40.1993 71.0401C40.4777 71.3128 40.8077 71.5272 41.17 71.6707C41.5323 71.8143 41.9196 71.8841 42.3093 71.876L68.1545 71.8763Z" fill="#FDB728" stroke="#474747" stroke-linecap="round" stroke-linejoin="round"/>
<path id="Vector_16" d="M56.6693 84.7858H30.828C29.4301 84.7858 28.0895 84.2304 27.101 83.242C26.1126 82.2535 25.5573 80.9129 25.5573 79.515C25.5573 78.1171 26.1126 76.7765 27.101 75.788C28.0895 74.7996 29.4301 74.2442 30.828 74.2442H56.6693V84.7858Z" fill="#FDB728"/>
<path id="Vector_17" d="M56.6693 84.7858H30.828C29.4301 84.7858 28.0895 84.2304 27.101 83.242C26.1126 82.2535 25.5573 80.9129 25.5573 79.515C25.5573 78.1171 26.1126 76.7765 27.101 75.788C28.0895 74.7996 29.4301 74.2442 30.828 74.2442H56.6693V84.7858Z" stroke="#474747" stroke-linecap="round" stroke-linejoin="round"/>
<path id="Vector_18" d="M38.2595 84.7858H34.7953C33.4098 84.7667 32.0876 84.2029 31.1146 83.2164C30.1416 82.23 29.5961 80.9001 29.5961 79.5145C29.5961 78.1289 30.1416 76.7991 31.1146 75.8126C32.0876 74.8261 33.4098 74.2623 34.7953 74.2433H38.2595C36.8741 74.2623 35.5518 74.8261 34.5789 75.8126C33.6059 76.7991 33.0604 78.1289 33.0604 79.5145C33.0604 80.9001 33.6059 82.23 34.5789 83.2164C35.5518 84.2029 36.8741 84.7667 38.2595 84.7858Z" fill="white" stroke="#474747" stroke-linecap="round" stroke-linejoin="round"/>
<path id="Vector_19" d="M49.238 76.5605C48.8484 76.5525 48.461 76.6222 48.0987 76.7658C47.7364 76.9093 47.4064 77.1237 47.128 77.3964C46.8496 77.6691 46.6285 77.9946 46.4775 78.3539C46.3265 78.7132 46.2487 79.0989 46.2487 79.4886C46.2487 79.8783 46.3265 80.2641 46.4775 80.6234C46.6285 80.9826 46.8496 81.3082 47.128 81.5809C47.4064 81.8536 47.7364 82.068 48.0987 82.2115C48.461 82.355 48.8484 82.4248 49.238 82.4168H75.0792C75.3848 82.4245 75.6753 82.5513 75.8887 82.7702C76.1021 82.9891 76.2216 83.2827 76.2216 83.5884C76.2216 83.8941 76.1021 84.1877 75.8887 84.4066C75.6753 84.6254 75.3848 84.7523 75.0792 84.76H49.238C47.8401 84.76 46.4994 84.2047 45.511 83.2162C44.5225 82.2278 43.9672 80.8871 43.9672 79.4893C43.9672 78.0914 44.5225 76.7507 45.511 75.7623C46.4994 74.7738 47.8401 74.2185 49.238 74.2185H75.0792C75.3898 74.2185 75.6877 74.3419 75.9073 74.5615C76.127 74.7812 76.2503 75.079 76.2503 75.3896C76.2503 75.7002 76.127 75.9981 75.9073 76.2177C75.6877 76.4374 75.3898 76.5608 75.0792 76.5608L49.238 76.5605Z" fill="#FDB728"/>
<path id="Vector_20" d="M49.238 76.5605C48.8484 76.5525 48.461 76.6222 48.0987 76.7658C47.7364 76.9093 47.4064 77.1237 47.128 77.3964C46.8496 77.6691 46.6285 77.9946 46.4775 78.3539C46.3265 78.7132 46.2487 79.0989 46.2487 79.4886C46.2487 79.8783 46.3265 80.2641 46.4775 80.6234C46.6285 80.9826 46.8496 81.3082 47.128 81.5809C47.4064 81.8536 47.7364 82.068 48.0987 82.2115C48.461 82.355 48.8484 82.4248 49.238 82.4168H75.0792C75.3848 82.4245 75.6753 82.5513 75.8887 82.7702C76.1021 82.9891 76.2216 83.2827 76.2216 83.5884C76.2216 83.8941 76.1021 84.1877 75.8887 84.4066C75.6753 84.6254 75.3848 84.7523 75.0792 84.76H49.238C47.8401 84.76 46.4994 84.2047 45.511 83.2162C44.5225 82.2278 43.9672 80.8871 43.9672 79.4893C43.9672 78.0914 44.5225 76.7507 45.511 75.7623C46.4994 74.7738 47.8401 74.2185 49.238 74.2185H75.0792C75.3898 74.2185 75.6877 74.3419 75.9073 74.5615C76.127 74.7812 76.2503 75.079 76.2503 75.3896C76.2503 75.7002 76.127 75.9981 75.9073 76.2177C75.6877 76.4374 75.3898 76.5608 75.0792 76.5608L49.238 76.5605Z" stroke="#474747" stroke-linecap="round" stroke-linejoin="round"/>
<path id="Vector_21" d="M75.0793 82.4187V76.5605H49.238C48.8484 76.5525 48.4611 76.6222 48.0988 76.7658C47.7365 76.9093 47.4065 77.1237 47.1281 77.3964C46.8497 77.6691 46.6285 77.9946 46.4775 78.3539C46.3265 78.7131 46.2488 79.0989 46.2488 79.4886C46.2488 79.8783 46.3265 80.2641 46.4775 80.6234C46.6285 80.9826 46.8497 81.3081 47.1281 81.5808C47.4065 81.8535 47.7365 82.0679 48.0988 82.2115C48.4611 82.355 48.8484 82.4248 49.238 82.4167L75.0793 82.4187Z" fill="white" stroke="#474747" stroke-linecap="round" stroke-linejoin="round"/>
<path id="Vector_22" d="M51.984 63.6767H26.1427C25.4445 63.6864 24.7514 63.5571 24.1035 63.2966C23.4557 63.0361 22.866 62.6494 22.3689 62.1591C21.8718 61.6687 21.477 61.0845 21.2076 60.4403C20.9381 59.7961 20.7994 59.1048 20.7994 58.4065C20.7994 57.7082 20.9381 57.0169 21.2076 56.3727C21.477 55.7285 21.8718 55.1443 22.3689 54.6539C22.866 54.1636 23.4557 53.7769 24.1035 53.5164C24.7514 53.2558 25.4445 53.1266 26.1427 53.1362H51.984V63.6767Z" fill="#FDB728"/>
<path id="Vector_23" d="M51.984 63.6767H26.1427C25.4445 63.6864 24.7514 63.5571 24.1035 63.2966C23.4557 63.0361 22.866 62.6494 22.3689 62.1591C21.8718 61.6687 21.477 61.0845 21.2076 60.4403C20.9381 59.7961 20.7994 59.1048 20.7994 58.4065C20.7994 57.7082 20.9381 57.0169 21.2076 56.3727C21.477 55.7285 21.8718 55.1443 22.3689 54.6539C22.866 54.1636 23.4557 53.7769 24.1035 53.5164C24.7514 53.2558 25.4445 53.1266 26.1427 53.1362H51.984V63.6767Z" stroke="#474747" stroke-linecap="round" stroke-linejoin="round"/>
<path id="Vector_24" d="M44.8747 55.4782C44.4851 55.4702 44.0978 55.54 43.7355 55.6835C43.3732 55.827 43.0432 56.0414 42.7648 56.3141C42.4864 56.5868 42.2652 56.9124 42.1142 57.2716C41.9632 57.6309 41.8855 58.0167 41.8855 58.4064C41.8855 58.7961 41.9632 59.1818 42.1142 59.5411C42.2652 59.9004 42.4864 60.2259 42.7648 60.4986C43.0432 60.7713 43.3732 60.9857 43.7355 61.1292C44.0978 61.2728 44.4851 61.3425 44.8747 61.3345H70.716C71.0266 61.3345 71.3245 61.4579 71.5441 61.6775C71.7637 61.8971 71.8871 62.195 71.8871 62.5056C71.8871 62.8162 71.7637 63.1141 71.5441 63.3337C71.3245 63.5534 71.0266 63.6767 70.716 63.6767H44.8747C44.1765 63.6864 43.4834 63.5571 42.8355 63.2966C42.1877 63.0361 41.598 62.6494 41.1009 62.1591C40.6038 61.6687 40.209 61.0845 39.9396 60.4403C39.6701 59.7961 39.5314 59.1048 39.5314 58.4065C39.5314 57.7082 39.6701 57.0169 39.9396 56.3727C40.209 55.7285 40.6038 55.1443 41.1009 54.6539C41.598 54.1636 42.1877 53.7769 42.8355 53.5164C43.4834 53.2558 44.1765 53.1266 44.8747 53.1362H70.716C71.0266 53.1362 71.3245 53.2596 71.5441 53.4793C71.7637 53.6989 71.8871 53.9968 71.8871 54.3074C71.8871 54.618 71.7637 54.9159 71.5441 55.1355C71.3245 55.3551 71.0266 55.4785 70.716 55.4785L44.8747 55.4782Z" fill="#FDB728"/>
<path id="Vector_25" d="M44.8747 55.4782C44.4851 55.4702 44.0978 55.54 43.7355 55.6835C43.3732 55.827 43.0432 56.0414 42.7648 56.3141C42.4864 56.5868 42.2652 56.9124 42.1142 57.2716C41.9632 57.6309 41.8855 58.0167 41.8855 58.4064C41.8855 58.7961 41.9632 59.1818 42.1142 59.5411C42.2652 59.9004 42.4864 60.2259 42.7648 60.4986C43.0432 60.7713 43.3732 60.9857 43.7355 61.1292C44.0978 61.2728 44.4851 61.3425 44.8747 61.3345H70.716C71.0266 61.3345 71.3245 61.4579 71.5441 61.6775C71.7637 61.8971 71.8871 62.195 71.8871 62.5056C71.8871 62.8162 71.7637 63.1141 71.5441 63.3337C71.3245 63.5534 71.0266 63.6767 70.716 63.6767H44.8747C44.1765 63.6864 43.4834 63.5571 42.8355 63.2966C42.1877 63.0361 41.598 62.6494 41.1009 62.1591C40.6038 61.6687 40.209 61.0845 39.9396 60.4403C39.6701 59.7961 39.5314 59.1048 39.5314 58.4065C39.5314 57.7082 39.6701 57.0169 39.9396 56.3727C40.209 55.7285 40.6038 55.1443 41.1009 54.6539C41.598 54.1636 42.1877 53.7769 42.8355 53.5164C43.4834 53.2558 44.1765 53.1266 44.8747 53.1362H70.716C71.0266 53.1362 71.3245 53.2596 71.5441 53.4793C71.7637 53.6989 71.8871 53.9968 71.8871 54.3074C71.8871 54.618 71.7637 54.9159 71.5441 55.1355C71.3245 55.3551 71.0266 55.4785 70.716 55.4785L44.8747 55.4782Z" stroke="#474747" stroke-linecap="round" stroke-linejoin="round"/>
<path id="Vector_26" d="M70.716 61.3345V55.4783H44.8747C44.4851 55.4702 44.0978 55.54 43.7355 55.6835C43.3732 55.8271 43.0432 56.0415 42.7648 56.3142C42.4864 56.5869 42.2653 56.9124 42.1143 57.2716C41.9633 57.6309 41.8855 58.0167 41.8855 58.4064C41.8855 58.7961 41.9633 59.1819 42.1143 59.5411C42.2653 59.9004 42.4864 60.2259 42.7648 60.4986C43.0432 60.7713 43.3732 60.9857 43.7355 61.1292C44.0978 61.2728 44.4851 61.3426 44.8747 61.3345H70.716Z" fill="white" stroke="#474747" stroke-linecap="round" stroke-linejoin="round"/>
<path id="Vector_27" d="M33.5743 63.6777H30.1098C28.7116 63.6777 27.3707 63.1223 26.3821 62.1337C25.3934 61.145 24.838 59.8041 24.838 58.406C24.838 57.0078 25.3934 55.667 26.3821 54.6783C27.3707 53.6897 28.7116 53.1342 30.1098 53.1342H33.574C32.1759 53.1342 30.835 53.6897 29.8463 54.6783C28.8577 55.667 28.3023 57.0078 28.3023 58.406C28.3023 59.8041 28.8577 61.145 29.8463 62.1337C30.835 63.1223 32.1761 63.6777 33.5743 63.6777Z" fill="white" stroke="#474747" stroke-linecap="round" stroke-linejoin="round"/>
<path id="Vector_28" d="M62.7182 14.7882C62.7182 15.0694 62.6065 15.3391 62.4077 15.538C62.2089 15.7368 61.9392 15.8485 61.658 15.8485H38.2167C37.9405 15.8411 37.6781 15.7263 37.4853 15.5283C37.2926 15.3303 37.1847 15.0649 37.1847 14.7886C37.1847 14.5123 37.2926 14.2469 37.4853 14.0489C37.6781 13.851 37.9405 13.7361 38.2167 13.7287H61.658C61.9391 13.7287 62.2086 13.8403 62.4074 14.039C62.6063 14.2377 62.718 14.5072 62.7182 14.7882Z" fill="white" stroke="#474747" stroke-linecap="round" stroke-linejoin="round"/>
</g>
</svg>
