<svg width="100" height="100" viewBox="0 0 100 100" fill="none" xmlns="http://www.w3.org/2000/svg">
<g id="avatar-star-1 1">
<g id="Group">
<path id="Vector" d="M41.375 67.925V93.15H47.75L48.475 76.675C48.45 75.825 49.1 75.125 49.95 75.1C50.8 75.075 51.5 75.725 51.525 76.575C51.525 76.6 51.525 76.65 51.525 76.675L52.25 93.15H58.625V67.925H41.375Z" fill="white"/>
<path id="Vector_2" d="M58.625 93.65H52.25C51.975 93.65 51.75 93.45 51.75 93.175L51.025 76.7C51.025 76.675 51.025 76.675 51.025 76.65C51.025 76.625 51.025 76.6 51.025 76.575C51.025 76.3 50.9 76.05 50.7 75.85C50.5 75.65 50.225 75.575 49.95 75.575C49.375 75.6 48.925 76.075 48.95 76.65C48.95 76.675 48.95 76.675 48.95 76.7L48.225 93.175C48.225 93.45 48 93.65 47.725 93.65H41.35C41.075 93.65 40.85 93.425 40.85 93.15V67.925C40.85 67.65 41.075 67.425 41.35 67.425H58.625C58.9 67.425 59.125 67.65 59.125 67.925V93.15C59.125 93.425 58.9 93.65 58.625 93.65ZM52.725 92.65H58.125V68.425H41.85V92.65H47.25L47.95 76.675C47.925 76.15 48.125 75.625 48.5 75.25C48.875 74.85 49.375 74.625 49.925 74.6C50.475 74.575 50.975 74.775 51.375 75.15C51.775 75.525 52 76.025 52.025 76.575C52.025 76.625 52.025 76.65 52.025 76.7L52.725 92.65Z" fill="#474747"/>
</g>
<g id="Group_2">
<path id="Vector_3" d="M60.95 74.575C59.675 74.575 58.625 73.525 58.625 72.25V57.975H63.275V72.25C63.275 73.525 62.25 74.575 60.95 74.575Z" fill="white"/>
<path id="Vector_4" d="M60.95 75.075C59.4 75.075 58.125 73.8 58.125 72.25V57.975C58.125 57.7 58.35 57.475 58.625 57.475H63.275C63.55 57.475 63.775 57.7 63.775 57.975V72.25C63.775 73.8 62.525 75.075 60.95 75.075ZM59.125 58.475V72.25C59.125 73.25 59.95 74.075 60.95 74.075C61.95 74.075 62.775 73.25 62.775 72.25V58.475H59.125Z" fill="#474747"/>
</g>
<g id="Group_3">
<path id="Vector_5" d="M39.05 74.575C37.775 74.575 36.725 73.525 36.725 72.25V57.975H41.375V72.25C41.375 73.525 40.325 74.575 39.05 74.575Z" fill="white"/>
<path id="Vector_6" d="M39.05 75.075C37.5 75.075 36.225 73.8 36.225 72.25V57.975C36.225 57.7 36.45 57.475 36.725 57.475H41.375C41.65 57.475 41.875 57.7 41.875 57.975V72.25C41.875 73.8 40.6 75.075 39.05 75.075ZM37.225 58.475V72.25C37.225 73.25 38.05 74.075 39.05 74.075C40.05 74.075 40.875 73.25 40.875 72.25V58.475H37.225Z" fill="#474747"/>
</g>
<g id="Group_4">
<path id="Vector_7" d="M50 44.025C43.15 44.15 36.725 49.2 36.725 57.975H41.375V67.925H58.65V57.975H63.3C63.275 49.2 56.85 44.15 50 44.025Z" fill="#FDB728"/>
<path id="Vector_8" d="M58.625 68.425H41.35C41.075 68.425 40.85 68.2 40.85 67.925V58.475H36.7C36.425 58.475 36.2 58.25 36.2 57.975C36.2 48.675 43.125 43.675 49.975 43.525H50C56.85 43.65 63.775 48.675 63.775 57.975C63.775 58.25 63.55 58.475 63.275 58.475H59.125V67.925C59.125 68.2 58.9 68.425 58.625 68.425ZM41.875 67.425H58.15V57.975C58.15 57.7 58.375 57.475 58.65 57.475H62.8C62.575 51.075 58.2 44.7 50.025 44.525C41.85 44.7 37.475 51.075 37.25 57.475H41.4C41.675 57.475 41.9 57.7 41.9 57.975V67.425H41.875Z" fill="#474747"/>
</g>
<path id="Vector_9" d="M58.625 58.475C58.35 58.475 58.125 58.25 58.125 57.975V53.6C58.125 53.325 58.35 53.1 58.625 53.1C58.9 53.1 59.125 53.325 59.125 53.6V57.975C59.125 58.25 58.9 58.475 58.625 58.475Z" fill="#474747"/>
<path id="Vector_10" d="M41.375 58.475C41.1 58.475 40.875 58.25 40.875 57.975V53.6C40.875 53.325 41.1 53.1 41.375 53.1C41.65 53.1 41.875 53.325 41.875 53.6V57.975C41.875 58.25 41.65 58.475 41.375 58.475Z" fill="#474747"/>
<g id="Group_5">
<path id="Vector_11" d="M53.675 44.575C53.275 44.45 53 44.075 53 43.675V40.825H47V43.675C47 44.1 46.725 44.475 46.325 44.575C46.225 44.6 46.125 44.625 46.025 44.675C46.15 46.875 48.05 48.55 50.25 48.4C52.25 48.275 53.85 46.675 53.975 44.675C53.875 44.65 53.775 44.625 53.675 44.575Z" fill="white"/>
<path id="Vector_12" d="M50 48.9C48.9 48.9 47.875 48.5 47.025 47.775C46.125 46.975 45.6 45.875 45.525 44.7C45.5 44.475 45.65 44.275 45.875 44.2C45.975 44.175 46.075 44.125 46.175 44.1C46.35 44.05 46.5 43.875 46.5 43.675V40.825C46.5 40.55 46.725 40.325 47 40.325H53C53.275 40.325 53.5 40.55 53.5 40.825V43.675C53.5 43.875 53.625 44.05 53.825 44.1H53.85C53.95 44.125 54.025 44.15 54.125 44.175C54.35 44.25 54.475 44.45 54.475 44.675C54.325 46.925 52.525 48.725 50.275 48.875C50.175 48.9 50.075 48.9 50 48.9ZM46.575 45.025C46.7 45.8 47.1 46.5 47.7 47.025C48.4 47.65 49.3 47.95 50.225 47.9C51.85 47.8 53.175 46.6 53.45 45.025C52.9 44.8 52.525 44.275 52.525 43.675V41.325H47.525V43.675C47.5 44.275 47.125 44.825 46.575 45.025Z" fill="#474747"/>
</g>
<g id="Group_6">
<path id="Vector_13" d="M41.4 94.475C40.675 94.475 40.075 93.9 40.075 93.175C40.075 92.95 40.125 92.75 40.225 92.55C40.925 91.275 42.275 90.5 43.725 90.5H44.4C45.85 90.5 47.175 91.3 47.9 92.55C48.225 93.2 47.975 94 47.325 94.325C47.125 94.425 46.925 94.475 46.7 94.475H41.4Z" fill="#FDB728"/>
<path id="Vector_14" d="M41.375 94.975C40.9 94.975 40.45 94.8 40.1 94.45C39.75 94.1 39.55 93.65 39.55 93.175C39.55 92.875 39.625 92.6 39.75 92.325C40.55 90.875 42.05 90 43.675 90H44.35C45.975 90 47.475 90.875 48.275 92.325C48.75 93.225 48.375 94.325 47.5 94.8C47.25 94.925 46.95 95 46.65 95L41.375 94.975C41.4 94.975 41.4 94.975 41.375 94.975ZM43.7 91C42.425 91 41.25 91.7 40.65 92.8C40.6 92.9 40.575 93.025 40.575 93.175C40.575 93.625 40.95 94 41.4 94C41.4 94 41.4 94 41.425 94H46.675C46.825 94 46.95 93.975 47.075 93.9C47.475 93.7 47.65 93.2 47.425 92.8C46.825 91.7 45.65 91.025 44.375 91.025H43.7C43.7 91 43.7 91 43.7 91Z" fill="#474747"/>
</g>
<g id="Group_7">
<path id="Vector_15" d="M53.35 94.475C52.625 94.475 52.025 93.9 52.025 93.175C52.025 92.95 52.075 92.75 52.175 92.55C52.875 91.275 54.2 90.5 55.675 90.5H56.35C57.8 90.5 59.15 91.3 59.85 92.55C60.175 93.2 59.925 94 59.275 94.325C59.075 94.425 58.875 94.475 58.65 94.475H53.35Z" fill="#FDB728"/>
<path id="Vector_16" d="M53.325 94.975C52.325 94.975 51.5 94.175 51.5 93.175C51.5 92.875 51.575 92.6 51.7 92.325C52.5 90.875 54 90 55.625 90H56.3C57.925 90 59.425 90.875 60.225 92.325C60.7 93.225 60.35 94.325 59.45 94.8C59.2 94.925 58.9 95 58.625 95C58.625 95 58.625 95 58.6 95H53.325C53.35 94.975 53.325 94.975 53.325 94.975ZM55.625 91C54.35 91 53.175 91.7 52.575 92.8C52.525 92.9 52.5 93.025 52.5 93.175C52.5 93.4 52.6 93.6 52.75 93.75C52.9 93.9 53.125 93.975 53.325 93.975H58.575C58.7 93.975 58.85 93.95 58.975 93.875C59.375 93.675 59.55 93.175 59.325 92.775C58.725 91.675 57.55 91 56.275 91H55.625Z" fill="#474747"/>
</g>
<g id="Group_8">
<path id="Vector_17" d="M59.3 35.1C59.3 34.325 58.725 33.65 57.975 33.5V32.425C57.975 28.025 54.4 24.45 50 24.45C45.6 24.45 42.025 28.025 42.025 32.425V33.5C41.15 33.675 40.55 34.5 40.725 35.4C40.85 36.125 41.475 36.675 42.2 36.725C43.1 41.025 47.325 43.8 51.625 42.9C54.725 42.25 57.15 39.825 57.8 36.725C58.65 36.65 59.3 35.95 59.3 35.1Z" fill="white"/>
<path id="Vector_18" d="M50 43.575C46.175 43.575 42.75 40.975 41.8 37.175C41.025 36.975 40.4 36.325 40.25 35.5C40.15 34.95 40.275 34.375 40.6 33.9C40.85 33.55 41.175 33.275 41.55 33.125V32.425C41.55 27.75 45.35 23.95 50.025 23.95C54.7 23.95 58.5 27.75 58.5 32.425V33.125C59.275 33.45 59.825 34.225 59.825 35.075C59.825 36.05 59.15 36.875 58.25 37.125C57.475 40.275 54.95 42.7 51.775 43.35C51.15 43.525 50.575 43.575 50 43.575ZM50 24.975C45.875 24.975 42.525 28.325 42.525 32.45V33.525C42.525 33.775 42.35 33.975 42.125 34.025C41.825 34.075 41.575 34.25 41.4 34.5C41.225 34.75 41.175 35.05 41.225 35.35C41.325 35.85 41.725 36.225 42.25 36.275C42.475 36.3 42.65 36.45 42.7 36.675C43.55 40.7 47.5 43.3 51.525 42.45C54.425 41.85 56.7 39.575 57.3 36.675C57.35 36.45 57.525 36.3 57.75 36.275C58.35 36.225 58.775 35.725 58.8 35.15C58.8 34.6 58.4 34.15 57.875 34.05C57.65 34 57.475 33.8 57.475 33.55V32.475C57.475 28.325 54.125 24.975 50 24.975Z" fill="#474747"/>
</g>
<path id="Vector_19" d="M44.7 36.1C44.7 36.65 45.15 37.1 45.7 37.1C46.25 37.1 46.7 36.65 46.7 36.1C46.7 35.55 46.25 35.1 45.7 35.1C45.125 35.1 44.7 35.55 44.7 36.1Z" fill="#FDB728"/>
<path id="Vector_20" d="M53.325 36.1C53.325 36.65 53.775 37.1 54.325 37.1C54.875 37.1 55.325 36.65 55.325 36.1C55.325 35.55 54.875 35.1 54.325 35.1C53.775 35.1 53.325 35.55 53.325 36.1Z" fill="#FDB728"/>
<path id="Vector_21" d="M50 39.6C49.2 39.6 48.425 39.375 47.725 38.9C47.5 38.75 47.425 38.425 47.575 38.2C47.725 37.975 48.05 37.9 48.275 38.05C49.325 38.75 50.675 38.75 51.7 38.05C51.925 37.9 52.25 37.95 52.4 38.2C52.55 38.425 52.5 38.75 52.25 38.9C51.575 39.375 50.8 39.6 50 39.6Z" fill="#474747"/>
<path id="Vector_22" d="M46.025 33.5C46.025 34.05 46.475 34.5 47.025 34.5C47.575 34.5 48.025 34.05 48.025 33.5C48.025 32.95 47.575 32.5 47.025 32.5C46.475 32.5 46.025 32.95 46.025 33.5Z" fill="#474747"/>
<path id="Vector_23" d="M52 33.5C52 34.05 52.45 34.5 53 34.5C53.55 34.5 54 34.05 54 33.5C54 32.95 53.55 32.5 53 32.5C52.45 32.5 52 32.95 52 33.5Z" fill="#474747"/>
<g id="Group_9">
<path id="Vector_24" d="M49.75 21.575C44.925 21.85 41.175 25.875 41.25 30.7V32.175C41.25 32.55 41.55 32.85 41.9 32.85C41.975 32.85 42.075 32.825 42.15 32.8C43.425 32.275 45.625 31.05 45.625 28.725C48.8 31.8 54.05 31.625 57.7 30.65C58.35 30.475 58.775 29.85 58.675 29.175C58.1 24.7 54.225 21.425 49.75 21.575Z" fill="white"/>
<path id="Vector_25" d="M41.925 33.325C41.275 33.325 40.75 32.8 40.75 32.15V30.675C40.675 25.575 44.6 21.35 49.725 21.05C49.725 21.05 49.725 21.05 49.75 21.05C54.525 20.9 58.6 24.35 59.225 29.075C59.35 30 58.75 30.85 57.875 31.1C54.2 32.075 49.3 32.175 46.05 29.675C45.55 31.65 43.625 32.725 42.4 33.225C42.225 33.3 42.075 33.325 41.925 33.325ZM49.775 22.05C45.2 22.325 41.7 26.1 41.75 30.675V32.15C41.75 32.25 41.825 32.325 41.925 32.325C41.95 32.325 41.975 32.325 41.975 32.325C43.15 31.85 45.125 30.75 45.125 28.725C45.125 28.525 45.25 28.35 45.425 28.275C45.6 28.2 45.825 28.225 45.975 28.375C48.9 31.2 53.875 31.15 57.575 30.175C57.975 30.075 58.25 29.675 58.2 29.25C57.65 25.025 54 21.925 49.775 22.05Z" fill="#474747"/>
</g>
<g id="Group_10">
<path id="Vector_26" d="M38.725 12.075C38.85 11.7 38.625 11.275 38.25 11.175C38.1 11.125 37.95 11.125 37.8 11.175L35 12.175C34.775 12.25 34.525 12.225 34.325 12.075L32.1 10.475C31.775 10.25 31.325 10.325 31.1 10.65C31 10.775 30.95 10.925 30.975 11.1L31.05 13.85C31.05 14.1 30.95 14.325 30.75 14.45L28.375 16.2C28.05 16.425 27.975 16.9 28.225 17.2C28.325 17.325 28.45 17.425 28.6 17.475L31.45 18.3C31.675 18.375 31.85 18.55 31.925 18.775L32.85 21.575C32.975 21.95 33.375 22.15 33.775 22.025C33.925 21.975 34.05 21.875 34.15 21.75L35.75 19.4C35.875 19.2 36.1 19.075 36.35 19.075L39.2 19.05C39.6 19.05 39.925 18.725 39.925 18.325C39.925 18.175 39.875 18 39.775 17.875L37.95 15.525C37.8 15.325 37.75 15.1 37.825 14.85L38.725 12.075Z" fill="white"/>
<path id="Vector_27" d="M33.525 22.575C33.325 22.575 33.15 22.525 32.975 22.45C32.675 22.3 32.475 22.05 32.35 21.75L31.425 18.925C31.4 18.85 31.35 18.8 31.275 18.775L28.425 17.95C28.175 17.875 27.95 17.725 27.775 17.5C27.575 17.225 27.5 16.925 27.55 16.6C27.6 16.275 27.775 16 28.025 15.8L30.4 14.05C30.475 14 30.5 13.925 30.5 13.85L30.425 11.125C30.425 10.85 30.5 10.6 30.65 10.375C31.05 9.82499 31.8 9.69999 32.35 10.1L34.575 11.7C34.625 11.75 34.725 11.75 34.775 11.725L37.55 10.725C37.8 10.625 38.075 10.625 38.325 10.7C38.975 10.9 39.325 11.6 39.125 12.225L38.225 15.05C38.2 15.125 38.225 15.2 38.25 15.25L40.075 17.6C40.25 17.8 40.325 18.075 40.325 18.35C40.325 18.675 40.2 18.975 39.975 19.225C39.75 19.45 39.45 19.575 39.1 19.575L36.25 19.6C36.175 19.6 36.1 19.625 36.075 19.7L34.475 22.05C34.325 22.275 34.1 22.45 33.85 22.525C33.8 22.575 33.65 22.575 33.525 22.575ZM31.675 10.875C31.65 10.875 31.65 10.875 31.65 10.875C31.625 10.875 31.55 10.9 31.5 10.975C31.475 11.025 31.45 11.075 31.45 11.125L31.525 13.875C31.525 14.275 31.35 14.675 31.025 14.9L28.65 16.65C28.575 16.7 28.575 16.75 28.55 16.8C28.55 16.825 28.55 16.9 28.6 16.975C28.625 17.025 28.675 17.05 28.725 17.05L31.575 17.875C31.95 18 32.275 18.275 32.4 18.675L33.325 21.5C33.35 21.575 33.4 21.625 33.425 21.625C33.45 21.65 33.525 21.675 33.6 21.625C33.65 21.6 33.7 21.575 33.725 21.55L35.325 19.2C35.55 18.875 35.925 18.675 36.325 18.675L39.175 18.65C39.25 18.65 39.3 18.6 39.325 18.575C39.35 18.55 39.4 18.5 39.4 18.425C39.4 18.375 39.375 18.325 39.35 18.3L37.525 15.95C37.275 15.625 37.2 15.2 37.325 14.825L38.225 12C38.25 11.925 38.225 11.85 38.2 11.825C38.175 11.8 38.15 11.75 38.075 11.725C38.025 11.7 37.975 11.7 37.925 11.725L35.15 12.725C34.775 12.85 34.35 12.8 34.025 12.575L31.8 10.975C31.75 10.875 31.725 10.875 31.675 10.875Z" fill="#474747"/>
</g>
<g id="Group_11">
<path id="Vector_28" d="M26.25 24.05C26.175 23.75 25.85 23.575 25.55 23.65C25.425 23.675 25.325 23.75 25.25 23.85L23.85 25.725C23.725 25.875 23.55 25.975 23.375 25.95L21.2 25.875C20.875 25.875 20.625 26.1 20.6 26.425C20.6 26.55 20.625 26.675 20.7 26.775L21.95 28.55C22.05 28.7 22.075 28.9 22.025 29.075L21.2 31.275C21.1 31.575 21.25 31.9 21.55 32.025C21.675 32.075 21.8 32.075 21.925 32.025L24.175 31.325C24.35 31.275 24.55 31.3 24.7 31.425L26.55 32.875C26.8 33.075 27.15 33.025 27.35 32.775C27.425 32.675 27.475 32.55 27.475 32.425L27.5 30.15C27.5 29.95 27.6 29.775 27.75 29.675L29.625 28.425C29.9 28.25 29.95 27.9 29.775 27.625C29.7 27.525 29.6 27.45 29.475 27.4L27.25 26.65C27.075 26.6 26.925 26.45 26.875 26.25L26.25 24.05Z" fill="white"/>
<path id="Vector_29" d="M26.875 33.55C26.625 33.55 26.4 33.475 26.2 33.325L24.35 31.875C24.325 31.85 24.3 31.85 24.275 31.85L22.025 32.55C21.8 32.625 21.55 32.625 21.325 32.525C21.05 32.425 20.85 32.225 20.725 31.975C20.6 31.725 20.6 31.425 20.7 31.15L21.525 28.95C21.525 28.925 21.525 28.9 21.525 28.875L20.275 27.1C20.15 26.9 20.075 26.675 20.075 26.425C20.1 25.825 20.6 25.375 21.2 25.4L23.375 25.475C23.4 25.475 23.425 25.475 23.45 25.45L24.85 23.575C25 23.375 25.2 23.25 25.425 23.175C25.7 23.1 26 23.125 26.25 23.275C26.5 23.425 26.675 23.65 26.75 23.925L27.4 26.2C27.4 26.225 27.425 26.25 27.45 26.25L29.675 27C29.9 27.075 30.1 27.225 30.225 27.425C30.55 27.925 30.425 28.575 29.925 28.925L28.05 30.175C28.025 30.2 28.025 30.225 28.025 30.25L28 32.525C28 32.75 27.925 33 27.775 33.175C27.6 33.4 27.35 33.55 27.05 33.575C26.95 33.55 26.9 33.55 26.875 33.55ZM24.3 30.85C24.55 30.85 24.775 30.925 24.975 31.075L26.825 32.525C26.85 32.55 26.875 32.55 26.875 32.55C26.9 32.55 26.9 32.55 26.925 32.525C26.925 32.5 26.95 32.5 26.95 32.475L26.975 30.2C26.975 29.85 27.15 29.525 27.45 29.325L29.325 28.075C29.35 28.05 29.35 28.05 29.35 28.025C29.35 28 29.35 28 29.35 27.975C29.35 27.95 29.325 27.95 29.3 27.95L27.075 27.2C26.75 27.075 26.475 26.825 26.375 26.475L25.725 24.2C25.725 24.175 25.7 24.15 25.7 24.15C25.675 24.15 25.675 24.125 25.65 24.15C25.625 24.15 25.625 24.175 25.6 24.175L24.2 26.05C24 26.325 23.65 26.5 23.3 26.475L21.125 26.4C21.075 26.4 21.05 26.425 21.05 26.475C21.05 26.5 21.05 26.5 21.075 26.525L22.325 28.3C22.525 28.6 22.575 28.95 22.45 29.3L21.625 31.525C21.625 31.55 21.625 31.575 21.625 31.575C21.625 31.6 21.65 31.6 21.675 31.625C21.7 31.625 21.7 31.625 21.725 31.625L23.975 30.925C24.1 30.875 24.2 30.85 24.3 30.85Z" fill="#474747"/>
</g>
<g id="Group_12">
<path id="Vector_30" d="M61.275 12.075C61.15 11.7 61.375 11.275 61.75 11.175C61.9 11.125 62.05 11.125 62.2 11.175L64.975 12.175C65.2 12.25 65.45 12.225 65.65 12.075L67.875 10.475C68.2 10.25 68.65 10.325 68.875 10.65C68.975 10.775 69.025 10.925 69 11.1L68.925 13.85C68.925 14.1 69.025 14.325 69.225 14.45L71.6 16.2C71.925 16.425 72 16.9 71.75 17.2C71.65 17.325 71.525 17.425 71.375 17.475L68.525 18.3C68.3 18.375 68.125 18.55 68.05 18.775L67.125 21.575C67 21.95 66.6 22.15 66.2 22.025C66.05 21.975 65.925 21.875 65.825 21.75L64.225 19.4C64.1 19.2 63.875 19.075 63.625 19.075L60.775 19.05C60.375 19.05 60.05 18.725 60.05 18.325C60.05 18.175 60.1 18 60.2 17.875L62.025 15.525C62.175 15.325 62.225 15.1 62.15 14.85L61.275 12.075Z" fill="white"/>
<path id="Vector_31" d="M66.475 22.575C66.35 22.575 66.225 22.55 66.1 22.525C65.85 22.45 65.625 22.275 65.475 22.05L63.875 19.7C63.825 19.65 63.775 19.6 63.7 19.6L60.85 19.575C60.525 19.575 60.225 19.45 59.975 19.2C59.75 18.975 59.625 18.65 59.625 18.325C59.625 18.05 59.725 17.8 59.875 17.575L61.675 15.225C61.725 15.175 61.725 15.1 61.7 15.025L60.8 12.25C60.6 11.6 60.95 10.925 61.6 10.725C61.85 10.65 62.125 10.65 62.375 10.75L65.175 11.75C65.25 11.775 65.325 11.775 65.375 11.725L67.6 10.125C68.15 9.725 68.925 9.85 69.3 10.4C69.45 10.625 69.55 10.875 69.525 11.15L69.45 13.9C69.45 13.975 69.475 14.05 69.55 14.075L71.925 15.825C72.2 16.025 72.35 16.3 72.4 16.625C72.45 16.95 72.375 17.275 72.175 17.525C72.025 17.75 71.8 17.9 71.525 17.975L68.675 18.8C68.6 18.825 68.55 18.875 68.525 18.95L67.625 21.75C67.475 22.25 66.975 22.575 66.475 22.575ZM61.775 11.925L62.675 14.75C62.8 15.125 62.725 15.55 62.475 15.875L60.65 18.225C60.625 18.275 60.6 18.325 60.6 18.35C60.6 18.425 60.65 18.475 60.675 18.5C60.7 18.525 60.75 18.575 60.825 18.575L63.675 18.6C64.075 18.6 64.45 18.8 64.675 19.125L66.275 21.475C66.3 21.525 66.35 21.55 66.4 21.55C66.525 21.6 66.65 21.525 66.675 21.4L67.6 18.6C67.725 18.225 68.025 17.925 68.425 17.8L71.275 16.975C71.325 16.95 71.375 16.925 71.4 16.9C71.45 16.825 71.45 16.775 71.45 16.725C71.45 16.675 71.425 16.625 71.35 16.575L68.975 14.825C68.65 14.6 68.45 14.2 68.475 13.8L68.55 11.05C68.55 11 68.525 10.95 68.5 10.9C68.425 10.8 68.275 10.775 68.175 10.85L65.95 12.45C65.625 12.675 65.2 12.75 64.825 12.6L62.025 11.6C61.975 11.575 61.925 11.575 61.875 11.6C61.8 11.7 61.725 11.825 61.775 11.925Z" fill="#474747"/>
</g>
<g id="Group_13">
<path id="Vector_32" d="M73.75 24.05C73.825 23.75 74.15 23.575 74.45 23.65C74.575 23.675 74.675 23.75 74.75 23.85L76.15 25.725C76.275 25.875 76.45 25.975 76.625 25.95L78.8 25.875C79.125 25.875 79.375 26.1 79.4 26.425C79.4 26.55 79.375 26.675 79.3 26.775L78.05 28.55C77.95 28.7 77.925 28.9 77.975 29.075L78.8 31.275C78.9 31.575 78.75 31.9 78.45 32.025C78.325 32.075 78.2 32.075 78.075 32.025L75.825 31.325C75.65 31.275 75.45 31.3 75.3 31.425L73.45 32.875C73.2 33.075 72.85 33.025 72.65 32.775C72.575 32.675 72.525 32.55 72.525 32.425L72.5 30.15C72.5 29.95 72.4 29.775 72.25 29.675L70.375 28.425C70.1 28.25 70.05 27.9 70.225 27.625C70.3 27.525 70.4 27.45 70.525 27.4L72.75 26.65C72.925 26.6 73.075 26.45 73.125 26.25L73.75 24.05Z" fill="white"/>
<path id="Vector_33" d="M73.125 33.55C72.8 33.55 72.5 33.4 72.275 33.15C72.125 32.975 72.05 32.725 72.05 32.5L72.025 30.225C72.025 30.2 72 30.175 72 30.15L70.125 28.9C69.875 28.75 69.725 28.5 69.675 28.225C69.625 27.95 69.675 27.65 69.825 27.425C69.95 27.225 70.15 27.075 70.375 27L72.6 26.25C72.625 26.25 72.65 26.225 72.65 26.2L73.3 23.925C73.45 23.35 74.05 23.025 74.625 23.175C74.85 23.25 75.05 23.375 75.2 23.575L76.6 25.45C76.625 25.475 76.65 25.475 76.65 25.475L78.825 25.4C79.425 25.375 79.925 25.85 79.95 26.425C79.95 26.65 79.9 26.9 79.75 27.1L78.5 28.875C78.475 28.9 78.475 28.925 78.5 28.95L79.325 31.15C79.425 31.425 79.425 31.7 79.3 31.975C79.175 32.25 78.975 32.425 78.7 32.525C78.475 32.6 78.225 32.625 78 32.55L75.75 31.85C75.725 31.85 75.7 31.85 75.675 31.875L73.825 33.325C73.6 33.475 73.375 33.55 73.125 33.55ZM74.325 24.125C74.3 24.125 74.25 24.15 74.25 24.175L73.6 26.45C73.5 26.8 73.25 27.05 72.9 27.175L70.675 27.925C70.65 27.925 70.65 27.95 70.625 27.95C70.6 27.975 70.6 28 70.625 28C70.65 28 70.625 28.025 70.65 28.05L72.525 29.3C72.825 29.5 73 29.825 73 30.175L73.025 32.45C73.025 32.475 73.025 32.475 73.05 32.5C73.075 32.525 73.125 32.525 73.15 32.5L75 31.05C75.275 30.825 75.65 30.75 75.975 30.875L78.225 31.575C78.25 31.575 78.25 31.575 78.275 31.575C78.3 31.575 78.3 31.55 78.325 31.525C78.35 31.5 78.325 31.5 78.325 31.475L77.5 29.25C77.375 28.925 77.425 28.55 77.625 28.25L78.875 26.475C78.875 26.45 78.9 26.45 78.9 26.425C78.9 26.375 78.85 26.35 78.825 26.35L76.65 26.425C76.3 26.45 75.95 26.275 75.75 26L74.35 24.125C74.375 24.15 74.35 24.15 74.325 24.125Z" fill="#474747"/>
</g>
<g id="Group_14">
<path id="Vector_34" d="M57.325 9.12501C57.7 8.77501 57.7 8.17501 57.35 7.82501C57.2 7.67501 57.025 7.57501 56.825 7.55001L53.075 7.00001C52.775 6.95001 52.5 6.77501 52.375 6.50001L50.825 3.35001C50.6 2.90001 50.05 2.70001 49.575 2.92501C49.4 3.02501 49.25 3.15001 49.15 3.35001L47.625 6.50001C47.5 6.77501 47.225 6.95001 46.925 7.00001L43.175 7.55001C42.675 7.62501 42.325 8.10001 42.4 8.60001C42.425 8.80001 42.525 8.97501 42.675 9.12501L45.375 11.75C45.6 11.95 45.7 12.275 45.65 12.575L45 16.3C44.925 16.8 45.25 17.275 45.75 17.375C45.95 17.4 46.15 17.375 46.35 17.275L49.575 15.575C49.85 15.425 50.175 15.425 50.425 15.575L53.65 17.275C54.1 17.525 54.65 17.35 54.9 16.9C55 16.725 55.025 16.525 55 16.3L54.35 12.575C54.3 12.275 54.4 11.975 54.625 11.75L57.325 9.12501Z" fill="white"/>
<path id="Vector_35" d="M54.075 17.875C53.85 17.875 53.625 17.825 53.425 17.7L50.2 16C50.075 15.925 49.925 15.925 49.8 16L46.575 17.7C46.3 17.85 45.975 17.9 45.675 17.85C44.9 17.725 44.375 16.975 44.525 16.2L45.175 12.475C45.2 12.325 45.15 12.2 45.05 12.1L42.35 9.47501C42.125 9.25001 41.975 8.97501 41.925 8.65001C41.875 8.27501 41.975 7.90001 42.2 7.60001C42.425 7.30001 42.75 7.10001 43.125 7.05001L46.875 6.50001C47.025 6.47501 47.125 6.40001 47.2 6.27501L48.75 3.15001C48.9 2.87501 49.125 2.65001 49.4 2.50001C50.1 2.15001 50.95 2.45001 51.3 3.15001L52.85 6.30001C52.9 6.42501 53.025 6.50001 53.175 6.52501L56.925 7.07501C57.225 7.12501 57.525 7.27501 57.75 7.50001C58.025 7.77501 58.15 8.12501 58.15 8.50001C58.15 8.87501 58 9.22501 57.725 9.50001L55 12.125C54.9 12.225 54.85 12.35 54.875 12.5L55.525 16.225C55.575 16.525 55.525 16.85 55.375 17.125C55.2 17.45 54.9 17.7 54.525 17.825C54.35 17.85 54.2 17.875 54.075 17.875ZM50 14.975C50.225 14.975 50.45 15.025 50.65 15.15L53.875 16.85C53.975 16.9 54.1 16.925 54.2 16.875C54.3 16.85 54.4 16.775 54.45 16.675C54.5 16.6 54.5 16.5 54.5 16.4L53.85 12.675C53.775 12.225 53.925 11.75 54.25 11.425L56.975 8.80001C57.05 8.72501 57.1 8.62501 57.1 8.50001C57.1 8.37501 57.05 8.27501 56.975 8.20001C56.9 8.12501 56.825 8.10001 56.725 8.07501L53 7.50001C52.55 7.42501 52.125 7.15001 51.925 6.72501L50.375 3.57501C50.275 3.37501 50.025 3.27501 49.8 3.37501C49.725 3.42501 49.65 3.47501 49.6 3.57501L48.05 6.70001C47.85 7.12501 47.425 7.40001 46.975 7.47501L43.25 8.05001C43.15 8.07501 43.05 8.12501 42.975 8.22501C42.9 8.32501 42.875 8.42501 42.9 8.55001C42.925 8.65001 42.95 8.72501 43.025 8.80001L45.725 11.425C46.05 11.75 46.225 12.225 46.125 12.675L45.5 16.375C45.45 16.6 45.625 16.825 45.85 16.875C45.95 16.9 46.025 16.875 46.125 16.825L49.35 15.125C49.525 15.025 49.775 14.975 50 14.975Z" fill="#474747"/>
</g>
</g>
</svg>
