<?xml version="1.0" encoding="utf-8"?>
<!-- Svg Vector Icons : http://www.onlinewebfonts.com/icon -->
<!DOCTYPE svg PUBLIC "-//W3C//DTD SVG 1.1//EN" "http://www.w3.org/Graphics/SVG/1.1/DTD/svg11.dtd">
<svg version="1.1" xmlns="http://www.w3.org/2000/svg" xmlns:xlink="http://www.w3.org/1999/xlink" x="0px" y="0px" viewBox="0 0 256 256" enable-background="new 0 0 256 256" xml:space="preserve">
<metadata> Svg Vector Icons : http://www.onlinewebfonts.com/icon </metadata>
<g><g><path fill="#fff" d="M242.9,33.4L148.3,128l94.4,94.5c4.7,4.7,3.9,13-1.7,18.6c-5.6,5.6-13.9,6.4-18.6,1.7L128,148.3l-94.6,94.6c-4.7,4.7-13.1,3.9-18.7-1.7c-5.6-5.6-6.4-14-1.7-18.6l94.6-94.6L13.4,33.5c-4.7-4.7-3.9-13,1.7-18.6c5.6-5.6,13.9-6.4,18.6-1.7l94.4,94.5l94.6-94.6c4.7-4.7,13.1-3.9,18.7,1.7C246.9,20.4,247.6,28.7,242.9,33.4z"/></g></g>
</svg>