<svg width="100" height="100" viewBox="0 0 100 100" fill="none" xmlns="http://www.w3.org/2000/svg">
<path d="M22.2585 48.5478C22.2585 51.8976 22.9183 55.2145 24.2002 58.3093C25.4821 61.4041 27.361 64.2161 29.7296 66.5848C32.0983 68.9534 34.9103 70.8323 38.0051 72.1142C41.0999 73.3961 44.4168 74.0559 47.7666 74.0559C51.1164 74.0559 54.4334 73.3961 57.5281 72.1142C60.6229 70.8323 63.4349 68.9534 65.8036 66.5848C68.1722 64.2161 70.0511 61.4041 71.333 58.3093C72.6149 55.2145 73.2747 51.8976 73.2747 48.5478C73.2747 45.198 72.6149 41.881 71.333 38.7863C70.0511 35.6915 68.1722 32.8795 65.8036 30.5108C63.4349 28.1422 60.6229 26.2633 57.5281 24.9814C54.4334 23.6995 51.1164 23.0397 47.7666 23.0397C44.4168 23.0397 41.0999 23.6995 38.0051 24.9814C34.9103 26.2633 32.0983 28.1422 29.7296 30.5108C27.361 32.8795 25.4821 35.6915 24.2002 38.7863C22.9183 41.881 22.2585 45.198 22.2585 48.5478Z" fill="#FDB728"/>
<path d="M70.8897 37.7647C69.3668 34.508 67.1743 31.6089 64.4554 29.2566C61.7365 26.9043 58.5522 25.1517 55.1102 24.113H51.3197C50.4973 24.0942 49.6944 24.3654 49.0518 24.8792C48.4093 25.393 47.9681 26.1165 47.8055 26.923C47.7234 27.4076 47.748 27.9043 47.8776 28.3785C48.0072 28.8527 48.2387 29.2928 48.5559 29.6683C48.8731 30.0438 49.2684 30.3456 49.7142 30.5526C50.1601 30.7597 50.6457 30.8669 51.1372 30.867C51.5507 30.8675 51.9586 30.9628 52.3295 31.1455C52.7004 31.3282 53.0245 31.5935 53.277 31.921C53.5294 32.2484 53.7035 32.6294 53.7858 33.0346C53.8681 33.4398 53.8564 33.8585 53.7517 34.2585C53.5826 34.8466 53.2237 35.3622 52.731 35.7251C52.2382 36.0879 51.6393 36.2776 51.0275 36.2645H41.3877C39.6113 36.2284 37.8875 36.8682 36.5646 38.0543C35.2418 39.2405 34.4186 40.8847 34.2615 42.6545C34.2123 43.5707 34.3503 44.4874 34.667 45.3485C34.9837 46.2097 35.4726 46.9973 36.1038 47.6633C36.7349 48.3293 37.4952 48.8597 38.3381 49.2222C39.181 49.5847 40.0889 49.7717 41.0065 49.7717H44.9755C45.4451 49.772 45.8955 49.9587 46.2275 50.2909C46.5595 50.6231 46.746 51.0736 46.746 51.5432V52.9797C46.744 53.1779 46.7812 53.3744 46.8554 53.5581C46.9296 53.7419 47.0394 53.9091 47.1784 54.0503C47.3175 54.1914 47.483 54.3037 47.6656 54.3808C47.8481 54.4578 48.0441 54.4979 48.2422 54.499C48.4435 54.4965 48.6432 54.5339 48.8299 54.6092C49.0165 54.6845 49.1863 54.7961 49.3295 54.9375C49.4727 55.0789 49.5864 55.2473 49.664 55.433C49.7416 55.6187 49.7815 55.818 49.7815 56.0192V57.8802C49.805 58.1682 49.7266 58.4552 49.56 58.6912C48.9603 59.4248 48.6363 60.3452 48.6443 61.2927C48.6524 62.2402 48.9919 63.1549 49.604 63.8782C50.017 64.3418 50.526 64.7099 51.0957 64.9568C51.6654 65.2036 52.2821 65.3234 52.9027 65.3077H54.5087C58.8977 65.3077 60.2492 61.256 60.2492 59.23V52.478C60.2483 51.806 60.4318 51.1466 60.7799 50.5718C61.128 49.997 61.6273 49.5288 62.2232 49.2182C63.0126 48.7342 63.6647 48.0558 64.1171 47.2479C64.5696 46.4401 64.8074 45.5297 64.8077 44.6037C64.8067 44.5427 64.7818 44.4844 64.7383 44.4415C64.6948 44.3986 64.6363 44.3745 64.5752 44.3742H61.9417C61.5835 44.374 61.24 44.2315 60.9867 43.978C60.7335 43.7246 60.5912 43.381 60.5912 43.0227V41.335C60.5912 40.9768 60.7335 40.6333 60.9868 40.38C61.2401 40.1268 61.5836 39.9845 61.9417 39.9845H67.7172C68.4098 39.9846 69.0856 39.7717 69.653 39.3747C70.2205 38.9776 70.6521 38.4156 70.8892 37.765L70.8897 37.7647Z" fill="white"/>
<path d="M22.2585 48.5478C22.2585 51.8976 22.9183 55.2145 24.2002 58.3093C25.4821 61.4041 27.361 64.2161 29.7296 66.5848C32.0983 68.9534 34.9103 70.8323 38.0051 72.1142C41.0999 73.3961 44.4168 74.0559 47.7666 74.0559C51.1164 74.0559 54.4334 73.3961 57.5281 72.1142C60.6229 70.8323 63.4349 68.9534 65.8036 66.5848C68.1722 64.2161 70.0511 61.4041 71.333 58.3093C72.6149 55.2145 73.2747 51.8976 73.2747 48.5478C73.2747 45.198 72.6149 41.881 71.333 38.7863C70.0511 35.6915 68.1722 32.8795 65.8036 30.5108C63.4349 28.1422 60.6229 26.2633 57.5281 24.9814C54.4334 23.6995 51.1164 23.0397 47.7666 23.0397C44.4168 23.0397 41.0999 23.6995 38.0051 24.9814C34.9103 26.2633 32.0983 28.1422 29.7296 30.5108C27.361 32.8795 25.4821 35.6915 24.2002 38.7863C22.9183 41.881 22.2585 45.198 22.2585 48.5478Z" stroke="#474747" stroke-linecap="round" stroke-linejoin="round"/>
<path d="M70.8897 37.7647C69.3668 34.508 67.1743 31.6089 64.4554 29.2566C61.7365 26.9043 58.5522 25.1517 55.1102 24.113H51.3197C50.4973 24.0942 49.6944 24.3654 49.0518 24.8792C48.4093 25.393 47.9681 26.1165 47.8055 26.923C47.7234 27.4076 47.748 27.9043 47.8776 28.3785C48.0072 28.8527 48.2387 29.2928 48.5559 29.6683C48.8731 30.0438 49.2684 30.3456 49.7142 30.5526C50.1601 30.7597 50.6457 30.8669 51.1372 30.867C51.5507 30.8675 51.9586 30.9628 52.3295 31.1455C52.7004 31.3282 53.0245 31.5935 53.277 31.921C53.5294 32.2484 53.7035 32.6294 53.7858 33.0346C53.8681 33.4398 53.8564 33.8585 53.7517 34.2585C53.5826 34.8466 53.2237 35.3622 52.731 35.7251C52.2382 36.0879 51.6393 36.2776 51.0275 36.2645H41.3877C39.6113 36.2284 37.8875 36.8682 36.5646 38.0543C35.2418 39.2405 34.4186 40.8847 34.2615 42.6545C34.2123 43.5707 34.3503 44.4874 34.667 45.3485C34.9837 46.2097 35.4726 46.9973 36.1038 47.6633C36.7349 48.3293 37.4952 48.8597 38.3381 49.2222C39.181 49.5847 40.0889 49.7717 41.0065 49.7717H44.9755C45.4451 49.772 45.8955 49.9587 46.2275 50.2909C46.5595 50.6231 46.746 51.0736 46.746 51.5432V52.9797C46.744 53.1779 46.7812 53.3744 46.8554 53.5581C46.9296 53.7419 47.0394 53.9091 47.1784 54.0503C47.3175 54.1914 47.483 54.3037 47.6656 54.3808C47.8481 54.4578 48.0441 54.4979 48.2422 54.499C48.4435 54.4965 48.6432 54.5339 48.8299 54.6092C49.0165 54.6845 49.1863 54.7961 49.3295 54.9375C49.4727 55.0789 49.5864 55.2473 49.664 55.433C49.7416 55.6187 49.7815 55.818 49.7815 56.0192V57.8802C49.805 58.1682 49.7266 58.4552 49.56 58.6912C48.9603 59.4248 48.6363 60.3452 48.6443 61.2927C48.6524 62.2402 48.9919 63.1549 49.604 63.8782C50.017 64.3418 50.526 64.7099 51.0957 64.9568C51.6654 65.2036 52.2821 65.3234 52.9027 65.3077H54.5087C58.8977 65.3077 60.2492 61.256 60.2492 59.23V52.478C60.2483 51.806 60.4318 51.1466 60.7799 50.5718C61.128 49.997 61.6273 49.5288 62.2232 49.2182C63.0126 48.7342 63.6647 48.0558 64.1171 47.2479C64.5696 46.4401 64.8074 45.5297 64.8077 44.6037C64.8067 44.5427 64.7818 44.4844 64.7383 44.4415C64.6948 44.3986 64.6363 44.3745 64.5752 44.3742H61.9417C61.5835 44.374 61.24 44.2315 60.9867 43.978C60.7335 43.7246 60.5912 43.381 60.5912 43.0227V41.335C60.5912 40.9768 60.7335 40.6333 60.9868 40.38C61.2401 40.1268 61.5836 39.9845 61.9417 39.9845H67.7172C68.4098 39.9846 69.0856 39.7717 69.653 39.3747C70.2205 38.9776 70.6521 38.4156 70.8892 37.765L70.8897 37.7647Z" stroke="#474747" stroke-linecap="round" stroke-linejoin="round"/>
<path d="M37.0735 86.2523C37.0735 86.706 38.3956 87.1411 40.7489 87.4619C43.1022 87.7828 46.2939 87.963 49.622 87.963C52.9501 87.963 56.1418 87.7828 58.4951 87.4619C60.8484 87.1411 62.1705 86.706 62.1705 86.2523C62.1705 85.7985 60.8484 85.3634 58.4951 85.0426C56.1418 84.7217 52.9501 84.5415 49.622 84.5415C46.2939 84.5415 43.1022 84.7217 40.7489 85.0426C38.3956 85.3634 37.0735 85.7985 37.0735 86.2523Z" fill="#FDB728"/>
<path d="M63.2598 21.5442C64.3874 21.7891 65.3716 22.4718 65.9959 23.4423C66.6202 24.4128 66.8333 25.5916 66.5885 26.7192C66.2325 28.3612 63.4345 31.224 61.7825 32.797C61.6478 32.9257 61.4836 33.0194 61.3043 33.0699C61.125 33.1205 60.936 33.1263 60.7539 33.087C60.5718 33.0476 60.4022 32.9642 60.2598 32.8441C60.1173 32.724 60.0065 32.5708 59.937 32.398C59.0873 30.2812 57.7275 26.5127 58.0838 24.8737C58.3286 23.7458 59.0115 22.7613 59.9822 22.1369C60.9528 21.5125 62.1318 21.2994 63.2598 21.5442Z" fill="#FDB728" stroke="#474747" stroke-linecap="round" stroke-linejoin="round"/>
<path d="M39.67 34.838C40.5068 34.7109 41.3598 34.9213 42.0414 35.423C42.7231 35.9246 43.1776 36.6765 43.305 37.5132C43.4745 38.6255 42.516 40.9665 41.7998 42.5147C41.7208 42.686 41.6005 42.835 41.4498 42.9483C41.299 43.0617 41.1225 43.1358 40.936 43.1641C40.7495 43.1924 40.5589 43.1739 40.3813 43.1103C40.2037 43.0468 40.0447 42.9401 39.9185 42.8C38.7743 41.5342 37.1635 39.585 36.9948 38.4727C36.8677 37.636 37.0781 36.783 37.5798 36.1013C38.0814 35.4196 38.8333 34.9651 39.67 34.8377V34.838Z" fill="#FDB728" stroke="#474747" stroke-linecap="round" stroke-linejoin="round"/>
<path d="M68.5715 71.2418L71.6258 68.2273L75.142 71.7883L72.0888 74.8038L68.5715 71.2418Z" fill="white" stroke="#474747" stroke-linecap="round" stroke-linejoin="round"/>
<path d="M82.1812 77.9009C82.4451 78.1682 82.6538 78.4849 82.7953 78.8328C82.9368 79.1807 83.0084 79.5531 83.006 79.9287C83.0036 80.3043 82.9272 80.6758 82.7813 81.0219C82.6353 81.368 82.4226 81.6819 82.1553 81.9458C81.8881 82.2097 81.5714 82.4184 81.2235 82.5599C80.8755 82.7014 80.5032 82.773 80.1276 82.7706C79.7519 82.7682 79.3805 82.6918 79.0344 82.5459C78.6883 82.3999 78.3744 82.1872 78.1105 81.9199L72.0825 75.8142C72.0165 75.7473 71.9644 75.6681 71.929 75.5811C71.8937 75.4941 71.8758 75.4009 71.8765 75.307C71.8771 75.2131 71.8963 75.1202 71.9328 75.0337C71.9694 74.9471 72.0226 74.8687 72.0895 74.8027L75.1427 71.7882C75.2095 71.7223 75.2886 71.6702 75.3756 71.6348C75.4625 71.5995 75.5556 71.5816 75.6494 71.5823C75.7433 71.5829 75.8361 71.6021 75.9225 71.6386C76.009 71.6751 76.0874 71.7284 76.1532 71.7952L82.1812 77.9009Z" fill="#474747"/>
<path d="M82.1812 77.9009C82.4451 78.1682 82.6538 78.4849 82.7953 78.8328C82.9368 79.1807 83.0084 79.5531 83.006 79.9287C83.0036 80.3043 82.9272 80.6758 82.7813 81.0219C82.6353 81.368 82.4226 81.6819 82.1553 81.9458C81.8881 82.2097 81.5714 82.4184 81.2235 82.5599C80.8755 82.7014 80.5032 82.773 80.1276 82.7706C79.7519 82.7682 79.3805 82.6918 79.0344 82.5459C78.6883 82.3999 78.3744 82.1872 78.1105 81.9199L72.0825 75.8142C72.0165 75.7473 71.9644 75.6681 71.929 75.5811C71.8937 75.4941 71.8758 75.4009 71.8765 75.307C71.8771 75.2131 71.8963 75.1202 71.9328 75.0337C71.9694 74.9471 72.0226 74.8687 72.0895 74.8027L75.1427 71.7882C75.2095 71.7223 75.2886 71.6702 75.3756 71.6348C75.4625 71.5995 75.5556 71.5816 75.6494 71.5823C75.7433 71.5829 75.8361 71.6021 75.9225 71.6386C76.009 71.6751 76.0874 71.7284 76.1532 71.7952L82.1812 77.9009Z" fill="#FDB728" stroke="#474747" stroke-linecap="round" stroke-linejoin="round"/>
<path d="M46.5825 60.8578C46.5825 64.6052 48.0712 68.1991 50.721 70.8489C53.3708 73.4987 56.9647 74.9874 60.7121 74.9874C64.4596 74.9874 68.0535 73.4987 70.7033 70.8489C73.3531 68.1991 74.8418 64.6052 74.8418 60.8578C74.8418 57.1104 73.3531 53.5164 70.7033 50.8666C68.0535 48.2168 64.4596 46.7281 60.7121 46.7281C56.9647 46.7281 53.3708 48.2168 50.721 50.8666C48.0712 53.5164 46.5825 57.1104 46.5825 60.8578Z" fill="white"/>
<path d="M46.5825 60.8578C46.5825 64.6052 48.0712 68.1991 50.721 70.8489C53.3708 73.4987 56.9647 74.9874 60.7121 74.9874C64.4596 74.9874 68.0535 73.4987 70.7033 70.8489C73.3531 68.1991 74.8418 64.6052 74.8418 60.8578C74.8418 57.1104 73.3531 53.5164 70.7033 50.8666C68.0535 48.2168 64.4596 46.7281 60.7121 46.7281C56.9647 46.7281 53.3708 48.2168 50.721 50.8666C48.0712 53.5164 46.5825 57.1104 46.5825 60.8578Z" stroke="#474747" stroke-linecap="round" stroke-linejoin="round"/>
<path d="M58.402 70.6442C59.6872 70.9476 61.0196 70.9949 62.3232 70.7833C63.6267 70.5718 64.8757 70.1056 65.9991 69.4113C67.1224 68.717 68.098 67.8083 68.8701 66.737C69.6423 65.6657 70.1958 64.4527 70.4992 63.1675C70.8026 61.8822 70.8499 60.5498 70.6383 59.2463C70.4268 57.9428 69.9606 56.6937 69.2663 55.5704C68.572 54.4471 67.6632 53.4715 66.5919 52.6993C65.5206 51.9272 64.3077 51.3736 63.0225 51.0702C61.7372 50.7669 60.4048 50.7196 59.1013 50.9311C57.7978 51.1427 56.5487 51.6089 55.4254 52.3032C54.302 52.9975 53.3264 53.9062 52.5543 54.9775C51.7822 56.0488 51.2286 57.2617 50.9252 58.547C50.6218 59.8322 50.5746 61.1647 50.7861 62.4682C50.9977 63.7717 51.4639 65.0208 52.1582 66.1441C52.8525 67.2674 53.7612 68.243 54.8325 69.0152C55.9038 69.7873 57.1167 70.3409 58.402 70.6442Z" fill="#FDB728"/>
<path d="M60.7123 50.798C58.5761 50.7978 56.4954 51.4778 54.7717 52.7396C53.048 54.0013 51.7709 55.7792 51.1255 57.8156C50.4801 59.8519 50.4999 62.0409 51.1821 64.0652C51.8643 66.0895 53.1735 67.8439 54.9198 69.0742H55.9653C61.0365 69.0742 62.5968 64.393 62.5968 62.0517V54.2532C62.5843 53.7017 62.687 53.1537 62.8983 52.6441C63.1096 52.1346 63.4248 51.6746 63.8238 51.2937C62.8193 50.9655 61.7692 50.7982 60.7125 50.798H60.7123Z" fill="white"/>
<path d="M54.9197 69.0783H55.9652C61.0365 69.0783 62.5967 64.397 62.5967 62.0558V54.2533C62.5841 53.7027 62.6862 53.1556 62.8964 52.6466C63.1066 52.1377 63.4203 51.678 63.8177 51.2968" stroke="#474747" stroke-linecap="round" stroke-linejoin="round"/>
<path d="M58.402 70.6442C59.6872 70.9476 61.0196 70.9949 62.3232 70.7833C63.6267 70.5718 64.8757 70.1056 65.9991 69.4113C67.1224 68.717 68.098 67.8083 68.8701 66.737C69.6423 65.6657 70.1958 64.4527 70.4992 63.1675C70.8026 61.8822 70.8499 60.5498 70.6383 59.2463C70.4268 57.9428 69.9606 56.6937 69.2663 55.5704C68.572 54.447 67.6633 53.4715 66.5919 52.6993C65.5206 51.9272 64.3077 51.3736 63.0225 51.0702C61.7372 50.7669 60.4048 50.7196 59.1013 50.9311C57.7978 51.1427 56.5487 51.6089 55.4254 52.3032C54.302 52.9975 53.3264 53.9062 52.5543 54.9775C51.7822 56.0488 51.2286 57.2617 50.9252 58.547C50.6218 59.8322 50.5746 61.1647 50.7861 62.4682C50.9977 63.7717 51.4639 65.0208 52.1582 66.1441C52.8525 67.2674 53.7612 68.243 54.8325 69.0152C55.9038 69.7873 57.1167 70.3409 58.402 70.6442Z" stroke="#474747" stroke-linecap="round" stroke-linejoin="round"/>
<path d="M40.5137 15.1075C41.2707 19.4795 35.214 31.5872 35.214 31.5872C35.214 31.5872 25.4385 22.2177 24.6845 17.8467C24.3213 15.7477 24.8067 13.5902 26.0342 11.8491C27.2616 10.108 29.1304 8.92574 31.2295 8.56249C33.3286 8.19924 35.486 8.68473 37.2271 9.91216C38.9683 11.1396 40.1505 13.0084 40.5137 15.1075Z" fill="white" stroke="#474747" stroke-linecap="round" stroke-linejoin="round"/>
<path d="M28.9487 16.477C28.9487 16.9565 29.0432 17.4312 29.2266 17.8742C29.4101 18.3171 29.679 18.7196 30.018 19.0586C30.3571 19.3976 30.7595 19.6665 31.2025 19.85C31.6454 20.0335 32.1202 20.1279 32.5996 20.1279C33.079 20.1279 33.5538 20.0335 33.9967 19.85C34.4397 19.6665 34.8421 19.3976 35.1812 19.0586C35.5202 18.7196 35.7891 18.3171 35.9726 17.8742C36.156 17.4312 36.2505 16.9565 36.2505 16.477C36.2505 15.5088 35.8658 14.5802 35.1812 13.8955C34.4965 13.2108 33.5679 12.8262 32.5996 12.8262C31.6313 12.8262 30.7027 13.2108 30.018 13.8955C29.3334 14.5802 28.9487 15.5088 28.9487 16.477Z" fill="#FDB728" stroke="#474747" stroke-linecap="round" stroke-linejoin="round"/>
</svg>
