<svg width="100" height="100" viewBox="0 0 100 100" fill="none" xmlns="http://www.w3.org/2000/svg">
<path d="M10.861 66.5145H88.666" stroke="#474747" stroke-linecap="round" stroke-linejoin="round"/>
<path d="M6.37225 66.5145H8.866" stroke="#474747" stroke-linecap="round" stroke-linejoin="round"/>
<path d="M90.661 66.5145H93.1547" stroke="#474747" stroke-linecap="round" stroke-linejoin="round"/>
<path d="M78.9802 38.6745C78.6388 38.6766 78.3007 38.7415 77.9828 38.866C77.8131 37.7824 77.2619 36.7951 76.4285 36.0821C75.5951 35.369 74.5344 34.9772 73.4376 34.9772C72.3408 34.9772 71.2801 35.369 70.4467 36.0821C69.6134 36.7951 69.0622 37.7824 68.8925 38.866C68.5132 38.7193 68.1061 38.6579 67.7004 38.6863C67.2946 38.7146 66.9001 38.832 66.5449 39.0301C66.1896 39.2282 65.8824 39.5022 65.645 39.8325C65.4076 40.1627 65.2459 40.5413 65.1714 40.9411C65.0968 41.341 65.1113 41.7524 65.2138 42.146C65.3162 42.5396 65.5041 42.9058 65.7641 43.2186C66.0242 43.5314 66.3499 43.7831 66.7182 43.9557C67.0865 44.1284 67.4883 44.2177 67.895 44.2175H78.9802C79.3486 44.2245 79.7147 44.158 80.0571 44.0219C80.3995 43.8857 80.7113 43.6827 80.9743 43.4247C81.2373 43.1666 81.4462 42.8587 81.5888 42.519C81.7314 42.1792 81.8049 41.8145 81.8049 41.446C81.8049 41.0776 81.7314 40.7128 81.5888 40.3731C81.4462 40.0333 81.2373 39.7255 80.9743 39.4674C80.7113 39.2093 80.3995 39.0063 80.0571 38.8702C79.7147 38.734 79.3486 38.6675 78.9802 38.6745Z" fill="white" stroke="#474747" stroke-linejoin="round"/>
<path d="M78.9802 38.6745C78.6388 38.6766 78.3007 38.7415 77.9828 38.866C77.8131 37.7824 77.2619 36.7951 76.4285 36.0821C75.5951 35.369 74.5344 34.9772 73.4376 34.9772C72.3408 34.9772 71.2801 35.369 70.4467 36.0821C69.6134 36.7951 69.0622 37.7824 68.8925 38.866C68.5132 38.7193 68.1061 38.6579 67.7004 38.6863C67.2946 38.7146 66.9001 38.832 66.5449 39.0301C66.1896 39.2282 65.8824 39.5022 65.645 39.8325C65.4076 40.1627 65.2459 40.5413 65.1714 40.9411C65.0968 41.341 65.1113 41.7524 65.2138 42.146C65.3162 42.5396 65.5041 42.9058 65.7641 43.2186C66.0242 43.5314 66.3499 43.7831 66.7182 43.9557C67.0865 44.1284 67.4883 44.2177 67.895 44.2175H78.9802C79.3486 44.2245 79.7147 44.158 80.0571 44.0219C80.3995 43.8857 80.7113 43.6827 80.9743 43.4247C81.2373 43.1666 81.4462 42.8587 81.5888 42.519C81.7314 42.1792 81.8049 41.8145 81.8049 41.446C81.8049 41.0776 81.7314 40.7128 81.5888 40.3731C81.4462 40.0333 81.2373 39.7255 80.9743 39.4674C80.7113 39.2093 80.3995 39.0063 80.0571 38.8702C79.7147 38.734 79.3486 38.6675 78.9802 38.6745Z" fill="white" stroke="#474747" stroke-linejoin="round"/>
<path d="M44.6832 25.4185C44.4276 25.525 44.2247 25.7286 44.1188 25.9846C44.013 26.2405 44.013 26.528 44.1187 26.784L44.431 27.535C46.5454 28.5183 48.8412 29.0514 51.1726 29.1004C53.504 29.1493 55.8202 28.713 57.974 27.8192L75.575 20.5115C75.9813 20.3427 76.3365 20.0707 76.6054 19.7225C76.8743 19.3743 77.0475 18.9618 77.108 18.526C77.1685 18.0902 77.1141 17.6462 76.9502 17.2379C76.7862 16.8296 76.5185 16.4712 76.1735 16.1982C75.2185 15.435 74.0774 14.9403 72.8676 14.7649C71.6577 14.5896 70.4231 14.74 69.2907 15.2007L50.2992 23.0895C50.0915 23.1755 49.8631 23.199 49.6421 23.1572C49.4212 23.1153 49.2172 23.01 49.0552 22.854L46.0417 19.9522C45.88 19.7959 45.676 19.6903 45.455 19.6484C45.2339 19.6066 45.0055 19.6303 44.7977 19.7167L43.7512 20.1517C43.6112 20.2097 43.4839 20.2947 43.3768 20.4019C43.2696 20.5092 43.1846 20.6364 43.1267 20.7765C43.0688 20.9166 43.0391 21.0668 43.0393 21.2183C43.0395 21.3699 43.0695 21.52 43.1277 21.66L44.6832 25.4185Z" fill="#FDB728"/>
<path d="M73.8223 21.24L57.974 27.8235C55.0407 29.0347 51.8241 29.3896 48.6973 28.847L67.9003 20.873C68.8516 20.4856 69.878 20.3174 70.9032 20.3809C71.9285 20.4444 72.9263 20.7381 73.8225 21.24H73.8223Z" fill="white" stroke="#474747" stroke-linecap="round" stroke-linejoin="round"/>
<path d="M55.8335 20.7903L50.075 17.2443C49.894 17.1327 49.7473 16.9733 49.6511 16.7837C49.5548 16.5941 49.5128 16.3817 49.5296 16.1697C49.5464 15.9577 49.6214 15.7545 49.7463 15.5825C49.8712 15.4104 50.0412 15.2761 50.2375 15.1945L52.052 14.4415C52.3349 14.3243 52.6528 14.3243 52.9358 14.4415L62.052 18.209L55.8335 20.7903Z" fill="white" stroke="#474747" stroke-linecap="round" stroke-linejoin="round"/>
<path d="M44.6832 25.4185C44.4276 25.525 44.2247 25.7286 44.1188 25.9846C44.013 26.2405 44.013 26.528 44.1187 26.784L44.431 27.535C46.5454 28.5183 48.8412 29.0514 51.1726 29.1004C53.504 29.1493 55.8202 28.713 57.974 27.8192L75.575 20.5115C75.9813 20.3427 76.3365 20.0707 76.6054 19.7225C76.8743 19.3743 77.0475 18.9618 77.108 18.526C77.1685 18.0902 77.1141 17.6462 76.9502 17.2379C76.7862 16.8296 76.5185 16.4712 76.1735 16.1982C75.2185 15.435 74.0774 14.9403 72.8676 14.7649C71.6577 14.5896 70.4231 14.74 69.2907 15.2007L50.2992 23.0895C50.0915 23.1755 49.8631 23.199 49.6421 23.1572C49.4212 23.1153 49.2172 23.01 49.0552 22.854L46.0417 19.9522C45.88 19.7959 45.676 19.6903 45.455 19.6484C45.2339 19.6066 45.0055 19.6303 44.7977 19.7167L43.7512 20.1517C43.6112 20.2097 43.4839 20.2947 43.3768 20.4019C43.2696 20.5092 43.1846 20.6364 43.1267 20.7765C43.0688 20.9166 43.0391 21.0668 43.0393 21.2183C43.0395 21.3699 43.0695 21.52 43.1277 21.66L44.6832 25.4185Z" stroke="#474747" stroke-linecap="round" stroke-linejoin="round"/>
<path d="M56.1995 33.9403C56.1511 34.1472 56.1607 34.3635 56.2272 34.5654C56.2937 34.7672 56.4145 34.9468 56.5765 35.0845C56.7384 35.2221 56.9352 35.3124 57.1451 35.3455C57.3551 35.3786 57.5701 35.3532 57.7665 35.272L59.58 34.519C59.7202 34.4608 59.8475 34.3755 59.9547 34.268C60.0618 34.1605 60.1467 34.0329 60.2045 33.8925L65.1012 22.0463L58.3462 24.8503L56.1995 33.9403Z" fill="white" stroke="#474747" stroke-linecap="round" stroke-linejoin="round"/>
<path d="M71.8453 17.6043C71.4587 17.7624 71.0448 17.8429 70.6271 17.841C70.2095 17.8392 69.7963 17.7551 69.4111 17.5935C69.026 17.432 68.6765 17.1961 68.3825 16.8995C68.0885 16.6028 67.8558 16.2511 67.6977 15.8646L68.3303 15.6013L69.3708 15.1763C70.4309 14.7615 71.5777 14.6173 72.7076 14.7566C73.8374 14.8959 74.9148 15.3144 75.8425 15.9743L71.8453 17.6043Z" fill="white"/>
<path d="M71.8453 17.6043C71.4587 17.7624 71.0448 17.8429 70.6271 17.841C70.2095 17.8392 69.7963 17.7551 69.4111 17.5935C69.026 17.432 68.6765 17.1961 68.3825 16.8995C68.0885 16.6028 67.8558 16.2511 67.6977 15.8646L68.3303 15.6013L69.3708 15.1763C70.4309 14.7615 71.5777 14.6173 72.7076 14.7566C73.8374 14.8959 74.9148 15.3144 75.8425 15.9743L71.8453 17.6043Z" stroke="#474747" stroke-linecap="round" stroke-linejoin="round"/>
<path d="M15.9863 80.6383C15.9863 80.9016 16.4703 81.1623 17.4108 81.4056C18.3513 81.6489 19.7297 81.8699 21.4675 82.0561C23.2053 82.2423 25.2683 82.3899 27.5388 82.4907C29.8093 82.5915 32.2428 82.6433 34.7004 82.6433C37.158 82.6433 39.5915 82.5915 41.862 82.4907C44.1325 82.3899 46.1955 82.2423 47.9333 82.0561C49.671 81.8699 51.0495 81.6489 51.99 81.4056C52.9304 81.1623 53.4145 80.9016 53.4145 80.6383C53.4145 80.375 52.9304 80.1143 51.99 79.871C51.0495 79.6278 49.671 79.4067 47.9333 79.2206C46.1955 79.0344 44.1325 78.8867 41.862 78.7859C39.5915 78.6852 37.158 78.6333 34.7004 78.6333C32.2428 78.6333 29.8093 78.6852 27.5388 78.7859C25.2683 78.8867 23.2053 79.0344 21.4675 79.2206C19.7297 79.4067 18.3513 79.6278 17.4108 79.871C16.4703 80.1143 15.9863 80.375 15.9863 80.6383Z" fill="#D9D9D9"/>
<path d="M15.8525 39.199H54.35V79.3015H15.8525V39.199Z" fill="white"/>
<path d="M15.8525 39.199H54.35V79.3015H15.8525V39.199Z" stroke="#474747" stroke-linecap="round" stroke-linejoin="round"/>
<path d="M38.9158 55.2397H31.287C31.156 55.2397 31.0263 55.2139 30.9053 55.1638C30.7843 55.1137 30.6743 55.0402 30.5817 54.9476C30.489 54.8549 30.4156 54.745 30.3654 54.624C30.3153 54.5029 30.2895 54.3732 30.2895 54.2422V39.199H39.9135V54.2422C39.9135 54.3732 39.8877 54.5029 39.8376 54.624C39.7874 54.745 39.714 54.8549 39.6213 54.9476C39.5287 55.0402 39.4188 55.1137 39.2977 55.1638C39.1767 55.2139 39.047 55.2397 38.916 55.2397H38.9158Z" fill="#FDB728" stroke="#474747" stroke-linecap="round" stroke-linejoin="round"/>
<path d="M23.8725 68.0728V75.2918" stroke="#474747" stroke-linecap="round" stroke-linejoin="round"/>
<path d="M20.6645 71.2808L23.8725 68.0728L27.0805 71.2808" stroke="#474747" stroke-linecap="round" stroke-linejoin="round"/>
<path d="M33.4973 68.0728V75.2918" stroke="#474747" stroke-linecap="round" stroke-linejoin="round"/>
<path d="M30.2895 71.2808L33.4975 68.0728L36.7055 71.2808" stroke="#474747" stroke-linecap="round" stroke-linejoin="round"/>
</svg>
