<svg width="100" height="100" viewBox="0 0 100 100" fill="none" xmlns="http://www.w3.org/2000/svg">
<path d="M47.1382 89.0082C53.5702 89.0082 58.784 88.1612 58.784 87.117C58.784 86.0727 53.57 85.2257 47.1382 85.2257C40.7065 85.2257 35.4925 86.0727 35.4925 87.117C35.4925 88.1612 40.7065 89.0082 47.1382 89.0082Z" fill="#FDB728"/>
<path d="M40.0778 32.5127L21.5213 36.5207C20.115 36.8245 18.887 37.6745 18.1074 38.8837C17.3277 40.0928 17.0602 41.5621 17.3638 42.9684L24.9508 78.0964C25.1011 78.7928 25.3871 79.4528 25.7926 80.0386C26.198 80.6244 26.7148 81.1246 27.3135 81.5107C27.9123 81.8968 28.5812 82.1611 29.2821 82.2886C29.983 82.4162 30.7022 82.4044 31.3985 82.2539L49.956 78.2459C51.3623 77.9421 52.5903 77.0921 53.3699 75.883C54.1496 74.6738 54.4171 73.2045 54.1135 71.7982L46.5265 36.6702C46.3762 35.9738 46.0902 35.3139 45.6847 34.7281C45.2793 34.1422 44.7625 33.642 44.1638 33.2559C43.565 32.8699 42.8961 32.6055 42.1952 32.478C41.4943 32.3505 40.7751 32.3623 40.0788 32.5127H40.0778Z" fill="white"/>
<path d="M40.0778 32.5127L21.5213 36.5207C20.115 36.8245 18.887 37.6745 18.1074 38.8837C17.3277 40.0928 17.0602 41.5621 17.3638 42.9684L24.9508 78.0964C25.1011 78.7928 25.3872 79.4528 25.7926 80.0386C26.198 80.6244 26.7148 81.1246 27.3135 81.5107C27.9123 81.8968 28.5812 82.1611 29.2821 82.2886C29.983 82.4162 30.7022 82.4044 31.3985 82.2539L49.956 78.2459C51.3623 77.9421 52.5903 77.0921 53.3699 75.883C54.1496 74.6738 54.4171 73.2045 54.1135 71.7982L46.5265 36.6702C46.3762 35.9738 46.0902 35.3139 45.6847 34.7281C45.2793 34.1422 44.7625 33.642 44.1638 33.2559C43.565 32.8699 42.8961 32.6055 42.1952 32.478C41.4943 32.3505 40.7751 32.3623 40.0788 32.5127H40.0778Z" stroke="#474747" stroke-linecap="round" stroke-linejoin="round"/>
<path d="M52.0868 75.0303C52.1622 75.3787 52.1682 75.7385 52.1045 76.0892C52.0409 76.4399 51.9088 76.7747 51.7157 77.0743C51.5227 77.374 51.2725 77.6327 50.9795 77.8356C50.6865 78.0386 50.3564 78.1819 50.008 78.2573L31.4465 82.273C31.0982 82.3484 30.7384 82.3545 30.3878 82.2908C30.0371 82.2271 29.7025 82.095 29.4029 81.9019C29.1033 81.7089 28.8447 81.4587 28.6418 81.1657C28.4389 80.8727 28.2958 80.5426 28.2205 80.1943L22.9138 55.6618L46.779 50.4988L52.0868 75.0303Z" fill="#FDB728" stroke="#474747" stroke-linecap="round" stroke-linejoin="round"/>
<path d="M42.5498 43.7775L23.9843 47.7955C23.281 47.9475 22.6668 48.3727 22.277 48.9775C21.8872 49.5823 21.7535 50.3172 21.9055 51.0205L22.7663 54.9995C22.8416 55.3477 22.9849 55.6777 23.1878 55.9706C23.3907 56.2635 23.6494 56.5136 23.9489 56.7065C24.2485 56.8995 24.5831 57.0315 24.9337 57.0951C25.2843 57.1587 25.644 57.1526 25.9923 57.0772L44.5578 53.0612C44.9061 52.986 45.2362 52.8428 45.5292 52.6399C45.8222 52.437 46.0724 52.1784 46.2654 51.8789C46.4585 51.5793 46.5906 51.2446 46.6543 50.894C46.7179 50.5433 46.7119 50.1836 46.6365 49.8352L45.7758 45.8562C45.7004 45.508 45.5571 45.178 45.3542 44.8851C45.1513 44.5922 44.8926 44.3422 44.5931 44.1492C44.2935 43.9563 43.9589 43.8242 43.6083 43.7606C43.2577 43.697 42.898 43.7031 42.5498 43.7785V43.7775Z" fill="#FDB728"/>
<path d="M45.4185 57.0392C45.4562 57.2134 45.4592 57.3933 45.4274 57.5686C45.3956 57.7439 45.3295 57.9113 45.233 58.0611C45.1364 58.2109 45.0113 58.3402 44.8648 58.4416C44.7183 58.543 44.5532 58.6146 44.379 58.6522L28.466 62.0945C28.1143 62.1705 27.7468 62.1037 27.4443 61.9088C27.1418 61.7139 26.9292 61.4068 26.8531 61.0551C26.7771 60.7034 26.8439 60.3359 27.0388 60.0334C27.2337 59.7309 27.5408 59.5183 27.8925 59.4422L43.8055 56C43.9797 55.9622 44.1596 55.9592 44.3349 55.9911C44.5102 56.0229 44.6776 56.089 44.8274 56.1855C44.9772 56.282 45.1065 56.4071 45.2079 56.5537C45.3093 56.7002 45.3809 56.8653 45.4185 57.0395V57.0392Z" fill="white" stroke="#474747" stroke-linecap="round" stroke-linejoin="round"/>
<path d="M36.6932 77.6668L33.3775 78.384C33.0291 78.4599 32.6692 78.4663 32.3183 78.4029C31.9674 78.3395 31.6325 78.2075 31.3327 78.0145C31.0329 77.8215 30.774 77.5713 30.571 77.2782C30.368 76.9851 30.2248 76.6548 30.1495 76.3063C30.1306 76.2192 30.129 76.1292 30.1449 76.0415C30.1608 75.9537 30.1938 75.87 30.2421 75.795C30.2903 75.7201 30.3529 75.6554 30.4262 75.6046C30.4995 75.5539 30.5821 75.5181 30.6692 75.4993L35.974 74.3523L36.6932 77.667V77.6668Z" fill="white" stroke="#474747" stroke-linecap="round" stroke-linejoin="round"/>
<path d="M42.6065 72.9175L35.976 74.352L36.6933 77.6667L43.3238 76.2322L42.6065 72.9175Z" fill="white" stroke="#474747" stroke-linecap="round" stroke-linejoin="round"/>
<path d="M48.7173 72.2893C48.7927 72.6375 48.7987 72.9972 48.7351 73.3478C48.6715 73.6984 48.5395 74.033 48.3465 74.3326C48.1536 74.6322 47.9035 74.8908 47.6106 75.0937C47.3178 75.2966 46.9878 75.4399 46.6395 75.5153L43.3238 76.2325L42.6065 72.9178L47.9113 71.7698C48.0871 71.7318 48.2707 71.7653 48.4219 71.8628C48.573 71.9602 48.6793 72.1135 48.7173 72.2893Z" fill="white" stroke="#474747" stroke-linecap="round" stroke-linejoin="round"/>
<path d="M42.5498 43.7775L23.9843 47.7955C23.281 47.9475 22.6668 48.3727 22.277 48.9775C21.8872 49.5823 21.7535 50.3172 21.9055 51.0205L22.7663 54.9995C22.8416 55.3477 22.9849 55.6777 23.1878 55.9706C23.3907 56.2635 23.6494 56.5136 23.9489 56.7065C24.2485 56.8995 24.5831 57.0315 24.9337 57.0951C25.2843 57.1587 25.644 57.1526 25.9923 57.0772L44.5578 53.0612C44.9061 52.986 45.2362 52.8428 45.5292 52.6399C45.8222 52.437 46.0724 52.1784 46.2654 51.8789C46.4585 51.5793 46.5906 51.2446 46.6543 50.894C46.7179 50.5433 46.7119 50.1836 46.6365 49.8352L45.7758 45.8562C45.7004 45.508 45.5571 45.178 45.3542 44.8851C45.1513 44.5922 44.8926 44.3422 44.5931 44.1492C44.2935 43.9563 43.9589 43.8242 43.6083 43.7606C43.2577 43.697 42.898 43.7031 42.5498 43.7785V43.7775Z" stroke="#474747" stroke-linecap="round" stroke-linejoin="round"/>
<path d="M40.828 35.8215L22.2625 39.8375C22.0883 39.8751 21.9232 39.9467 21.7767 40.0481C21.6302 40.1496 21.5051 40.2789 21.4085 40.4287C21.312 40.5785 21.2459 40.7458 21.2141 40.9211C21.1822 41.0965 21.1853 41.2764 21.223 41.4505L21.5102 42.7773C21.5478 42.9515 21.6194 43.1165 21.7208 43.2631C21.8223 43.4096 21.9516 43.5347 22.1014 43.6312C22.2511 43.7278 22.4185 43.7938 22.5938 43.8257C22.7692 43.8575 22.9491 43.8545 23.1232 43.8168L41.6887 39.7998C41.8629 39.7622 42.028 39.6906 42.1745 39.5892C42.321 39.4878 42.4461 39.3585 42.5427 39.2087C42.6392 39.0589 42.7053 38.8915 42.7371 38.7162C42.769 38.5408 42.7659 38.361 42.7282 38.1868L42.441 36.86C42.4033 36.6859 42.3316 36.521 42.2301 36.3746C42.1287 36.2281 41.9993 36.1032 41.8496 36.0067C41.6998 35.9103 41.5325 35.8443 41.3572 35.8125C41.1819 35.7808 41.0021 35.7838 40.828 35.8215Z" fill="#FDB728" stroke="#474747" stroke-linecap="round" stroke-linejoin="round"/>
<path d="M24.834 43.4455L40.0838 40.1467L37.3585 27.5482C37.2455 27.0258 37.0307 26.5308 36.7264 26.0914C36.422 25.652 36.0341 25.2768 35.5848 24.9874C35.1355 24.6979 34.6335 24.4998 34.1076 24.4043C33.5817 24.3088 33.0422 24.3179 32.5198 24.431L21.248 26.869L17.9323 27.5862C18.368 27.4912 18.8183 27.483 19.2573 27.5622C19.6962 27.6414 20.1152 27.8065 20.4903 28.0478C20.8654 28.2892 21.1892 28.6022 21.4431 28.9689C21.6971 29.3355 21.8762 29.7487 21.9703 30.1847L24.834 43.4455Z" fill="white"/>
<path d="M24.834 43.4455L40.0838 40.1467L37.3585 27.5482C37.2455 27.0258 37.0307 26.5308 36.7264 26.0914C36.422 25.652 36.0341 25.2768 35.5848 24.9874C35.1355 24.6979 34.6335 24.4998 34.1076 24.4043C33.5817 24.3088 33.0422 24.3179 32.5198 24.431L21.248 26.869L17.9323 27.5862C18.368 27.4912 18.8183 27.483 19.2573 27.5622C19.6962 27.6414 20.1152 27.8065 20.4903 28.0478C20.8654 28.2892 21.1892 28.6022 21.4431 28.9689C21.6971 29.3355 21.8762 29.7487 21.9703 30.1847L24.834 43.4455Z" stroke="#474747" stroke-linecap="round" stroke-linejoin="round"/>
<path d="M21.9703 30.1847C21.87 29.7204 21.6732 29.2823 21.3928 28.8989C21.1124 28.5155 20.7546 28.1952 20.3425 27.9589C19.9304 27.7226 19.4733 27.5754 19.0007 27.527C18.5282 27.4787 18.0507 27.5301 17.5993 27.678C16.7874 27.9745 16.1128 28.5591 15.7038 29.3205C15.2948 30.0819 15.1798 30.9671 15.3808 31.8077L15.6263 32.945C15.6638 33.1192 15.7352 33.2844 15.8366 33.431C15.938 33.5776 16.0673 33.7027 16.2172 33.7993C16.367 33.8958 16.5344 33.9619 16.7098 33.9937C16.8852 34.0255 17.0651 34.0223 17.2393 33.9845L22.544 32.8375L21.9705 30.1852L21.9703 30.1847Z" fill="#FDB728" stroke="#474747" stroke-linecap="round" stroke-linejoin="round"/>
<path d="M39.1633 57.0045L32.5338 58.4388L33.1073 61.09L39.7388 59.6555L39.1643 57.0043L39.1633 57.0045Z" stroke="#474747" stroke-linecap="round" stroke-linejoin="round"/>
<path d="M46.5655 62.343C46.6032 62.5172 46.6062 62.697 46.5744 62.8724C46.5425 63.0477 46.4765 63.2151 46.3799 63.3649C46.2834 63.5147 46.1583 63.644 46.0118 63.7454C45.8653 63.8468 45.7002 63.9184 45.526 63.956L29.613 67.3992C29.4388 67.4372 29.2588 67.4404 29.0834 67.4087C28.908 67.377 28.7405 67.311 28.5907 67.2144C28.4408 67.1178 28.3115 66.9926 28.2101 66.8459C28.1088 66.6993 28.0374 66.5341 28 66.3597C27.9623 66.1856 27.9593 66.0057 27.9911 65.8303C28.0229 65.655 28.089 65.4877 28.1855 65.3379C28.2821 65.1881 28.4072 65.0588 28.5537 64.9573C28.7002 64.8559 28.8653 64.7843 29.0395 64.7467L44.9525 61.3035C45.3042 61.2276 45.6717 61.2945 45.9741 61.4894C46.2766 61.6843 46.4893 61.9913 46.5655 62.343Z" fill="white" stroke="#474747" stroke-linecap="round" stroke-linejoin="round"/>
<path d="M40.3123 62.3073L33.6808 63.7417L34.2543 66.394L40.8858 64.9595L40.3123 62.3073Z" stroke="#474747" stroke-linecap="round" stroke-linejoin="round"/>
<path d="M47.7138 67.6477C47.7896 67.9995 47.7228 68.3669 47.5279 68.6694C47.3329 68.9718 47.0259 69.1845 46.6743 69.2607L30.7613 72.703C30.5871 72.7407 30.4072 72.7438 30.2319 72.712C30.0566 72.6802 29.8892 72.6141 29.7394 72.5177C29.5896 72.4212 29.4602 72.2962 29.3588 72.1497C29.2573 72.0033 29.1856 71.8383 29.1479 71.6641C29.1102 71.49 29.1071 71.3101 29.1389 71.1348C29.1707 70.9594 29.2367 70.7921 29.3332 70.6423C29.4296 70.4924 29.5547 70.3631 29.7011 70.2616C29.8476 70.1601 30.0126 70.0885 30.1868 70.0507L46.1008 66.6085C46.2749 66.5708 46.4548 66.5677 46.6302 66.5996C46.8055 66.6314 46.9728 66.6975 47.1226 66.794C47.2724 66.8906 47.4017 67.0157 47.5032 67.1622C47.6046 67.3087 47.6761 67.4738 47.7138 67.648V67.6477Z" fill="white" stroke="#474747" stroke-linecap="round" stroke-linejoin="round"/>
<path d="M41.4595 67.6128L34.829 69.0473L35.4025 71.6995L42.033 70.264L41.4595 67.6128Z" stroke="#474747" stroke-linecap="round" stroke-linejoin="round"/>
<path d="M59.7315 66.4357C59.9596 67.4909 59.7592 68.5934 59.1744 69.5008C58.5896 70.4083 57.6684 71.0462 56.6133 71.2745L54.1655 71.8042L46.5625 36.6622L49.0112 36.1325C49.5337 36.0194 50.0733 36.0104 50.5993 36.1059C51.1253 36.2014 51.6273 36.3997 52.0766 36.6892C52.5259 36.9788 52.9138 37.3541 53.2181 37.7936C53.5224 38.2331 53.7371 38.7282 53.85 39.2507L59.7313 66.4355L59.7315 66.4357Z" fill="#FDB728" stroke="#474747" stroke-linecap="round" stroke-linejoin="round"/>
<path d="M49.0115 36.1328L56.6135 71.2748" stroke="#474747" stroke-linecap="round" stroke-linejoin="round"/>
<path d="M57.6317 11.7597L74.702 8.16775C75.8241 7.9318 76.994 8.1512 77.9544 8.77768C78.9148 9.40417 79.587 10.3864 79.8232 11.5085L86.4167 42.842C86.5345 43.3979 86.5414 43.9716 86.4372 44.5302C86.3331 45.0888 86.1198 45.6214 85.8096 46.0975C85.4994 46.5736 85.0984 46.9839 84.6295 47.3049C84.1606 47.6259 83.6331 47.8513 83.077 47.9682L66.0077 51.5592C65.4522 51.6762 64.879 51.6826 64.321 51.5781C63.763 51.4736 63.231 51.2601 62.7554 50.95C62.2799 50.6399 61.8701 50.2391 61.5494 49.7706C61.2287 49.3021 61.0035 48.7751 60.8865 48.2195L54.292 16.881C54.0563 15.759 54.2759 14.5894 54.9023 13.6292C55.5288 12.6691 56.5109 11.997 57.6327 11.7607V11.7597H57.6317Z" fill="white"/>
<path d="M60.5157 16.6425L62.0957 24.1527" stroke="#474747" stroke-linecap="round" stroke-linejoin="round"/>
<path d="M69.7215 14.7055L67.078 15.262C66.9064 15.298 66.7437 15.3676 66.599 15.4665C66.4543 15.5655 66.3306 15.692 66.2348 15.8388C66.139 15.9856 66.0731 16.1499 66.0407 16.3222C66.0084 16.4945 66.0104 16.6714 66.0465 16.843L67.077 21.7407C67.1501 22.087 67.3577 22.3901 67.6541 22.5833C67.9506 22.7766 68.3117 22.8441 68.658 22.7712L71.3015 22.2147C71.6477 22.1419 71.9509 21.9345 72.1443 21.6382C72.3377 21.342 72.4056 20.981 72.333 20.6347L71.3025 15.737C71.2664 15.5654 71.1969 15.4027 71.0979 15.258C70.999 15.1133 70.8724 14.9895 70.7256 14.8938C70.5788 14.798 70.4146 14.732 70.2423 14.6997C70.07 14.6674 69.893 14.6694 69.7215 14.7055Z" fill="#FDB728" stroke="#474747" stroke-linecap="round" stroke-linejoin="round"/>
<path d="M57.6317 11.7597L74.702 8.16775C75.8241 7.9318 76.994 8.1512 77.9544 8.77768C78.9148 9.40417 79.587 10.3864 79.8232 11.5085L86.4167 42.842C86.5345 43.3979 86.5414 43.9716 86.4372 44.5302C86.3331 45.0888 86.1198 45.6214 85.8096 46.0975C85.4994 46.5736 85.0984 46.9839 84.6295 47.3049C84.1606 47.6259 83.6331 47.8513 83.077 47.9682L66.0077 51.5592C65.4522 51.6762 64.879 51.6826 64.321 51.5781C63.763 51.4736 63.231 51.2601 62.7554 50.95C62.2799 50.6399 61.8701 50.2391 61.5494 49.7706C61.2287 49.3021 61.0035 48.7751 60.8865 48.2195L54.292 16.881C54.0563 15.759 54.2759 14.5894 54.9023 13.6292C55.5288 12.6691 56.5109 11.997 57.6327 11.7607V11.7597H57.6317Z" stroke="#474747" stroke-linecap="round" stroke-linejoin="round"/>
<path d="M67.194 41.7995C67.7987 41.7995 68.3974 41.6804 68.9561 41.449C69.5147 41.2176 70.0223 40.8784 70.4499 40.4508C70.8774 40.0233 71.2166 39.5157 71.448 38.957C71.6794 38.3984 71.7985 37.7996 71.7985 37.195C71.7985 36.5903 71.6794 35.9915 71.448 35.4329C71.2166 34.8742 70.8774 34.3666 70.4499 33.9391C70.0223 33.5115 69.5147 33.1724 68.9561 32.941C68.3974 32.7096 67.7987 32.5905 67.194 32.5905C65.9728 32.5905 64.8016 33.0756 63.9381 33.9391C63.0746 34.8026 62.5895 35.9738 62.5895 37.195C62.5895 38.4161 63.0746 39.5873 63.9381 40.4508C64.8016 41.3143 65.9728 41.7995 67.194 41.7995Z" fill="#FDB728"/>
<path d="M68.3002 47.0565C69.5214 47.0565 70.6926 46.5714 71.5561 45.7079C72.4196 44.8444 72.9047 43.6732 72.9047 42.452C72.9047 41.2308 72.4196 40.0597 71.5561 39.1962C70.6926 38.3326 69.5214 37.8475 68.3002 37.8475C67.079 37.8475 65.9079 38.3326 65.0444 39.1962C64.1809 40.0597 63.6957 41.2308 63.6957 42.452C63.6957 43.6732 64.1809 44.8444 65.0444 45.7079C65.9079 46.5714 67.079 47.0565 68.3002 47.0565Z" fill="#FDB728"/>
<path d="M67.3565 37.9463C66.6413 38.0964 65.9721 38.4149 65.4045 38.8753C64.8369 39.3356 64.3873 39.9247 64.0927 40.5935C64.6321 41.0865 65.2811 41.444 65.986 41.6365C66.691 41.8289 67.4316 41.8508 68.1467 41.7003C68.8617 41.5498 69.5307 41.2312 70.0982 40.7709C70.6658 40.3106 71.1156 39.7218 71.4105 39.0533C70.8713 38.56 70.2224 38.2023 69.5174 38.0097C68.8125 37.8172 68.0718 37.7953 67.3567 37.946L67.3565 37.9463Z" fill="white"/>
<path d="M67.194 41.7995C67.7987 41.7995 68.3974 41.6804 68.9561 41.449C69.5147 41.2176 70.0223 40.8784 70.4499 40.4508C70.8774 40.0233 71.2166 39.5157 71.448 38.957C71.6794 38.3984 71.7985 37.7996 71.7985 37.195C71.7985 36.5903 71.6794 35.9915 71.448 35.4329C71.2166 34.8742 70.8774 34.3666 70.4499 33.9391C70.0223 33.5115 69.5147 33.1724 68.9561 32.941C68.3974 32.7096 67.7987 32.5905 67.194 32.5905C65.9728 32.5905 64.8016 33.0756 63.9381 33.9391C63.0746 34.8026 62.5895 35.9738 62.5895 37.195C62.5895 38.4161 63.0746 39.5873 63.9381 40.4508C64.8016 41.3143 65.9728 41.7995 67.194 41.7995Z" stroke="#474747" stroke-linecap="round" stroke-linejoin="round"/>
<path d="M68.3002 47.0565C69.5214 47.0565 70.6926 46.5714 71.5561 45.7079C72.4196 44.8444 72.9047 43.6732 72.9047 42.452C72.9047 41.2308 72.4196 40.0597 71.5561 39.1962C70.6926 38.3326 69.5214 37.8475 68.3002 37.8475C67.079 37.8475 65.9079 38.3326 65.0444 39.1962C64.1809 40.0597 63.6957 41.2308 63.6957 42.452C63.6957 43.6732 64.1809 44.8444 65.0444 45.7079C65.9079 46.5714 67.079 47.0565 68.3002 47.0565Z" stroke="#474747" stroke-linecap="round" stroke-linejoin="round"/>
</svg>
