<svg width="100" height="100" viewBox="0 0 100 100" fill="none" xmlns="http://www.w3.org/2000/svg">
<path d="M28.2705 83.7485C28.2705 84.3033 30.7678 84.8353 35.2131 85.2276C39.6584 85.6199 45.6875 85.8403 51.9741 85.8403C58.2607 85.8403 64.2898 85.6199 68.7351 85.2276C73.1804 84.8353 75.6778 84.3033 75.6778 83.7485C75.6778 83.4738 75.0646 83.2018 73.8734 82.948C72.6822 82.6942 70.9362 82.4636 68.7351 82.2694C66.534 82.0752 63.921 81.9211 61.0451 81.816C58.1693 81.7108 55.0869 81.6567 51.9741 81.6567C48.8613 81.6567 45.779 81.7108 42.9031 81.816C40.0273 81.9211 37.4142 82.0752 35.2131 82.2694C33.0121 82.4636 31.2661 82.6942 30.0748 82.948C28.8836 83.2018 28.2705 83.4738 28.2705 83.7485Z" fill="#FDB728"/>
<path d="M35.9353 19.26H63.8253L74.9803 30.415V70.8478C74.9803 71.2181 74.8331 71.5733 74.5712 71.8352C74.3093 72.0971 73.9541 72.2443 73.5838 72.2443H35.9353C35.7519 72.2443 35.5703 72.2081 35.4008 72.138C35.2314 72.0678 35.0775 71.9649 34.9478 71.8352C34.8181 71.7056 34.7152 71.5516 34.6451 71.3822C34.5749 71.2127 34.5388 71.0311 34.5388 70.8478V20.6545C34.5393 20.2845 34.6867 19.9298 34.9485 19.6683C35.2103 19.4069 35.5652 19.26 35.9353 19.26Z" fill="white"/>
<path d="M35.9353 19.26H63.8253L74.9803 30.415V70.8478C74.9803 71.2181 74.8331 71.5733 74.5712 71.8352C74.3093 72.0971 73.9541 72.2443 73.5838 72.2443H35.9353C35.7519 72.2443 35.5703 72.2081 35.4008 72.138C35.2314 72.0678 35.0775 71.9649 34.9478 71.8352C34.8181 71.7056 34.7152 71.5516 34.6451 71.3822C34.5749 71.2127 34.5388 71.0311 34.5388 70.8478V20.6545C34.5393 20.2845 34.6867 19.9298 34.9485 19.6683C35.2103 19.4069 35.5652 19.26 35.9353 19.26Z" stroke="#474747" stroke-linecap="round" stroke-linejoin="round"/>
<path d="M74.9805 30.415L63.8253 19.26V29.0205C63.8253 29.2039 63.8614 29.3855 63.9316 29.5549C64.0017 29.7244 64.1046 29.8783 64.2343 30.008C64.364 30.1377 64.5179 30.2405 64.6873 30.3107C64.8568 30.3809 65.0384 30.417 65.2218 30.417L74.9805 30.415Z" fill="white" stroke="#474747" stroke-linecap="round" stroke-linejoin="round"/>
<path d="M22.6925 61.0903C22.6925 63.196 23.1073 65.2811 23.9131 67.2266C24.7189 69.172 25.9 70.9397 27.389 72.4287C28.878 73.9176 30.6457 75.0988 32.5911 75.9046C34.5365 76.7104 36.6217 77.1252 38.7274 77.1252C40.8331 77.1252 42.9182 76.7104 44.8637 75.9046C46.8091 75.0988 48.5768 73.9176 50.0657 72.4287C51.5547 70.9397 52.7358 69.172 53.5417 67.2266C54.3475 65.2811 54.7623 63.196 54.7623 61.0903C54.7623 56.8376 53.0729 52.759 50.0657 49.7519C47.0586 46.7448 42.9801 45.0554 38.7274 45.0554C34.4747 45.0554 30.3961 46.7448 27.389 49.7519C24.3819 52.759 22.6925 56.8376 22.6925 61.0903Z" fill="#FDB728" stroke="#474747" stroke-linecap="round" stroke-linejoin="round"/>
<path d="M26.1787 61.0902C26.1787 64.4183 27.5008 67.6101 29.8541 69.9634C32.2074 72.3167 35.3992 73.6387 38.7272 73.6387C42.0553 73.6387 45.2471 72.3167 47.6004 69.9634C49.9537 67.6101 51.2757 64.4183 51.2757 61.0902C51.2757 57.7622 49.9537 54.5704 47.6004 52.2171C45.2471 49.8638 42.0553 48.5417 38.7272 48.5417C35.3992 48.5417 32.2074 49.8638 29.8541 52.2171C27.5008 54.5704 26.1787 57.7622 26.1787 61.0902Z" fill="white"/>
<path d="M26.1787 61.0902C26.1787 64.4183 27.5008 67.6101 29.8541 69.9634C32.2074 72.3167 35.3992 73.6387 38.7272 73.6387C42.0553 73.6387 45.2471 72.3167 47.6004 69.9634C49.9537 67.6101 51.2757 64.4183 51.2757 61.0902C51.2757 57.7622 49.9537 54.5704 47.6004 52.2171C45.2471 49.8638 42.0553 48.5417 38.7272 48.5417C35.3992 48.5417 32.2074 49.8638 29.8541 52.2171C27.5008 54.5704 26.1787 57.7622 26.1787 61.0902Z" stroke="#474747" stroke-linecap="round" stroke-linejoin="round"/>
<path d="M42.028 26.2314H57.3655" stroke="#474747" stroke-linecap="round" stroke-linejoin="round"/>
<path d="M42.028 31.1123H57.3655" stroke="#474747" stroke-linecap="round" stroke-linejoin="round"/>
<path d="M42.028 35.9919H67.8232" stroke="#474747" stroke-linecap="round" stroke-linejoin="round"/>
<path d="M42.028 40.8719H67.8232" stroke="#474747" stroke-linecap="round" stroke-linejoin="round"/>
<path d="M53.183 45.7528H67.8233" stroke="#474747" stroke-linecap="round" stroke-linejoin="round"/>
<path d="M57.3655 50.6324H67.8232" stroke="#474747" stroke-linecap="round" stroke-linejoin="round"/>
<path d="M59.4572 55.5132H67.8232" stroke="#474747" stroke-linecap="round" stroke-linejoin="round"/>
<path d="M60.1545 60.3929H67.8232" stroke="#474747" stroke-linecap="round" stroke-linejoin="round"/>
<path d="M59.4572 65.2727H67.8232" stroke="#474747" stroke-linecap="round" stroke-linejoin="round"/>
<path d="M36.442 67.3645C36.1982 67.3647 35.9567 67.3167 35.7314 67.2234C35.5062 67.1301 35.3015 66.9933 35.1292 66.8208L31.4175 63.108C31.0788 62.7583 30.891 62.2895 30.8948 61.8027C30.8986 61.3159 31.0936 60.8501 31.4377 60.5057C31.7818 60.1613 32.2475 59.9661 32.7344 59.9619C33.2212 59.9578 33.6901 60.1452 34.04 60.4838L36.44 62.8838L42.5527 56.771C42.7244 56.5957 42.9292 56.4563 43.1551 56.3606C43.381 56.265 43.6237 56.2151 43.869 56.2138C44.1144 56.2125 44.3575 56.2598 44.5844 56.3531C44.8114 56.4464 45.0175 56.5837 45.1911 56.7572C45.3646 56.9306 45.502 57.1368 45.5954 57.3636C45.6887 57.5905 45.7362 57.8337 45.735 58.079C45.7338 58.3244 45.684 58.567 45.5884 58.793C45.4928 59.019 45.3534 59.2237 45.1782 59.3955L37.7527 66.821C37.5807 66.9933 37.3764 67.13 37.1515 67.2233C36.9266 67.3166 36.6855 67.3647 36.442 67.3648V67.3645Z" fill="#FDB728" stroke="#474747"/>
</svg>
