<svg width="242" height="30" viewBox="0 0 242 30" fill="none" xmlns="http://www.w3.org/2000/svg">
<g clip-path="url(#clip0_3_26)">
<path d="M31.9055 0V30H23.5239L8.44558 12.6363V30H0V0H7.80576L23.4599 17.885V0H31.9055Z" fill="#263238"/>
<path d="M47.5811 0V6.32714H72.7898V0H47.5811ZM47.5811 18.2984H72.7898V11.9712H47.5811V18.2984ZM47.5811 30H72.7898V23.6729H47.5811V30Z" fill="#263238"/>
<path d="M123.677 0H113.525L107.703 7.36968H117.556L123.677 0Z" fill="#FDB728"/>
<path d="M106.149 8.73577L98.8342 0H88.7891L100.924 14.6135L88 30H98.0451L105.872 20.4554L113.849 30H123.958L106.149 8.73577Z" fill="#263238"/>
<path d="M140.141 0V6.32714H165.35V0H140.141ZM140.141 18.2984H165.35V11.9712H140.141V18.2984ZM140.141 30H165.35V23.6729H140.141V30Z" fill="#263238"/>
<path d="M203.696 23.6729V30H181.068V0H189.492V23.6729H203.696Z" fill="#263238"/>
<path d="M242 23.6729V30H219.372V0H227.796V23.6729H242Z" fill="#263238"/>
</g>
<defs>
<clipPath id="clip0_3_26">
<rect width="242" height="30" fill="white"/>
</clipPath>
</defs>
</svg>
