<svg width="48" height="23" viewBox="0 0 48 23" fill="none" xmlns="http://www.w3.org/2000/svg">
<g clip-path="url(#clip0_3_259)">
<path d="M23.2188 5.52351C23.2188 3.82846 23.7771 2.48411 24.8936 1.49047C26.0101 0.496821 27.4205 -7.50047e-07 29.0952 -6.03633e-07C31.0932 -4.28965e-07 32.7386 0.672172 34.0314 1.98729C35.3242 3.30241 36 5.28971 36 7.8615C36 10.2872 35.6474 12.3621 34.9422 14.1156C34.2371 15.8399 33.385 17.3304 32.386 18.5286C31.387 19.756 30.3587 20.7205 29.2715 21.4511C28.2138 22.1817 27.2736 22.7078 26.4509 23L23.6596 19.1423C25.305 18.324 26.5978 17.2427 27.5968 15.8691C28.6251 14.4956 29.0952 12.8005 29.0952 10.7255C28.8014 10.784 28.3901 10.8424 27.8612 10.8424C26.3921 10.8424 25.2462 10.3164 24.4235 9.29352C23.6302 8.27065 23.2188 7.01397 23.2188 5.52351ZM7 5.5235C7 3.82846 7.55826 2.48411 8.67477 1.49047C9.76191 0.49682 11.1722 -2.17051e-06 12.8764 -2.02153e-06C14.8744 -1.84686e-06 16.5198 0.672171 17.8126 1.98729C19.1054 3.30241 19.7518 5.26048 19.7518 7.83227C19.7518 10.2579 19.3992 12.3329 18.694 14.0864C17.9889 15.8107 17.1368 17.3011 16.1378 18.4994C15.1388 19.7268 14.1104 20.6912 13.0233 21.4219C11.9949 22.1817 11.0253 22.7077 10.232 23L7.47011 19.1423C9.1155 18.324 10.4083 17.2427 11.4073 15.8691C12.3769 14.4955 12.8764 12.8005 12.8764 10.7255C12.5826 10.784 12.1712 10.8424 11.6424 10.8424C10.1733 10.8424 8.99797 10.3164 8.20466 9.29352C7.41135 8.27064 7 7.01397 7 5.5235Z" fill="#FDB728"/>
</g>
<defs>
<clipPath id="clip0_3_259">
<rect width="48" height="23" fill="white" transform="translate(48 23) rotate(-180)"/>
</clipPath>
</defs>
</svg>
