<svg width="21" height="22" viewBox="0 0 21 22" fill="none" xmlns="http://www.w3.org/2000/svg">
<path d="M0.191406 21.4246L1.67053 15.9082C0.833975 14.3927 0.397513 12.7075 0.397513 10.9859C0.397513 5.37248 4.96824 0.801758 10.5816 0.801758C16.195 0.801758 20.7657 5.37248 20.7657 10.9859C20.7657 16.5992 16.195 21.17 10.5816 21.17C8.89639 21.17 7.23541 20.7456 5.74417 19.9333L0.191406 21.4246ZM6.01089 17.8723L6.36249 18.0784C7.64763 18.8422 9.1025 19.2423 10.5816 19.2423C15.1402 19.2423 18.838 15.5323 18.838 10.9859C18.838 6.43939 15.1281 2.72946 10.5816 2.72946C6.02302 2.72946 2.32522 6.43939 2.32522 10.9859C2.32522 12.4892 2.73743 13.9683 3.53761 15.2656L3.75584 15.6172L2.93141 18.6967L6.01089 17.8723Z" fill="white"/>
<path fill-rule="evenodd" clip-rule="evenodd" d="M14.3644 12.4048C13.9401 12.1502 13.3945 11.8714 12.9095 12.0775C12.5337 12.2351 12.2912 12.8292 12.0487 13.1323C11.9275 13.2899 11.7699 13.3141 11.5759 13.2292C10.1574 12.6594 9.06625 11.7138 8.27819 10.4044C8.14483 10.1983 8.16908 10.0407 8.32669 9.84667C8.56917 9.56782 8.86014 9.2526 8.92076 8.87675C8.98138 8.50091 8.81164 8.06445 8.65403 7.72498C8.46005 7.30064 8.2297 6.68232 7.80536 6.43984C7.40527 6.22161 6.89606 6.34285 6.54447 6.6217C5.93827 7.11878 5.6473 7.88259 5.65942 8.65852C5.65942 8.87675 5.68367 9.09499 5.74429 9.30109C5.86553 9.8103 6.09588 10.2831 6.36261 10.7317C6.55659 11.0712 6.77482 11.3985 7.00518 11.7138C7.76899 12.7443 8.71465 13.6415 9.80581 14.3204C10.3514 14.6599 10.9455 14.9508 11.5517 15.157C12.2306 15.3873 12.8489 15.6177 13.5885 15.4843C14.3644 15.3388 15.1282 14.8539 15.4313 14.1143C15.5283 13.8961 15.5647 13.6415 15.5162 13.4111C15.4071 12.9261 14.7524 12.6352 14.3644 12.4048Z" fill="white"/>
</svg>
