<svg width="193" height="44" viewBox="0 0 193 44" fill="none" xmlns="http://www.w3.org/2000/svg">
<path fill-rule="evenodd" clip-rule="evenodd" d="M20.9851 22.0441L21.8731 21.5059L32.8658 29.6117L20.9851 22.0441Z" fill="#474747"/>
<path fill-rule="evenodd" clip-rule="evenodd" d="M20.3523 21.6155L19.5358 21.0993L20.4544 5.61255L20.3523 21.6155Z" fill="#474747"/>
<path fill-rule="evenodd" clip-rule="evenodd" d="M19.3725 21.5605L15.7286 24.8007L20.0971 22.0328L19.3725 21.5605Z" fill="#474747"/>
<path fill-rule="evenodd" clip-rule="evenodd" d="M20.5769 1.02148C9.72706 1.02148 0.939026 10.4893 0.939026 22.1648C0.939026 33.8403 9.73727 43.2971 20.5769 43.2971C31.4267 43.2971 40.2147 33.8293 40.2147 22.1648C40.2249 10.4893 31.4267 1.02148 20.5769 1.02148ZM20.5769 42.1658C16.0859 42.1658 11.8909 40.5512 8.75742 37.5966C5.7158 34.7189 3.34783 30.1498 2.76604 25.2841C4.15416 34.5322 11.5949 41.5836 20.5769 41.5836C30.5387 41.5836 38.6225 32.8957 38.6225 22.1648C38.6225 17.7164 37.0812 13.356 34.7439 10.0829C37.1119 12.0489 39.1634 17.6505 39.1634 22.1648C39.1532 33.2252 30.8449 42.1658 20.5769 42.1658ZM18.8723 20.66L20.4646 3.13032C20.5054 3.13032 20.5463 3.13032 20.5769 3.13032C20.5871 3.13032 20.6075 3.13032 20.6177 3.13032L20.7708 21.5717L23.5062 19.8143L20.7606 3.13032C30.4468 3.22917 38.2652 11.7085 38.2652 22.1648C38.2652 25.5257 37.4589 28.678 36.0401 31.4129L23.7614 20.3525L22.5978 21.0664L35.9483 31.5667C35.9177 31.6326 35.8768 31.6875 35.8462 31.7534L20.832 22.4503V25.7344L35.7441 31.9401C32.6617 37.4868 27.0276 41.1882 20.5769 41.1882C14.1364 41.1882 8.50225 37.4868 5.4096 31.9511L20.3115 25.7015V22.4174L5.28711 31.7204C5.25649 31.6545 5.22587 31.5996 5.18505 31.5337L18.4947 21.0664L17.3311 20.3525L5.09319 31.347C3.69486 28.6231 2.89873 25.4928 2.89873 22.1538C2.89873 11.7853 10.5946 3.36097 20.1788 3.13032L17.7802 19.9461L18.8723 20.66ZM20.5769 2.16377C10.3191 2.16377 2.00053 11.1153 2.00053 22.1538C2.00053 26.6351 3.51113 30.8747 5.81787 34.5432C6.60379 36.1138 7.45095 37.0914 8.5737 38.3764C4.15416 34.5761 1.28606 28.7219 1.28606 22.1538C1.28606 10.687 9.92099 1.39492 20.5667 1.39492C31.2225 1.39492 40.0208 11.0934 39.7044 22.1428C39.4492 11.357 30.6714 2.16377 20.5769 2.16377Z" fill="#474747"/>
<path fill-rule="evenodd" clip-rule="evenodd" d="M106.855 23.5596C106.855 19.8471 105.334 16.8486 101.986 16.8486C98.8833 16.8486 97.1175 19.8581 97.1175 23.5596C97.1175 27.272 98.5873 30.2705 101.986 30.2705C105.283 30.2705 106.253 28.5131 106.753 25.7014L105.62 25.6904C105.528 26.7338 104.895 29.0843 102.466 29.1282C99.6998 29.1831 99.5059 25.3718 99.5569 23.5486L99.608 22.5051C99.608 21.3629 99.5161 17.969 102.078 17.969C104.109 17.969 104.405 20.7807 104.405 22.5051H99.608L99.5569 23.5486H106.855V23.5596Z" fill="#474747"/>
<path fill-rule="evenodd" clip-rule="evenodd" d="M49.5233 12.2246L49.4723 13.0594H50.1969C50.7277 13.0594 51.4116 13.1143 51.4116 13.8392L51.1666 27.975C51.1666 28.4912 50.9216 29.0733 49.952 29.0733H49.2273L49.1763 29.9081H54.0755V29.0733H53.2488C52.616 29.0733 52.1873 28.8646 52.1873 27.975L52.4322 14.4103L57.6683 29.0184H58.1991L63.4862 14.2566L63.7311 27.975C63.7311 28.4473 63.2922 29.0733 62.6186 29.0733H61.5979V29.9081H67.7526V29.0733H67.0279C66.4972 29.0733 65.8644 28.7658 65.8644 28.0299L65.6092 14.0589C65.6092 13.5866 66.0991 13.0703 66.5788 13.0703H67.4974V12.2356H63.0881L58.5359 25.0643L53.9837 12.2356H49.5233V12.2246Z" fill="#474747"/>
<path fill-rule="evenodd" clip-rule="evenodd" d="M83.6139 29.919V29.2381H83.124C82.6851 29.2381 81.9094 29.0843 81.9094 28.1397V21.3079C81.9094 19.1662 82.9301 18.3863 83.9406 18.3863C84.3284 18.3863 84.5734 18.595 84.4713 19.3748C84.3692 20.1547 85.0021 20.6819 85.5328 20.627C86.0636 20.5721 86.7474 20.4732 86.6453 19.0124C86.5433 17.5516 85.7778 16.8706 84.4203 16.8706C83.3588 16.8706 82.481 17.6065 82.236 17.969C81.9502 18.3973 81.6032 18.2326 81.5624 17.7603C81.5113 17.288 81.3174 16.8267 80.8377 16.9804C79.7762 17.3429 78.8065 17.5076 77.9798 17.5516V18.0788C80.0109 17.969 79.817 19.0673 79.817 19.5945V28.1507C79.817 29.0843 79.0413 29.249 78.6024 29.249H77.9185V29.93H83.6139V29.919Z" fill="#474747"/>
<path fill-rule="evenodd" clip-rule="evenodd" d="M94.4127 17.6726C93.6982 17.1124 92.8001 16.7939 91.7079 16.7939C88.6051 16.7939 86.8393 19.8034 86.8393 23.5048C86.8393 27.2173 88.3091 30.2048 91.7079 30.2158C94.7087 30.2268 95.4436 28.4035 95.9437 25.5917L94.8108 25.5807C94.7189 26.6242 94.3719 29.0186 92.1979 29.0735C89.4318 29.1394 89.2379 25.3171 89.2889 23.4938C89.2889 22.3516 89.4318 17.7604 91.759 17.7604C93.7493 17.7604 94.9537 19.2762 94.9537 20.9896H95.5865V16.6072H95.0557L94.4127 17.6726Z" fill="#474747"/>
<path fill-rule="evenodd" clip-rule="evenodd" d="M164.533 29.1392C161.767 29.1941 161.573 25.3828 161.624 23.5596H168.912C168.912 19.8471 167.391 16.8486 164.043 16.8486C160.94 16.8486 159.175 19.8581 159.175 23.5596C159.175 27.272 160.644 30.2705 164.043 30.2705C167.34 30.2705 168.31 28.5131 168.81 25.7014L167.677 25.6904C167.595 26.7448 166.962 29.0843 164.533 29.1392ZM164.145 17.9799C166.177 17.9799 166.473 20.7917 166.473 22.5161H161.675C161.675 21.3738 161.584 17.9799 164.145 17.9799Z" fill="#474747"/>
<path fill-rule="evenodd" clip-rule="evenodd" d="M124.686 29.1392C121.92 29.1941 121.726 25.3828 121.777 23.5596H129.065C129.065 19.8471 127.544 16.8486 124.196 16.8486C121.093 16.8486 119.327 19.8581 119.327 23.5596C119.327 27.272 120.797 30.2705 124.196 30.2705C127.493 30.2705 128.463 28.5131 128.963 25.7014L127.83 25.6904C127.738 26.7448 127.115 29.0843 124.686 29.1392ZM124.298 17.9799C126.329 17.9799 126.625 20.7917 126.625 22.5161H121.828C121.828 21.3738 121.736 17.9799 124.298 17.9799Z" fill="#474747"/>
<path fill-rule="evenodd" clip-rule="evenodd" d="M73.2438 29.1392C70.4778 29.1941 70.2839 25.3828 70.3349 23.5596H77.6226C77.6226 19.8471 76.1017 16.8486 72.7539 16.8486C69.6511 16.8486 67.8853 19.8581 67.8853 23.5596C67.8853 27.272 69.3551 30.2705 72.7539 30.2705C76.0507 30.2705 77.0203 28.5131 77.5205 25.7014L76.3875 25.6904C76.2957 26.7448 75.6731 29.0843 73.2438 29.1392ZM72.856 17.9799C74.8871 17.9799 75.1831 20.7917 75.1831 22.5161H70.3859C70.3859 21.3738 70.2941 17.9799 72.856 17.9799Z" fill="#474747"/>
<path fill-rule="evenodd" clip-rule="evenodd" d="M117.409 27.1951V12.6419C117.409 12.0378 117.123 11.5436 116.633 11.7083C115.571 12.0708 114.602 12.2246 113.775 12.2795V12.7957C115.184 12.6968 115.326 13.1582 115.326 13.6854V18.1666C114.694 17.5406 113.969 16.9145 112.662 16.9145C111.019 16.9145 107.957 18.3204 107.957 23.274C107.957 29.7982 111.499 30.2156 112.56 30.2156C113.622 30.2156 115.03 29.282 115.326 28.7767C115.347 28.6669 115.5 28.5461 115.541 28.7767C115.592 29.249 115.908 29.952 116.388 29.7982C117.449 29.4357 118.419 29.282 119.246 29.227V28.6998C117.215 28.8207 117.409 27.7223 117.409 27.1951ZM115.326 25.6354C115.275 28.5021 113.877 29.3918 112.713 29.3918C110.101 29.3369 110.294 25.0643 110.294 23.241C110.294 21.4178 110.397 17.8152 112.765 18.1337C115.143 18.4412 115.337 21.1542 115.337 22.7797V25.6354H115.326Z" fill="#474747"/>
<path fill-rule="evenodd" clip-rule="evenodd" d="M145.865 22.4614V21.2532H139.465V22.4614H145.865Z" fill="#474747"/>
<path fill-rule="evenodd" clip-rule="evenodd" d="M130.657 25.4928V29.9302H131.188L131.667 28.7879C132.147 29.2602 133.168 30.04 134.474 30.04C135.781 30.04 137.628 29.2602 138.353 27.7994C139.078 26.3386 138.741 23.9442 137.098 23.2083C135.658 22.5712 134.393 21.8024 133.413 21.2752C132.637 20.8578 132.453 20.023 132.545 19.5068C132.688 18.6721 133.372 17.7824 134.923 17.7385C136.475 17.6835 137.251 19.0894 137.445 20.715H137.975V16.5413H137.496L136.965 17.5298C135.944 16.8049 135.515 16.695 134.587 16.695C133.668 16.695 132.117 17.2113 131.239 18.6721C130.371 20.1329 130.606 22.4284 132.688 23.362C134.77 24.2956 135.74 24.8778 136.322 25.1853C136.904 25.4928 137.24 26.745 136.853 27.4809C136.465 28.2058 135.74 29.0405 134.576 29.0405C133.413 29.0405 131.576 28.1508 131.137 25.4928H130.657Z" fill="#474747"/>
<path fill-rule="evenodd" clip-rule="evenodd" d="M154.98 20.3634C156.143 20.0559 157.307 17.8042 157.307 16.2995C157.307 14.7838 156.776 12.2356 153.377 12.2356H146.11V12.9166C146.835 12.9166 148.1 13.0703 148.1 14.3774V27.2611C148.1 27.997 148.049 29.1942 146.11 29.1942V29.9191H152.071C153.867 29.9191 157.981 29.7653 158.083 24.647C158.083 22.9226 157.307 20.8906 154.98 20.3634ZM150.183 13.0594H152.602C154.398 13.0594 155.123 14.4653 155.123 16.2885C155.123 18.5292 154.49 20.2536 152.602 20.2536H150.183V13.0594ZM152.653 29.0733H150.183V21.0883H152.949C154.551 21.0883 155.949 22.2855 155.949 24.8996C155.949 27.5137 154.49 29.0733 152.653 29.0733Z" fill="#474747"/>
<path fill-rule="evenodd" clip-rule="evenodd" d="M177.874 20.4293V28.1507C177.874 29.0843 177.098 29.249 176.659 29.249H176.373V29.93H181.66V29.249H181.181C180.742 29.249 179.966 29.0953 179.966 28.1507V20.4842C179.915 16.9914 177.006 16.8816 175.995 16.8816C174.934 16.8816 173.77 17.6175 173.525 17.9799C173.24 18.4083 172.893 18.2435 172.852 17.7713C172.801 17.299 172.607 16.8377 172.127 16.9914C171.066 17.3539 170.096 17.5186 169.269 17.5626V18.0898C171.3 17.9799 171.106 19.0783 171.106 19.6055V28.1617C171.106 29.0953 170.331 29.26 169.892 29.26H169.218V29.941H174.893V29.26H174.403C173.964 29.26 173.189 29.1063 173.189 28.1617V21.3299C173.189 20.1876 173.576 18.3534 175.567 18.1996C177.537 18.0349 177.874 19.4408 177.874 20.4293Z" fill="#474747"/>
<path fill-rule="evenodd" clip-rule="evenodd" d="M182.783 20.6929L183.651 17.1453H191.887L184.814 29.1942H188.591C189.458 29.1942 190.142 28.8317 191.061 26.4263H191.449L190.673 29.9191H182.242L189.275 17.8702H186.121C185.345 17.8702 184.477 17.8702 183.263 20.682H182.783V20.6929Z" fill="#474747"/>
</svg>
