<svg width="96" height="26" viewBox="0 0 96 26" fill="none" xmlns="http://www.w3.org/2000/svg">
<g clip-path="url(#clip0_3_158)">
<path d="M89.4806 17.186C89.4838 17.238 89.486 17.2922 89.486 17.3464C89.486 17.3431 89.4871 17.3399 89.4871 17.3366C89.486 17.2857 89.4827 17.2359 89.4806 17.186Z" fill="#253689"/>
<path d="M23.5869 23.4531C21.8893 25.063 19.3786 25.4313 15.6789 25.4313H10.4186C3.05426 25.4313 0.712341 23.7207 0.712341 17.8187V14.5991H7.77207C7.77207 14.9013 7.73809 15.2025 7.73809 15.4711C7.73809 18.4221 8.4844 19.3614 11.4378 19.3614H14.8318C17.5463 19.3614 18.0219 18.3561 18.0219 15.9066V0.78223H25.5551V18.2889C25.5551 20.4014 24.7748 22.3135 23.5869 23.4531ZM53.0521 9.33406C53.0521 7.38948 51.7962 6.58456 49.0817 6.58456H43.0411C38.1534 6.58456 36.9655 7.22156 36.9655 11.3805V14.7681C36.9655 18.5911 38.6291 19.3625 43.0411 19.3625H47.4192C51.5934 19.3625 53.257 18.927 53.257 16.0085V15.7398H60.8932C60.9271 16.3779 60.9611 16.9477 60.9611 17.5176C60.9611 20.5357 60.2488 22.5486 58.4844 23.8226C56.6181 25.1973 53.6647 25.466 49.3545 25.466H40.9381C37.0345 25.466 34.286 25.2991 32.148 23.6557C30.0778 22.0459 29.2964 19.8326 29.2964 16.5122V9.87031C29.2964 2.5589 32.5206 0.47998 40.937 0.47998H49.3534C53.6636 0.47998 56.583 0.68148 58.3814 2.05623C59.977 3.26306 60.6554 5.2759 60.6554 8.19331C60.6554 8.6299 60.6554 9.09898 60.6214 9.56806H53.0521V9.33406ZM64.2137 25.1637V0.78223H86.4438C91.9759 0.78223 94.6575 2.99548 94.6575 7.59098C94.6575 10.2072 93.5047 11.816 91.0269 12.7563C94.1491 13.259 95.5069 15.0703 95.5069 18.5586C95.5069 23.2538 93.063 25.1648 87.5989 25.1648L64.2137 25.1637ZM86.9195 8.26048C86.9195 7.05365 86.1392 6.24873 84.9852 6.24873H71.7491V10.2733H84.9852C86.2411 10.2733 86.9195 9.56806 86.9195 8.26048ZM87.7337 17.3821C87.7337 16.0746 86.9184 15.2361 85.6636 15.2361H71.7491V19.6301H85.6636C86.9874 19.6301 87.7337 18.8251 87.7337 17.3821Z" fill="#474747"/>
</g>
<defs>
<clipPath id="clip0_3_158">
<rect width="96" height="26" fill="white"/>
</clipPath>
</defs>
</svg>
