<svg width="149" height="20" viewBox="0 0 149 20" fill="none" xmlns="http://www.w3.org/2000/svg">
<g clip-path="url(#clip0_3_527)">
<path d="M35.5961 15.3548H40.2747V20H26.8796V0H40.1406V4.64516H35.5812V7.83871H39.7383V12.0484H35.5812V15.3548H35.5961ZM15.0937 20H23.9294V0H15.0937V20ZM8.7016 0H0V20H12.7246V14.6452H8.7016V0ZM97.4609 12.0323H101.618V7.82258H97.4609V4.64516H102.02V0H88.7593V20H102.154V15.3548H97.4609V12.0323ZM63.0866 14.629C63.0866 17.2419 61.6711 18.9516 59.2573 19.5806C58.1994 19.8548 56.4859 20 54.9363 20H42.9418V0H54.8618C56.3816 0 58.0504 0.145161 59.0934 0.419355C61.4476 1.04839 62.8333 2.75806 62.8333 5.37097C62.8333 7.77419 61.5221 9.41935 59.8533 9.95161C61.6413 10.3871 63.0866 12.0968 63.0866 14.629ZM51.3603 8.1129H52.5672C54.1764 8.1129 54.7128 7.24194 54.7128 6.01613C54.7128 4.79032 54.1764 3.91935 52.5672 3.91935H51.3603V8.1129ZM54.981 13.9194C54.981 12.6129 54.4297 11.7419 52.7013 11.7419H51.3603V16.0968H52.7013C54.4446 16.0806 54.981 15.2097 54.981 13.9194ZM77.033 7.3871H74.0828V0H65.3812V20H74.0828V12.3226H77.033V20H85.7346V0H77.033V7.3871ZM144.217 11.6613C146.497 10.5323 147.51 8.66129 147.51 6.1129C147.51 3.14516 145.871 1.20968 143.129 0.483871C141.923 0.177419 139.971 0 138.212 0H127.499V20H135.799V13.629H136.544L139.688 20H149L144.217 11.6613ZM137.006 9.41935H135.799V4.64516H137.006C138.615 4.64516 139.151 5.51613 139.151 7.03226C139.151 8.54839 138.615 9.41935 137.006 9.41935ZM121.495 11.6613C123.774 10.5323 124.788 8.66129 124.788 6.1129C124.788 3.14516 123.148 1.20968 120.407 0.483871C119.2 0.177419 117.248 0 115.49 0H104.777V20H113.076V13.629H113.821L116.965 20H126.278L121.495 11.6613ZM114.268 9.41935H113.061V4.64516H114.268C115.877 4.64516 116.414 5.51613 116.414 7.03226C116.414 8.54839 115.877 9.41935 114.268 9.41935Z" fill="#474747"/>
</g>
<defs>
<clipPath id="clip0_3_527">
<rect width="149" height="20" fill="white"/>
</clipPath>
</defs>
</svg>
