<svg width="171" height="30" viewBox="0 0 171 30" fill="none" xmlns="http://www.w3.org/2000/svg">
<path d="M0.868439 28.592H33.1883V0.802002H0.868439V28.592Z" fill="white"/>
<path d="M1.83332 0.00763881C0.824992 0.00763881 0 0.832631 0 1.84859V27.4157C0 28.4317 0.824992 29.249 1.83332 29.249H32.1365C33.1448 29.249 33.9622 28.424 33.9622 27.4157V1.84095C33.9622 0.824992 33.1448 0 32.1365 0H1.83332V0.00763881Z" fill="white"/>
<path d="M1.83332 0.00763881C0.824992 0.00763881 0 0.832631 0 1.84859V27.4157C0 28.4317 0.824992 29.249 1.83332 29.249H32.1365C33.1448 29.249 33.9622 28.424 33.9622 27.4157V1.84095C33.9622 0.824992 33.1448 0 32.1365 0H1.83332V0.00763881ZM1.36735 27.4157V1.84095C1.36735 1.58887 1.58123 1.37499 1.83332 1.37499H32.1365C32.3886 1.37499 32.5948 1.58123 32.5948 1.84095V27.4081C32.5948 27.6678 32.3886 27.8817 32.1365 27.8817H1.83332C1.58123 27.8817 1.36735 27.6678 1.36735 27.4157Z" fill="#474747"/>
<path d="M29.7459 3.94895L24.1161 9.57875V9.59403C23.9404 9.80028 23.6501 9.91486 23.3827 9.91486C23.1154 9.91486 22.8862 9.785 22.6876 9.56347L16.9814 3.87256L11.2905 9.57111C11.0919 9.80028 10.8474 9.91486 10.5801 9.91486C10.3127 9.91486 10.0301 9.785 9.84676 9.57875L4.23223 3.94895L4.1864 3.90311V25.5057H29.7841V3.90311L29.7459 3.94895ZM14.8655 17.5002L6.31763 17.5155C5.74472 17.5155 5.27111 17.0495 5.27111 16.4613C5.27111 16.2474 5.33222 16.0488 5.44681 15.8808L9.92315 11.3815C10.0988 11.2287 10.3356 11.1294 10.5954 11.1294C10.9238 11.1294 11.153 11.2135 11.344 11.4426L15.7134 15.8273C15.8356 15.9954 15.912 16.2092 15.912 16.4384C15.912 17.0266 15.4384 17.5002 14.8655 17.5002ZM27.691 17.5155L19.1432 17.5002C18.5626 17.5002 18.089 17.0342 18.089 16.4537C18.089 16.2245 18.1654 16.0183 18.2876 15.8426L22.657 11.4579C22.848 11.2211 23.0772 11.1447 23.4057 11.1447C23.6654 11.1447 23.9022 11.2364 24.0855 11.3968L28.5619 15.896C28.6764 16.0641 28.7375 16.2627 28.7375 16.4766C28.7299 17.0495 28.2716 17.5155 27.691 17.5155Z" fill="#474747"/>
<path d="M51.6595 25.4677V8.47897H43.0659V3.90332H66.0969V8.47897H57.9845V25.4677H51.6595Z" fill="#474747"/>
<path d="M69.0172 25.4677V3.90332H89.7795V8.63938H74.5325V12.7261H89.4511V16.9733H74.5325V21.2205H89.7795V25.4677H69.0172Z" fill="#474747"/>
<path d="M121.082 25.4677V3.90332H141.836V8.63938H126.589V12.7261H141.515V16.9733H126.589V21.2205H141.836V25.4677H121.082Z" fill="#474747"/>
<path d="M170.989 25.5135L160.936 14.1393L169.981 3.90332H162.434L157.155 9.86159L151.892 3.90332H144.353L153.359 14.1393L143.298 25.4677H150.922L157.14 18.4323L163.373 25.5135H170.989Z" fill="#474747"/>
<path d="M99.5493 8.31855H109.602C112.887 8.31855 112.971 12.7261 109.724 12.7261H99.5111L99.5493 8.31855ZM93.8355 3.90332V25.4677H99.5111V17.3018H105.103L111.344 25.4677H118.157C118.157 25.4677 111.909 17.2178 111.993 17.3018C118.967 17.4622 121.572 3.90332 109.724 3.90332H93.8355Z" fill="#474747"/>
</svg>
