<svg width="166" height="16" viewBox="0 0 166 16" fill="none" xmlns="http://www.w3.org/2000/svg">
<mask id="mask0_3_168" style="mask-type:luminance" maskUnits="userSpaceOnUse" x="144" y="0" width="22" height="16">
<path d="M165.73 0H144.814V15.9817H165.73V0Z" fill="white"/>
</mask>
<g mask="url(#mask0_3_168)">
<path d="M165.73 0.792521L164.438 4.08018C161.738 3.96276 158.307 2.82122 156.311 5.22825C155.078 6.81337 153.437 9.44872 154.575 11.0077C156.493 13.2615 163.029 10.6555 163.029 10.6555L161.386 14.8825C156.395 15.4109 149.986 16.6274 146.265 14.5726C144.034 12.8603 145.404 9.3737 146.001 7.25042C146.754 5.06844 147.566 2.56355 149.977 1.5068C154.615 -0.903493 160.622 0.146731 165.73 0.792521Z" fill="#474747"/>
</g>
<path d="M36.7513 1.02734C37.3971 2.67117 37.5732 4.49113 38.2777 6.07625L42.6221 1.02734H50.1368C47.3123 4.31826 43.5289 7.88642 40.6652 11.1382C40.0814 12.4265 39.6639 13.5191 39.2138 14.8825H29.3541L30.9979 10.4207C29.9999 7.19497 28.8257 4.08017 27.4754 1.02734H36.7513Z" fill="#474747"/>
<path d="M63.6397 1.02743C64.2268 4.08026 64.8726 7.07438 65.5184 10.0685C66.9861 7.2505 67.7493 3.96284 69.0409 1.02743H75.2639L69.7454 14.8826H58.0037C57.2405 11.8885 56.947 8.71821 55.8902 5.8415L52.2503 14.8793H45.9131L51.4317 1.02417H63.6397" fill="#474747"/>
<path d="M23.131 0.981689C24.3639 0.981689 25.8871 2.14607 26.1839 3.60725C26.6535 7.59941 25.6555 11.6503 22.071 13.7051C18.0658 15.8805 7.45594 14.7292 0 14.8792L5.40115 1.02735L23.131 0.981689ZM12.5636 4.07692C11.6601 6.56549 10.6555 9.04102 9.9804 11.3567C11.5068 11.3567 13.0495 11.5296 14.5596 11.2785C16.2622 11.0175 17.9484 7.69399 17.4787 5.2837C17.1134 3.52897 14.09 4.07692 12.5636 4.07692Z" fill="#474747"/>
<path d="M120.146 1.1415C121.542 1.1415 122.367 2.058 122.547 3.10822C122.958 6.45785 120.433 10.1108 118.281 11.373C115.988 12.7233 110.828 12.4135 106.97 12.4135L105.795 14.8792H97.2241L102.739 1.02734L120.146 1.1415ZM110.531 3.86817C109.484 6.02733 109.126 6.8949 108.375 8.54199C109.432 8.54199 112.723 9.2628 113.76 7.85707C116.868 3.7214 113.956 3.86817 110.531 3.86817Z" fill="#474747"/>
<path d="M95.2247 14.8792H86.5359C86.5946 14.2334 86.8294 13.5289 86.0662 13.118C84.4942 13.118 81.9958 13.1245 80.3944 13.1245C79.8236 13.5452 79.5105 14.0964 78.9038 14.8792H71.3892L82.7786 0.909912H95.9292L95.2247 14.8792ZM87.0056 9.36389V4.31499L83.2482 9.36389H87.0056Z" fill="#474747"/>
<path d="M141.894 14.8793H133.323C133.323 14.2335 133.669 13.118 132.736 13.118C130.932 13.118 128.44 13.0235 126.748 13.0985C126.183 13.666 125.88 13.9432 125.104 14.8793H117.12L128.509 0.906738H142.361L141.894 14.8793ZM133.548 9.34767L133.992 4.13569L129.298 9.3966L133.548 9.34767Z" fill="#474747"/>
</svg>
