<svg width="41" height="41" viewBox="0 0 41 41" fill="none" xmlns="http://www.w3.org/2000/svg">
<g clip-path="url(#clip0_3_496)">
<path d="M34.1712 0.0191435L21.4404 0.00699652C-7.14551 0.00699652 -7.14551 40.9985 21.4404 40.9985L41.0002 40.9514V26.0607H22.0937C14.7241 26.0607 14.7241 14.9447 22.0937 14.9447L41.0002 14.9144V0.00699652L36.7125 0.00244141L35.3573 0.854248C35.1228 0.628011 34.8335 0.79655 34.7681 0.837546C34.5107 0.996975 34.3965 1.1807 34.5184 1.37657C34.8579 1.92318 37.0003 0.090507 37.9154 1.56788C38.4239 2.3878 38.1255 3.34134 36.749 4.19011C35.8887 4.72002 34.7711 5.02522 34.1575 4.16734L35.5766 3.29123C35.8263 3.44307 36.0867 3.4203 36.274 3.29579C36.4993 3.14851 36.7003 2.92834 36.5282 2.65048C36.1369 2.01884 34.1499 3.9411 33.2013 2.41513C32.577 1.40845 33.3916 0.500467 34.1712 0.0191435ZM12.7188 18.8621L11.3362 19.7155L10.9845 19.4391C10.8703 19.9857 10.6693 20.2833 10.0527 20.6644C9.23652 21.1685 8.37928 20.9696 7.67886 19.8415L6.18973 17.4425L7.68039 16.5238L9.00051 18.6511C9.33701 19.1931 9.62327 19.2554 9.98109 19.0337C10.4105 18.768 10.3374 18.3459 9.95825 17.737L8.78277 15.8421L10.2734 14.9235L12.7188 18.8621ZM10.9464 14.5074L12.3138 13.6632L12.6716 13.9472C12.6701 13.2958 13.3552 12.8084 13.7694 12.6368C13.9844 12.5371 14.2226 12.498 14.4582 12.5237C14.6939 12.5494 14.918 12.6389 15.1063 12.7826C15.158 11.5497 16.0351 11.1959 16.2848 11.085C17.2684 10.6523 17.8714 11.1412 18.4637 12.0932L19.9102 14.4239L18.4195 15.3441L17.1755 13.3353C16.836 12.7902 16.5771 12.5806 16.1706 12.8327C15.7336 13.103 15.895 13.5554 16.1889 14.0276L17.3978 15.9757L15.9072 16.8958L14.6601 14.8886C14.3008 14.3085 14.0785 14.1263 13.6552 14.386C13.2182 14.6547 13.3796 15.1057 13.6735 15.5794L14.8825 17.5275L13.3918 18.4461L10.9464 14.5074ZM27.8416 9.53022L25.3962 5.59005L26.8869 4.67143L29.3323 8.61161L27.8416 9.53022ZM24.3928 3.97298L25.8835 3.05437L26.5748 4.16734L25.0841 5.08747L24.3928 3.97298ZM27.6802 4.181L29.0414 3.34134L29.4784 3.6359C29.5378 2.91316 30.0037 2.51535 30.561 2.27696C31.4335 1.90496 32.143 2.27089 32.7445 3.23961L34.2093 5.60068L32.7186 6.51929L31.4259 4.43609C31.1777 4.03676 30.8732 3.75737 30.4453 4.02157C29.987 4.30551 30.057 4.68814 30.3692 5.19224L31.6147 7.19952L30.124 8.11966L27.6802 4.181ZM6.25977 22.8433C2.24458 25.3213 -1.38691 19.5393 2.62828 17.0613L4.4524 15.9484L5.39187 17.4622L3.79005 18.4431C1.79236 19.6714 3.63627 22.3863 5.50759 21.2126L7.11092 20.2317L8.05039 21.7455L6.25977 22.8433ZM18.1104 10.0875L19.4778 9.24325L19.8356 9.52719C19.8356 8.8758 20.5208 8.38841 20.9334 8.21683C21.1486 8.11798 21.3866 8.07932 21.6221 8.105C21.8576 8.13068 22.0816 8.21972 22.2703 8.3626C22.322 7.12968 23.1991 6.7759 23.4473 6.66506C24.4309 6.23232 25.0354 6.71972 25.6262 7.67326L27.0727 10.004L25.582 10.9226L24.338 8.91528C24 8.37019 23.7411 8.16065 23.3316 8.4127C22.8946 8.68297 23.056 9.13393 23.3498 9.60766L24.5588 11.5557L23.0681 12.4743L21.8226 10.4671C21.4633 9.88856 21.241 9.70636 20.8162 9.96448C20.3792 10.2347 20.5406 10.6857 20.8344 11.1594L22.0434 13.1075L20.5558 14.0261L18.1104 10.0875Z" fill="#474747"/>
</g>
<defs>
<clipPath id="clip0_3_496">
<rect width="41" height="41" fill="white"/>
</clipPath>
</defs>
</svg>
