<svg width="177" height="29" viewBox="0 0 177 29" fill="none" xmlns="http://www.w3.org/2000/svg">
<g clip-path="url(#clip0_3_498)">
<path fill-rule="evenodd" clip-rule="evenodd" d="M22.1102 5.30177L18.1931 9.03815C17.0438 10.1365 16.2072 11.1845 15.5798 12.1715C14.6962 13.5666 13.82 15.93 13.773 17.7852C13.773 17.7852 13.7259 18.7036 13.7315 19.5736C13.7259 19.8797 13.7221 20.1914 13.7353 20.4417C13.7542 20.7793 14.1592 20.876 14.3421 20.7016L24.6707 10.9563C25.0418 10.6095 25.1398 10.1458 25.1077 9.73386C24.9854 8.16255 23.8889 5.97894 23.1973 5.34463C22.7206 4.90294 22.3307 5.08829 22.1102 5.30177ZM14.8752 1.77903C14.4984 1.73832 14.1629 1.86823 14.0273 2.11299C13.9012 2.34136 13.9143 2.58612 13.8916 2.90154C13.7975 4.12035 13.7597 6.11829 13.7542 6.32233L13.7071 10.0438C13.6975 10.7637 14.229 10.6652 14.4231 10.4797C14.634 10.2664 16.3579 8.63568 18.0047 7.06818L20.9609 4.2539C21.1681 4.06094 21.2624 3.73626 20.91 3.42084C20.5896 3.13338 19.497 2.65099 17.8973 2.24852C17.3981 2.11861 16.7198 1.99251 16.1413 1.90894C15.721 1.85074 15.2987 1.80741 14.8752 1.77903ZM25.3998 13.1586C25.4187 13.2328 25.4093 13.2569 25.4131 13.2793C25.6259 15.4071 25.4319 17.5386 25.3 18.8986C24.6802 25.2152 19.9436 26.7774 17.9444 27.3338C17.1003 27.5713 15.3085 27.8293 14.715 27.8478C13.8822 27.8756 13.7032 27.473 13.7221 27.1483C13.8953 23.5142 17.7089 19.6573 17.7089 19.6573C17.7975 19.5236 18.3758 18.9727 19.041 18.3457C19.9962 17.405 24.7874 12.9137 24.7874 12.9137C24.82 12.8795 24.8594 12.8523 24.9032 12.8338C24.947 12.8153 24.9942 12.8059 25.0418 12.8061C25.2341 12.8061 25.3847 12.923 25.3998 13.1586ZM3.51575 5.30193L7.43282 9.03815C8.58226 10.1365 9.41506 11.1845 10.0405 12.1715C10.9299 13.5666 11.8059 15.93 11.8474 17.7852C11.8474 17.7852 11.8945 18.7036 11.8908 19.5736C11.9002 19.8797 11.9039 20.1914 11.8908 20.4417C11.8662 20.7793 11.4612 20.876 11.2783 20.7016L0.955346 10.9563C0.584076 10.6095 0.48609 10.1458 0.518192 9.73386C0.635002 8.16255 1.73721 5.97894 2.42496 5.34463C2.90531 4.90294 3.29541 5.08845 3.51575 5.30193ZM10.747 1.77887C11.1277 1.73816 11.4573 1.86806 11.5931 2.11282C11.7212 2.34119 11.706 2.58595 11.7306 2.90137C11.8247 4.12019 11.8662 6.11812 11.8662 6.32217L11.9133 10.0437C11.9227 10.7635 11.3914 10.6651 11.203 10.4795C10.9921 10.2662 9.268 8.63932 7.61568 7.06802L4.66519 4.25374C4.45779 4.06078 4.36367 3.73609 4.71595 3.42067C5.03629 3.13322 6.12909 2.65082 7.72493 2.24836C8.22797 2.11845 8.90059 1.99235 9.48464 1.90877C10.1818 1.8123 10.747 1.77887 10.747 1.77887ZM0.226084 13.1585C0.20726 13.2326 0.212974 13.2568 0.212974 13.2791C2.74405e-05 15.4069 0.188436 17.5384 0.325918 18.8984C0.942068 25.2151 5.67681 26.7773 7.67787 27.3336C8.51991 27.5711 10.3137 27.8291 10.9109 27.8476C11.74 27.8754 11.919 27.4728 11.9039 27.1481C11.7306 23.514 7.91721 19.6572 7.91721 19.6572C7.82292 19.5234 7.25013 18.9725 6.58507 18.3455C5.63916 17.4141 0.838536 12.9135 0.838536 12.9135C0.771514 12.8459 0.68001 12.8073 0.584076 12.806C0.386256 12.806 0.235496 12.9228 0.226084 13.1585ZM163.566 18.6386V23.5326C163.566 23.6623 163.67 23.7644 163.802 23.7644H171.794C173.202 23.7644 174.34 23.3432 175.182 22.5178C176.045 21.6644 176.604 20.3676 176.853 18.6424L171.926 18.6386C171.709 19.4346 171.38 20.0522 170.946 20.4826C170.447 20.9741 169.793 21.219 168.998 21.219H168.254V18.6386H163.566ZM161.462 18.6386V23.5326C161.462 23.6623 161.362 23.7644 161.236 23.7644H157.579C157.494 23.7644 157.418 23.7235 157.375 23.6494L154.396 18.6386H161.462ZM153.026 18.6386L153.036 23.5326C153.036 23.6623 152.919 23.7644 152.787 23.7644H148.565C148.534 23.7643 148.504 23.7583 148.476 23.7466C148.447 23.7348 148.421 23.7177 148.4 23.6961C148.378 23.6746 148.361 23.649 148.35 23.6209C148.338 23.5929 148.333 23.5628 148.333 23.5326V18.6384L153.026 18.6386ZM134.387 18.6386L133.096 23.4768C133.077 23.5473 133.093 23.6216 133.134 23.6772C133.181 23.7328 133.247 23.7644 133.319 23.7644H137.352C137.46 23.7644 137.554 23.6903 137.579 23.5882L138.255 20.7479H142.295L142.967 23.5882C142.979 23.6382 143.008 23.6828 143.049 23.7147C143.09 23.7467 143.141 23.7642 143.193 23.7644H147.227C147.299 23.7644 147.365 23.733 147.412 23.6772C147.459 23.616 147.472 23.5473 147.453 23.4769L146.149 18.6386H134.387ZM128.738 18.6386V21.0762H132.354C132.424 21.0762 132.495 21.1135 132.537 21.1689C132.584 21.2247 132.599 21.2933 132.58 21.3638L131.981 23.5938C131.958 23.6957 131.864 23.7644 131.76 23.7644H124.281C124.154 23.7644 124.051 23.6623 124.051 23.5326V18.6384L128.738 18.6386ZM118.779 18.6386V21.0762H122.464C122.59 21.0762 122.694 21.1783 122.694 21.3082V23.5324C122.694 23.6623 122.59 23.7644 122.464 23.7644H114.321C114.29 23.7643 114.26 23.7583 114.232 23.7466C114.203 23.7348 114.178 23.7177 114.156 23.6961C114.134 23.6746 114.117 23.649 114.106 23.6209C114.094 23.5929 114.089 23.5628 114.089 23.5326V18.6384L118.779 18.6386ZM103.655 18.6386C103.772 19.7962 103.998 20.5346 104.337 20.8667C104.482 21.0113 104.642 21.0762 104.827 21.0762H106.568C106.756 21.0762 106.911 21.0113 107.058 20.8667C107.397 20.5346 107.627 19.7962 107.745 18.6386H112.509C112.188 22.208 110.988 23.7644 108.672 23.7644H102.728C100.411 23.7644 99.2103 22.208 98.8901 18.6386H103.655ZM92.6311 18.6386V23.5326C92.6311 23.6623 92.7347 23.7644 92.8664 23.7644H97.0889C97.215 23.7644 97.3187 23.6623 97.3187 23.5326V18.6384L92.6311 18.6386ZM84.0864 18.6386V23.5326C84.0864 23.6623 84.1956 23.7644 84.322 23.7644H88.5443C88.6763 23.7644 88.7798 23.6623 88.7798 23.5326V18.6384L84.0864 18.6386ZM76.6933 18.6386L75.7983 23.5751C75.79 23.6281 75.7625 23.6764 75.721 23.7112C75.6795 23.7459 75.6267 23.7648 75.5722 23.7644H70.7281C70.6151 23.7644 70.5171 23.6866 70.4983 23.5752L69.5939 18.6388L76.6933 18.6386ZM68.1487 18.6386L67.2444 23.5751C67.2275 23.6865 67.1275 23.7644 67.0145 23.7644H62.1704C62.0574 23.7644 61.9594 23.6866 61.9406 23.5752L61.0456 18.6388L68.1487 18.6386ZM51.8624 18.6386C52.0319 20.2786 52.4182 21.0762 53.0343 21.0762H58.1987C58.3249 21.0762 58.4286 21.1783 58.4286 21.3082V23.5324C58.4286 23.6623 58.3249 23.7644 58.1987 23.7644H50.9355C48.6142 23.7644 47.4196 22.208 47.0994 18.6386H51.8624ZM45.5261 18.6386V23.603C45.5261 23.7272 45.4244 23.8293 45.2961 23.8293H41.6429C41.6023 23.8301 41.5622 23.8202 41.5268 23.8006C41.4913 23.7811 41.4618 23.7526 41.4413 23.7181L38.4192 18.6384L45.5261 18.6386ZM37.0872 18.6386V23.603C37.0872 23.7272 36.9835 23.8293 36.8516 23.8293H32.6293C32.5684 23.8291 32.5101 23.8052 32.467 23.7628C32.4239 23.7204 32.3996 23.663 32.3993 23.603V18.6384" fill="#474747"/>
<path fill-rule="evenodd" clip-rule="evenodd" d="M138.933 17.8965L140.275 12.255L141.616 17.8965H138.933ZM168.254 18.6385V11.6205H170.566C170.818 11.6205 171.069 11.7355 171.286 11.9545C171.728 12.3847 172.25 13.3959 172.25 15.7445C172.25 16.8817 172.141 17.8501 171.926 18.6385H176.853C176.947 17.9521 177 17.1971 177 16.3715C177 11.7355 175.272 9.07894 172.254 9.07894H163.802C163.67 9.07894 163.566 9.18088 163.566 9.30715V18.6385H168.254ZM148.333 18.6385V9.30715C148.333 9.18088 148.437 9.07878 148.565 9.07878H152.213C152.292 9.07878 152.367 9.12164 152.414 9.19015L156.778 16.5143V9.30715C156.778 9.18088 156.882 9.07878 157.01 9.07878H161.236C161.362 9.07878 161.462 9.18088 161.462 9.30715V18.6385H154.396L153.023 16.3344L153.026 18.6385H148.333ZM146.149 18.6385L143.621 9.24774C143.598 9.14944 143.504 9.07894 143.397 9.07894H137.117C137.013 9.07894 136.919 9.14944 136.891 9.24774L134.387 18.6385H146.149ZM124.051 18.6385V9.30715C124.051 9.18088 124.154 9.07878 124.281 9.07878H128.509C128.635 9.07878 128.738 9.18088 128.738 9.30715V18.6385H124.051ZM114.089 18.6385V9.30715C114.089 9.18088 114.193 9.07878 114.321 9.07878H118.543C118.675 9.07878 118.779 9.18088 118.779 9.30715V18.6385H114.089ZM98.8901 18.6385C98.8296 17.9706 98.8016 17.2342 98.8016 16.4216C98.8016 11.2717 99.9734 9.07894 102.728 9.07894H108.672C111.421 9.07894 112.597 11.2717 112.597 16.4216C112.597 17.2342 112.569 17.9706 112.508 18.6385H107.745C107.811 17.9837 107.843 17.2007 107.843 16.2786C107.843 13.7113 107.589 12.2085 107.058 11.6854C106.911 11.5464 106.756 11.4757 106.568 11.4757H104.827C103.97 11.4757 103.551 13.047 103.551 16.2788C103.551 17.2007 103.583 17.9837 103.655 18.6387L98.8901 18.6385ZM88.7798 18.6385V17.7665H92.631V18.6387H97.3187V9.30699C97.3187 9.18072 97.2151 9.07861 97.0889 9.07861H92.8665C92.7347 9.07861 92.6311 9.18072 92.6311 9.30699V14.915H88.7798V9.30715C88.7798 9.18088 88.6763 9.07878 88.5445 9.07878H84.322C84.1958 9.07878 84.0866 9.18088 84.0866 9.30715V18.6385H88.7798ZM61.0456 18.6385L59.3649 9.34968C59.358 9.316 59.3591 9.28119 59.3683 9.24804C59.3775 9.21488 59.3944 9.18429 59.4177 9.15871C59.4386 9.13347 59.4651 9.11319 59.4951 9.09938C59.5251 9.08557 59.5579 9.07859 59.591 9.07894H63.5082C63.6212 9.07894 63.7191 9.15871 63.738 9.26992L65.1888 17.9373L66.7695 9.26446C66.7885 9.15854 66.8883 9.07894 67.0014 9.07894H70.7432C70.8561 9.07894 70.9504 9.15871 70.9729 9.26429L72.5557 17.9373L74.0045 9.26992C74.0136 9.21643 74.0417 9.16788 74.0838 9.13291C74.1259 9.09794 74.1793 9.07882 74.2344 9.07894H78.1459C78.2175 9.07894 78.2834 9.10675 78.3249 9.15871C78.372 9.20869 78.3908 9.27918 78.3777 9.34968L76.6933 18.6385H69.5939L68.8685 14.7019L68.1487 18.6385H61.0456ZM47.0994 18.6385C47.0372 17.9706 47.0088 17.2342 47.0088 16.4216C47.0088 11.2717 48.1826 9.07894 50.9355 9.07894H57.8029C57.9104 9.07894 58.0103 9.15871 58.0291 9.26429L58.3814 11.2068C58.3909 11.2717 58.372 11.3422 58.3306 11.3921C58.2872 11.4479 58.2214 11.4757 58.1516 11.4757H53.0343C52.3051 11.4757 51.8963 12.6075 51.7871 14.9337H57.5486C57.6805 14.9337 57.7842 15.0358 57.7842 15.1621V17.3919C57.7842 17.516 57.6805 17.6181 57.5487 17.6181H51.7871C51.8059 17.9891 51.8303 18.3324 51.8624 18.6423L47.0994 18.6385ZM32.3994 18.6385V9.37765C32.3994 9.24774 32.5031 9.14564 32.6293 9.14564H36.2731C36.3579 9.14564 36.4332 9.19032 36.4748 9.25519L40.8384 16.5848V9.37765C40.8384 9.24774 40.9419 9.14564 41.0739 9.14564H45.2962C45.4244 9.14564 45.5261 9.24774 45.5261 9.37765V18.6385H38.4192L37.087 16.3995V18.6385" fill="#474747"/>
</g>
<defs>
<clipPath id="clip0_3_498">
<rect width="177" height="29" fill="white"/>
</clipPath>
</defs>
</svg>
