<svg width="129" height="21" viewBox="0 0 129 21" fill="none" xmlns="http://www.w3.org/2000/svg">
<g clip-path="url(#clip0_3_43)">
<path fill-rule="evenodd" clip-rule="evenodd" d="M10.4832 16.8992L6.16787 20.3643C6.03301 20.3643 5.89816 20.3782 5.7846 20.3782C1.76732 20.3782 0.532326 18.7715 0.532326 15.3553V5.03693C0.532326 1.62774 1.76732 0 5.7846 0C9.92253 0 11.1504 1.62774 11.1504 5.03693V8.51597H7.04798V4.31737C7.04798 3.67465 6.56534 3.34631 5.89816 3.34631C5.33035 3.34631 4.73414 3.67465 4.73414 4.31737V16.1168C4.73414 16.7735 5.33744 17.1996 5.89816 17.1996C6.45887 17.1996 7.04798 16.8573 7.04798 16.1168V12.0998H11.1504V15.3623C11.1504 15.7675 10.9517 16.5429 10.4832 16.8992ZM31.2936 20.497L27.4892 17.493V4.39421H24.4585V0.621757H35.1973V4.39421H32.1808V20.49H31.2936V20.497ZM21.8182 0.621757H18.5533H15.4871L12.0518 15.7186L18.5533 10.5489L18.6669 10.4651L25.2535 15.7186L21.8182 0.621757ZM18.5533 9.73154H17.3183L18.5533 4.24751V4.26148L19.7883 9.72455H18.5533V9.73154Z" fill="#474747"/>
<path fill-rule="evenodd" clip-rule="evenodd" d="M36.3755 20.4971H46.3122V16.8085H40.7264V12.1138H45.4108V8.47412H40.7264V4.26853H46.0141V0.621826H36.3755V20.4971ZM111.646 0.621826H108.694H105.677L102.242 20.4901H106.657L107.139 16.8993H108.687H110.418L110.851 20.4901H115.472L111.646 0.621826ZM108.694 13.3434H107.558L108.694 4.4851L108.729 4.26853L109.829 13.3434H108.694ZM92.2412 20.4971H101.426V16.7735H96.6914V0.621826H92.2412V20.4971ZM81.8857 20.4971H91.0914V16.7735H86.3573V0.621826H81.8928V20.4971H81.8857ZM74.9868 20.4971H79.3235V0.621826H74.9868V20.4971ZM69.6352 0.621826H67.8536H62.1542V20.4901H66.5406V12.4841H67.8607H68.8118C72.5594 12.4841 73.546 10.6118 73.546 6.35037C73.5389 3.75855 72.9356 0.621826 69.6352 0.621826ZM67.8536 9.12382C67.7046 9.13779 67.5555 9.13779 67.371 9.13779H66.5406V4.03799H67.2716C67.4917 4.03799 67.6904 4.05197 67.8536 4.07292C69.4222 4.25456 69.188 5.23959 69.188 6.61584C69.1809 7.90825 69.4364 8.95616 67.8536 9.12382ZM128.184 18.0799V13.2526C128.184 11.024 126.864 10.3673 125.685 10.1158V10.032C126.622 9.70366 128.184 8.66973 128.184 6.58789V4.26853C128.184 1.97013 125.884 0.628812 123.883 0.628812H122.484H116.7V20.4971H121.136V11.7995L122.484 11.7855H122.534C123.237 11.7715 123.968 12.6029 123.968 13.2106V18.0031C123.968 19.0021 124.067 19.8264 124.365 20.4971H128.581C128.283 19.8194 128.184 19.0021 128.184 18.0799ZM123.847 7.27252C123.847 8.04099 123.144 8.50207 122.477 8.57193C122.428 8.5859 122.378 8.5859 122.328 8.5859H121.129V3.89129L122.477 3.92622H122.562C123.393 3.94019 123.847 4.45017 123.847 5.30246V7.27252ZM59.8972 18.0799V13.2526C59.8972 11.024 58.5628 10.3673 57.3988 10.1158V10.032C58.3357 9.70366 59.8972 8.66973 59.8972 6.58789V4.26853C59.8972 1.97013 57.5833 0.628812 55.596 0.628812H54.1977H48.4132V20.4971H52.8279V11.7995L54.1977 11.7855H54.2474C54.9288 11.7715 55.667 12.6029 55.667 13.2106V18.0031C55.667 19.0021 55.7805 19.8264 56.0857 20.4971H60.3017C59.9965 19.8194 59.8972 19.0021 59.8972 18.0799ZM55.5463 7.27252C55.5463 8.04099 54.8436 8.50207 54.1977 8.57193C54.1481 8.5859 54.0842 8.5859 54.0345 8.5859H52.835V3.89129L54.2048 3.92622H54.29C55.1062 3.94019 55.5534 4.45017 55.5534 5.30246V7.27252H55.5463Z" fill="#474747"/>
<path fill-rule="evenodd" clip-rule="evenodd" d="M18.6881 12.0928L8.09843 20.497H29.2708L18.6881 12.0928Z" fill="#474747"/>
</g>
<defs>
<clipPath id="clip0_3_43">
<rect width="129" height="21" fill="white"/>
</clipPath>
</defs>
</svg>
