<svg width="122" height="24" viewBox="0 0 122 24" fill="none" xmlns="http://www.w3.org/2000/svg">
<g clip-path="url(#clip0_3_61)">
<path fill-rule="evenodd" clip-rule="evenodd" d="M23.685 0.511963H11.72C4.09406 0.511963 0.382019 4.36179 0.382019 12.2867C0.382019 16.3754 1.63618 19.3857 4.09406 21.256C6.55194 23.1399 8.9089 23.2833 11.72 23.2833H24.276V9.3106H10.091V14.2731C10.091 14.2731 17.1403 14.2731 18.1638 14.2731C18.1638 15.058 18.1638 17.4539 18.1638 18.2389C17.1619 18.2389 11.72 18.2389 11.72 18.2389C8.25299 18.2389 6.91954 16.5051 6.91954 12.0819C6.91954 7.32425 8.30344 5.38568 11.72 5.38568H24.276V0.511963H23.685Z" fill="#474747"/>
<path fill-rule="evenodd" clip-rule="evenodd" d="M39.4702 5.50172C42.6128 5.50172 43.1245 6.13654 43.1245 7.6519C43.1245 9.11947 42.584 9.82254 39.4702 9.82254C39.4702 9.82254 35.1527 9.82254 34.194 9.82254C34.194 9.01708 34.194 6.30719 34.194 5.50172C35.1527 5.50172 39.4702 5.50172 39.4702 5.50172ZM28.7953 0.511963H28.2043V23.2833H34.2012C34.2012 23.2833 34.2012 15.7679 34.2012 14.785C35.0878 14.785 38.3529 14.785 38.8935 14.785C39.2107 15.3311 43.903 23.2833 43.903 23.2833H50.7144C50.7144 23.2833 45.5608 15.0853 44.8833 14.0137C47.6511 13.1399 49.1719 10.901 49.1719 7.59046C49.1719 2.76452 46.4546 0.511963 40.6018 0.511963H28.7953Z" fill="#474747"/>
<path fill-rule="evenodd" clip-rule="evenodd" d="M57.2735 11.7132C57.2735 7.07839 59.0251 4.92822 62.8092 4.92822C66.651 4.92822 68.3664 7.07839 68.3664 11.8907C68.3664 16.703 66.651 18.8531 62.8092 18.8531C58.9313 18.86 57.2735 16.7234 57.2735 11.7132ZM50.8441 11.6859C50.8441 19.9043 54.6427 23.7337 62.8092 23.7337C70.8459 23.7337 74.7598 19.8634 74.7598 11.8975C74.7598 3.94529 70.8459 0.088632 62.8092 0.088632C54.8589 0.081806 50.8441 3.99307 50.8441 11.6859Z" fill="#474747"/>
<path fill-rule="evenodd" clip-rule="evenodd" d="M120.76 0.477783H101.169V23.372H121.351V18.5802C121.351 18.5802 108.19 18.5802 107.094 18.5802C107.094 17.7747 107.094 14.9624 107.094 14.157C108.197 14.157 120.522 14.157 120.522 14.157V9.26277C120.522 9.26277 108.19 9.26277 107.094 9.26277C107.094 8.47778 107.094 6.10236 107.094 5.33103C108.197 5.33103 121.351 5.33103 121.351 5.33103V0.477783H120.76Z" fill="#474747"/>
<path fill-rule="evenodd" clip-rule="evenodd" d="M98.7835 0.511963H93.2767C93.2767 0.511963 87.6762 13.5086 86.7392 15.6929C85.795 13.5086 80.2017 0.511963 80.2017 0.511963H73.4624L83.9137 23.2833H89.6728L99.6845 0.511963H98.7835Z" fill="#474747"/>
<path fill-rule="evenodd" clip-rule="evenodd" d="M81.91 0.552979H91.5613L86.732 11.7748L81.91 0.552979Z" fill="#474747"/>
</g>
<defs>
<clipPath id="clip0_3_61">
<rect width="122" height="24" fill="white"/>
</clipPath>
</defs>
</svg>
