<svg width="159" height="24" viewBox="0 0 159 24" fill="none" xmlns="http://www.w3.org/2000/svg">
<g clip-path="url(#clip0_3_539)">
<path fill-rule="evenodd" clip-rule="evenodd" d="M120.686 0.874023H127.071V9.7482H139.996V0.874023H146.382V23.0462H139.996V13.2625H127.071V23.0462H120.686V0.874023Z" fill="#474747"/>
<path fill-rule="evenodd" clip-rule="evenodd" d="M0.989075 0.874023H7.37481V9.7482H20.2999V0.874023H26.7241V23.0462H20.2999V13.2625H7.37481V23.0462H0.989075V0.874023Z" fill="#474747"/>
<path fill-rule="evenodd" clip-rule="evenodd" d="M32.0055 0.874023H38.468V23.0462H32.0055V0.874023Z" fill="#474747"/>
<path fill-rule="evenodd" clip-rule="evenodd" d="M151.539 0.874023H158.001V23.0462H151.539V0.874023Z" fill="#474747"/>
<path fill-rule="evenodd" clip-rule="evenodd" d="M40.8399 0.874023H65.9411V4.56497H56.5594V23.0462H50.2121V4.56497H40.8399V0.874023Z" fill="#474747"/>
<path fill-rule="evenodd" clip-rule="evenodd" d="M71.4626 14.5695L75.9182 4.67984L80.3354 14.5695H71.4626ZM81.9391 18.0838L84.1477 23.0463H91.3592L79.9705 0.909424H71.8947L60.4196 23.0463H67.5928L69.8398 18.0838H81.9391Z" fill="#474747"/>
<path fill-rule="evenodd" clip-rule="evenodd" d="M110.795 8.40609H117.334C117.257 4.3796 113.474 0.538542 104.688 0.467902C98.1483 0.432582 90.2261 2.89616 90.1877 11.9204C90.1493 20.8741 98.2251 23.6644 104.688 23.5143C110.641 23.3288 117.257 21.8101 117.536 15.0728L110.958 15.1081C110.756 19.3112 107.098 20.1412 104.688 20.1853C102.21 20.1853 97.1208 19.7174 97.044 12.0352C96.9671 4.78578 101.615 3.77033 104.688 3.77033C107.712 3.80565 110.747 5.11249 110.795 8.40609Z" fill="#474747"/>
</g>
<defs>
<clipPath id="clip0_3_539">
<rect width="159" height="24" fill="white"/>
</clipPath>
</defs>
</svg>
