<svg width="159" height="22" viewBox="0 0 159 22" fill="none" xmlns="http://www.w3.org/2000/svg">
<path fill-rule="evenodd" clip-rule="evenodd" d="M14.556 15.4342C23.3649 15.1233 26.9683 -0.420422 12.0428 0.0661188C7.492 0.0661188 3.73868 0.139283 3.73868 0.139283L0 21.7007H8.18706L9.38329 15.4928L14.556 15.4342Z" fill="#474747"/>
<path fill-rule="evenodd" clip-rule="evenodd" d="M30.5167 1.38297C33.7689 -0.0656787 37.3722 -0.497347 40.7122 0.673278C42.5888 1.32078 44.3338 2.37068 45.4129 4.21808C47.3189 7.45559 46.9348 11.1504 45.7532 14.4757C43.6826 20.2812 36.9735 23.0029 31.124 21.5104C27.8865 20.68 25.2709 18.3314 24.4734 15.0793C23.1711 9.77489 25.4026 3.673 30.5167 1.38297Z" fill="#474747"/>
<path fill-rule="evenodd" clip-rule="evenodd" d="M34.8918 7.04216C32.8067 7.70795 32.097 9.78947 31.6982 11.71C31.3873 13.2172 32.0238 14.7098 33.4139 15.4341C34.5809 16.056 35.9088 15.7597 36.8856 14.9329C38.5427 13.5135 39.3402 11.3698 38.85 9.21147C38.4659 7.4848 36.6514 6.49343 34.8918 7.04216Z" fill="white"/>
<path fill-rule="evenodd" clip-rule="evenodd" d="M49.6381 0.109863H66.8865L65.7488 6.78974H61.4614L58.8897 21.7006H50.6002L53.2158 6.78974H48.6065L49.6381 0.109863Z" fill="#474747"/>
<path fill-rule="evenodd" clip-rule="evenodd" d="M91.6234 0.109863H99.5434L95.8523 21.7006H87.914L91.6234 0.109863Z" fill="#474747"/>
<path fill-rule="evenodd" clip-rule="evenodd" d="M111.279 12.2734L109.68 21.7006L101.746 21.7445L105.411 0.109863H113.379L117.546 9.8919L119.243 0.109863H127.269L123.443 21.7006L115.223 21.7445L111.279 12.2734Z" fill="#474747"/>
<path fill-rule="evenodd" clip-rule="evenodd" d="M10.36 9.70173C14.8523 10.4553 15.7669 5.32652 11.0697 5.86062L10.36 9.70173Z" fill="white"/>
<path fill-rule="evenodd" clip-rule="evenodd" d="M73.5665 0.109863H82.1231L85.1228 21.6713H77.5101L77.3491 19.1728H72.0886L70.9509 21.6713H62.6139L73.5665 0.109863Z" fill="#474747"/>
<path fill-rule="evenodd" clip-rule="evenodd" d="M74.3493 13.9562H76.8771L76.5076 9.06519L74.3493 13.9562Z" fill="white"/>
<path fill-rule="evenodd" clip-rule="evenodd" d="M150.056 21.8799H137.79L139.282 13.4257H133.239L133.89 9.30295L144.367 0.362305H150.648L158.715 9.6578L158.126 13.4257L157.255 13.455C157.164 17.223 155.821 19.1143 150.498 19.1143L150.056 21.8799Z" fill="#474747"/>
<path fill-rule="evenodd" clip-rule="evenodd" d="M151.12 16.1585C154.018 16.4109 154.149 13.9855 151.563 14.077L151.12 16.1585Z" fill="white"/>
<path fill-rule="evenodd" clip-rule="evenodd" d="M142.359 21.88H146.215L148.282 10.8395C148.801 10.8395 153.026 10.8395 153.026 10.8395L153.293 10.2908L147.839 3.02193L147.338 2.97803L139.549 10.2469L139.787 10.8395C139.787 10.8395 143.361 10.8395 144.042 10.8395C143.91 11.5785 142.015 21.8178 142.015 21.8178L142.359 21.88Z" fill="#F5F5F5"/>
</svg>
