<svg width="178" height="33" viewBox="0 0 178 33" fill="none" xmlns="http://www.w3.org/2000/svg">
<g clip-path="url(#clip0_3_154)">
<path d="M102.492 24.07V11.9494H99.6746V20.1276L92.326 11.9494H89.5333V24.07H92.3506V15.8123L99.6746 24.0761L102.492 24.07ZM160.683 17.1631C160.88 17.1919 161.081 17.1773 161.272 17.1204C161.463 17.0636 161.64 16.9658 161.788 16.8341C161.937 16.7023 162.055 16.5398 162.133 16.358C162.212 16.1761 162.249 15.9794 162.242 15.7818C162.242 14.9199 161.675 14.4309 160.683 14.4309H155.535V17.157L160.683 17.1631ZM165.498 24.07H162.088L158.667 19.6386H155.356V24.07H152.563V11.9494H160.516C163.26 11.9494 164.887 13.4041 164.887 15.8368C164.904 16.6867 164.618 17.5152 164.079 18.1761C163.54 18.8371 162.782 19.2879 161.94 19.4491L165.498 24.07ZM116.314 8.92993C121.708 8.92993 124.945 11.8027 124.945 16.6069C124.945 20.0542 122.688 24.0638 116.314 24.0638H109.532V8.93605L116.314 8.92993ZM112.337 11.436V21.5762H116.314C118.471 21.5762 122.103 20.9099 122.103 16.4602C122.103 13.2696 119.994 11.4421 116.314 11.4421L112.337 11.436ZM169.603 21.5884V19.2535H176.107V16.7719H169.597V14.4309H178V11.9494H166.786V24.07H178V21.5884H169.603ZM142.293 21.5884V19.2535H148.803V16.7719H142.287V14.4309H150.689V11.9494H139.469V24.07H150.689V21.5884H142.293ZM129.198 21.5884V19.2535H135.696V16.7719H129.192V14.4309H137.595V11.9494H126.375V24.07H137.589V21.5884H129.198ZM84.4287 11.9494V16.7719H77.0924V11.9494H74.2751V24.07H77.0924V19.2535H84.4225V24.07H87.2399V11.9494H84.4287ZM65.3791 21.8818C63.733 21.8818 60.9588 21.3745 60.9588 17.9761C60.9588 15.5312 62.574 14.1437 65.3791 14.1437C68.1841 14.1437 69.7932 15.5434 69.7932 17.9761C69.787 21.3928 67.0251 21.8818 65.3791 21.8818ZM58.1476 18.1044C58.1476 20.9833 60.0402 24.3572 65.3791 24.3572C70.7179 24.3572 72.6105 20.9833 72.6105 18.1044C72.6105 14.0703 69.9041 11.6621 65.3791 11.6621C60.854 11.6621 58.1476 14.0581 58.1476 18.1044ZM45.7623 21.1605C46.8561 21.5233 47.9997 21.7171 49.153 21.7351C51.0641 21.7351 52.2354 21.4723 52.9136 20.806C53.4684 20.2559 53.6842 19.333 53.6596 17.9699V8.94829H56.4769V18.3856C56.4338 22.5663 54.3993 24.3511 49.6647 24.3511C48.3547 24.3613 47.047 24.2385 45.7623 23.9844V21.1605Z" fill="#474747"/>
<path d="M34.0243 3.56953C29.1239 1.21493 23.7492 -0.00830078 18.3037 -0.00830078C12.8582 -0.00830078 7.48345 1.21493 2.58311 3.56953C-0.859593 11.8392 -0.859593 21.124 2.58311 29.3938C7.48358 31.7479 12.8583 32.9709 18.3037 32.9709C23.7491 32.9709 29.1238 31.7479 34.0243 29.3938C37.4809 21.112 37.4809 11.8085 34.0243 3.52674V3.56953Z" fill="#474747"/>
<path d="M13.3163 12.7623C12.5142 14.3506 12.0068 16.069 11.8182 17.8354L11.3681 17.8782C9.73587 17.9445 8.12119 18.2388 6.57182 18.7523L6.68279 19.3635C8.50908 21.467 10.7253 23.2037 13.2114 24.4794L13.3039 24.3816L12.4593 23.0492C12.2257 22.9228 11.9743 22.8322 11.7134 22.7802C9.95021 22.169 8.71722 19.9136 8.51378 19.5224C9.86974 19.5761 11.2073 19.8529 12.4717 20.3414C13.2446 20.6182 14.0382 20.8349 14.8452 20.9893C16.239 21.1169 17.6441 21.049 19.0188 20.7876C20.0587 20.6726 21.1072 20.6542 22.1506 20.7326C22.7797 21.5138 23.536 22.1853 24.3885 22.7191C26.1064 23.4301 27.8643 24.0423 29.6533 24.5528C30.6037 25.508 31.4207 26.5852 32.0823 27.7556C27.7502 29.7116 23.0454 30.7237 18.2852 30.7237C13.525 30.7237 8.82019 29.7116 4.48808 27.7556C1.66776 20.5102 1.66776 12.4835 4.48808 5.2381C8.82355 3.2785 13.5328 2.26444 18.2975 2.26444C23.0623 2.26444 27.7715 3.2785 32.107 5.2381C34.8086 12.1704 34.9331 19.8298 32.4584 26.8449C31.884 25.8047 31.2521 24.7966 30.5657 23.8254C29.7474 23.4103 28.9548 22.9469 28.1922 22.4379C27.7927 21.9385 27.5313 21.3444 27.4339 20.7143C27.184 19.4545 26.6107 18.2798 25.7694 17.3037L26.9038 16.8452C26.5893 14.6754 23.9939 13.2635 23.9631 13.2451L23.8151 13.3124C24.554 14.1206 25.0046 15.1471 25.0974 16.234C25.0988 16.44 25.074 16.6454 25.0235 16.8452C24.7275 16.7352 22.8102 16.124 18.4516 16.2829C17.708 16.3797 16.9554 16.1893 16.3494 15.7511C16.1884 15.5821 16.0643 15.3819 15.9847 15.1632C15.9052 14.9445 15.8719 14.7118 15.887 14.4798C15.9666 13.1867 16.2132 11.909 16.6207 10.678L17.7612 10.8125C18.5039 10.4455 19.1676 9.93902 19.7154 9.32107L19.6538 9.25385C18.4948 9.40054 16.9844 9.70615 16.9844 9.70615C17.2407 9.03362 17.3783 8.32236 17.3913 7.60354C17.4289 7.00306 17.2869 6.40491 16.9831 5.88409C16.6794 5.36327 16.2273 4.94294 15.6836 4.67577L15.5418 4.74301C16.0271 5.29808 16.3057 6.00142 16.3309 6.73559C16.3295 7.08485 16.2561 7.43014 16.1151 7.75022C15.7529 7.59094 15.3581 7.51768 14.9623 7.53629C14.7948 7.05338 14.515 6.61638 14.1455 6.26064C13.776 5.90491 13.3272 5.64046 12.8354 5.4887L12.7059 5.56815C13.0361 5.8023 13.3155 6.09993 13.5273 6.44329C13.7391 6.78666 13.8791 7.16876 13.9389 7.56686C13.4172 7.60428 12.9029 7.71118 12.41 7.88469C12.1924 7.60011 11.9134 7.36734 11.5934 7.20343C11.2734 7.03951 10.9205 6.94859 10.5605 6.9373L10.4496 7.02286C10.4496 7.02286 11.4606 7.37127 11.6825 8.1353C11.0759 8.42597 10.505 8.78488 9.98103 9.20494L10.0242 9.36996C12.6196 8.36756 15.0486 8.08029 15.6651 8.80765C15.7709 8.93002 15.8279 9.08655 15.8254 9.24773C15.8095 9.51323 15.7245 9.77014 15.5788 9.99342C13.9528 10.3602 12.3527 10.8318 10.7886 11.4054L10.9982 12.0655L13.193 12.5117C13.193 12.5117 13.4272 12.5361 13.3163 12.7623ZM32.9022 4.54741C28.3283 2.43858 23.3449 1.34595 18.3006 1.34595C13.2563 1.34595 8.2729 2.43858 3.69897 4.54741C0.646954 12.2179 0.646954 20.7513 3.69897 28.4218C8.27528 30.5338 13.262 31.6282 18.3098 31.6282C23.3577 31.6282 28.3444 30.5338 32.9207 28.4218C35.9794 20.7399 35.9794 12.1927 32.9207 4.51074L32.9022 4.54741Z" fill="white"/>
</g>
<defs>
<clipPath id="clip0_3_154">
<rect width="178" height="33" fill="white"/>
</clipPath>
</defs>
</svg>
