<svg width="141" height="20" viewBox="0 0 141 20" fill="none" xmlns="http://www.w3.org/2000/svg">
<path fill-rule="evenodd" clip-rule="evenodd" d="M1.48954 1.15405V3.66783H5.66026L13.8304 18.7799H23.8773L32.04 3.64578L36.2182 3.61638L36.2256 1.15405H23.7433V3.62373H27.065L21.3004 14.3698L15.0593 3.66048L19.6098 3.64578L19.6024 1.15405H1.48954Z" fill="#474747"/>
<path fill-rule="evenodd" clip-rule="evenodd" d="M81.2843 1.15405V3.66783H85.455L93.6177 18.7799H103.672L111.835 3.64578L116.005 3.61638L116.013 1.15405H103.538V3.62373H106.86L101.095 14.3698L94.854 3.66048L99.4046 3.64578L99.3971 1.15405H81.2843Z" fill="#474747"/>
<path fill-rule="evenodd" clip-rule="evenodd" d="M60.7509 1.15405V3.66783H64.9217L64.9291 16.0089H60.5275V18.7579L64.9291 18.7799H85.7603V10.5771C85.7603 10.5771 85.2465 10.5771 83.0494 10.5771C82.9004 14.9211 79.0798 16.0162 77.4785 16.0162C76.0038 16.0162 73.1514 16.0089 73.1514 16.0089V3.66048L77.2625 3.63843L77.2551 1.15405H60.7509Z" fill="#474747"/>
<path fill-rule="evenodd" clip-rule="evenodd" d="M46.7046 0.654053C39.6144 0.654053 33.8647 4.82164 33.8647 9.95946C33.8647 15.0973 39.6144 19.2649 46.7046 19.2649C53.7948 19.2649 59.5444 15.0973 59.5444 9.95946C59.5444 4.82164 53.7948 0.654053 46.7046 0.654053ZM46.5184 16.5232C44.0159 16.5232 41.9902 13.5684 41.9902 9.9227C41.9902 6.27699 44.0159 3.31484 46.5184 3.31484C49.0208 3.31484 51.0466 6.26964 51.0466 9.9227C51.0466 13.5684 49.0208 16.5232 46.5184 16.5232Z" fill="#474747"/>
<path fill-rule="evenodd" clip-rule="evenodd" d="M127.244 0.345459C120.154 0.345459 114.404 4.5792 114.404 9.80522C114.404 15.0312 120.154 19.265 127.244 19.265C134.334 19.265 140.084 15.0312 140.084 9.80522C140.084 4.5792 134.334 0.345459 127.244 0.345459ZM127.058 16.4792C124.555 16.4792 122.53 13.473 122.53 9.76847C122.53 6.06394 124.555 3.0577 127.058 3.0577C129.56 3.0577 131.586 6.06394 131.586 9.76847C131.579 13.473 129.553 16.4792 127.058 16.4792Z" fill="#474747"/>
</svg>
