<svg width="161" height="31" viewBox="0 0 161 31" fill="none" xmlns="http://www.w3.org/2000/svg">
<g clip-path="url(#clip0_3_494)">
<path d="M84.503 7.78663L77.236 28.4305L74.06 7.78663H65.705L62.878 16.6229L60.048 7.78663H51.6489L48.3 29.8102H56.655L57.872 21.4474L60.2209 29.8102H65.6169L67.9659 21.4474L69.1828 29.8102H86.4589L89.2009 19.4229L91.943 29.8102H101.559L93.8139 7.78663H84.503ZM35.681 6.92388C29.068 6.92388 23.7161 12.225 23.7161 18.7751C23.7161 25.3252 29.068 30.6263 35.681 30.6263C42.2939 30.6263 47.6459 25.3252 47.6459 18.7751C47.6459 12.2686 42.2939 6.92388 35.681 6.92388ZM35.681 22.1389C33.81 22.1389 32.288 20.6314 32.288 18.7782C32.288 16.925 33.81 15.4175 35.681 15.4175C37.552 15.4175 39.0739 16.925 39.0739 18.7782C39.0739 20.6719 37.552 22.1389 35.681 22.1389ZM151.818 7.78663V21.6219C151.818 22.2697 151.252 22.7867 150.601 22.7867C149.947 22.7867 149.384 22.2697 149.384 21.6219V7.78663H140.202V21.5783C140.202 27.6113 144.337 30.673 150.557 30.673C156.824 30.673 161 27.7421 161 21.5783V7.78663H151.818ZM24.716 7.78663H14.185L9.26693 18.5166V7.78663H0V29.8102H9.26693V18.6474L14.446 29.8102H25.0619L19.4521 18.5602L24.716 7.78663ZM134.325 16.8347C131.322 15.2836 128.495 15.6698 128.712 14.1623C128.973 12.4804 132.542 13.773 135.284 15.3272L137.809 9.42182C134.457 7.525 132.064 7.09518 129.759 6.96437C126.888 6.83356 123.885 7.91122 122.319 9.29101C119.709 11.5335 119.099 15.1091 120.665 17.9964C122.58 21.5315 126.8 21.5315 128.237 22.2199C129.152 22.6497 129.064 23.771 128.064 24.0731C125.671 24.805 120.841 21.79 120.841 21.79L118.275 27.6518C121.583 29.505 124.281 30.5827 128.108 30.5827C139.416 30.6294 140.07 19.5506 134.325 16.8347ZM122.055 0.76001H113.439V7.78663H98.8169V16.0186H104.213V29.8102H113.439V9.50903H122.055V0.76001Z" fill="#474747"/>
</g>
<defs>
<clipPath id="clip0_3_494">
<rect width="161" height="31" fill="white"/>
</clipPath>
</defs>
</svg>
