<svg width="158" height="32" viewBox="0 0 158 32" fill="none" xmlns="http://www.w3.org/2000/svg">
<path d="M155.598 11.6393C155.267 10.505 154.254 8.95905 152.379 8.57917C149.414 7.97768 146.304 8.77965 141.396 16.7783C139.076 20.5561 135.883 22.3183 134.685 21.147C133.223 19.7172 133.264 15.7706 135.666 12.0878C137.33 9.54471 139.014 9.89821 139.546 11.1645C139.546 11.1645 137.443 11.27 137.511 13.1114C137.609 15.7337 141.266 15.1533 141.737 13.2961C142.171 11.5919 141.54 8.80076 138.384 8.44198C132.603 7.78774 128.857 15.7495 126.279 17.153C126.894 15.1163 126.956 13.0692 126.398 11.6182C125.013 8.05154 121.5 8.14124 118.499 9.85599L118.773 8.86407L112.165 8.86935L111.803 10.4575H113.611C112.738 13.2275 110.909 15.6492 109.535 16.8839C110.259 10.716 108.027 8.53695 105.795 8.29425C102.561 7.94602 99.5902 9.76631 94.9509 17.612C92.4142 21.9015 89.0148 22.4555 88.1572 20.2131C85.9926 14.5518 89.4075 7.01741 93.1788 3.8517C95.9015 1.56712 97.4152 6.45287 96.9554 8.97488L98.9547 8.98015L100.711 1.3508L98.7997 1.34552L98.2263 2.54851C96.0875 0.733501 93.1117 0.448583 90.6939 1.47216C86.0132 3.456 82.3038 9.36531 81.906 14.9158C81.6477 18.5195 82.8205 22.1759 85.7601 23.5899C89.4281 25.3521 93.7316 23.3999 95.8653 20.0654C96.0719 21.1628 96.9502 24.0595 100.205 24.3444C105.831 24.8403 110.594 18.6408 112.02 17.1055L108.988 29.5836L113.839 29.5783L115.42 22.8934C119.547 27.0458 125.587 20.6563 129.172 17.1002C128.051 20.0548 129.916 24.2336 133.15 24.3708C136.813 24.5238 139.608 22.2708 141.845 19.3215C142.16 21.9648 143.679 24.0225 146.019 24.3074C152.994 25.1675 157.458 17.9919 155.598 11.6393Z" fill="#474747"/>
<path d="M13.8198 14.1243C13.267 16.6147 12.802 18.5299 11.3606 20.4188C8.06454 24.74 3.45106 24.6661 1.04358 24.2387L1.03325 21.8645C2.32998 23.4104 5.34708 22.9936 6.64898 20.5665C8.01288 18.0234 8.08004 14.3565 9.65059 10.4468C11.4639 5.93041 13.7319 3.3451 17.6583 1.93108C20.7529 0.817809 24.8549 0.997199 30.1813 1.00775L29.7009 2.71196H26.6993C25.1856 8.6371 23.2327 15.6175 22.1375 19.6432C21.6312 21.5004 23.305 21.7642 24.1575 21.4688C27.1126 20.4346 29.0344 15.2323 29.8352 10.7212L27.0764 10.7423L27.6447 8.71097C30.7858 8.62127 31.7106 8.76372 34.4797 3.98351L36.3499 3.97824L35.2494 8.70569H38.5817L38.0909 10.6526H34.7948C34.7948 10.6526 33.5291 15.7441 32.8781 18.6988C32.0515 22.4396 35.1306 21.5004 37.5484 18.9204C39.0725 17.2953 39.7803 14.2932 40.2452 12.2724L42.0689 3.90965H39.2223L39.6046 2.0155L47.726 2.00494C47.726 2.00494 44.9775 13.5281 43.5206 19.3741C42.942 21.7009 44.931 21.5637 46.5429 18.8412C48.5681 15.4223 49.8597 12.0033 52.9543 9.5446C55.0104 7.90898 58.1464 8.20445 59.6652 9.82423L59.9907 8.79539L64.5525 8.81648C64.5525 8.81648 62.8528 16.4722 62.0727 19.7962C61.7679 21.2788 63.4366 21.7062 64.971 19.8437C64.5319 18.3716 66.0301 16.6885 67.6885 17.2056C69.0937 17.6435 69.2848 18.9942 68.6804 20.0758C68.5409 20.5032 67.9674 20.7301 67.642 20.7248C67.5645 21.7906 68.6959 22.3499 69.1505 22.3974C70.5506 22.5345 72.0178 22.2232 72.4414 20.6087C72.9529 18.6513 69.7808 17.9126 68.1224 15.6544C67.1718 14.3618 67.2028 12.0455 68.2412 10.7634C70.0546 8.52102 72.6532 7.76125 75.381 8.42605C76.8637 8.78483 78.1656 9.77675 78.4085 11.5021C78.6203 13.011 77.8608 13.7497 76.8069 14.0135C75.8047 14.2615 73.6297 13.2115 75.1485 10.8162C75.1485 10.8162 74.7249 9.58154 72.8702 10.5735C72.2658 10.9006 71.4805 12.0666 72.4879 13.259C74.074 15.1373 76.4711 15.5594 77.2616 17.6541C78.1398 19.9809 76.8999 22.0861 74.8592 23.3207C71.8783 25.1304 67.4921 24.9247 65.5651 21.6007C64.6249 22.8986 62.7702 24.0541 60.7811 24.2651C58.8335 24.3759 57.702 23.0833 57.3921 22.0861C55.4857 24.2388 53.5174 24.4076 52.6804 24.4234C50.2213 24.4181 48.4183 22.4237 48.1858 20.2605C46.3104 22.4554 44.2749 24.3654 41.2062 24.3759C39.5116 24.3812 38.2872 22.9936 38.1839 21.1838C35.8436 23.3154 33.8546 24.4129 30.7755 24.4234C29.3237 24.4287 28.058 23.4579 27.8255 21.4846C26.0535 23.6584 23.1035 24.5448 20.8821 24.434C17.5705 24.2704 16.6147 21.9647 17.2088 19.6485C17.3277 19.1842 17.9424 16.889 18.6967 14.1349H13.8198V14.1243Z" fill="#474747"/>
<path d="M56.364 20.4348C57.4696 19.1368 58.5028 15.5912 58.4615 12.4466C58.4408 10.8743 56.5603 9.76108 55.0827 11.9771C53.9927 13.6127 52.0966 18.1713 53.8377 20.725C54.034 20.878 55.1499 21.8541 56.364 20.4348Z" fill="white"/>
<path d="M19.1772 12.2672C20.2879 8.15178 21.502 3.70398 21.7603 2.84396L20.7581 2.83868C19.7816 2.80175 19.0997 3.44544 18.5882 3.87281C17.059 5.16019 15.349 7.69275 14.3674 11.7185L14.2382 12.2672H19.1772Z" fill="white"/>
<path d="M148.83 12.0614C150.266 9.62909 152.353 10.0617 152.441 12.436C152.477 13.4332 152.183 17.8916 150.442 20.6985C149.455 22.2919 147.239 22.8617 146.66 21.2578C145.957 19.3003 147.389 14.5043 148.83 12.0614Z" fill="white"/>
<path d="M116.195 19.5959C116.288 19.2213 116.773 17.3799 117.584 14.1298C118.514 10.3943 121.578 10.3151 121.908 12.2515C122.162 13.3015 121.712 17.4063 120.188 20.266C118.959 22.825 115.389 22.7669 116.195 19.5959Z" fill="white"/>
<path d="M100.758 21.8278C99.3422 19.0683 101.77 13.2962 102.597 12.1249C103.868 10.083 105.676 9.99331 106.28 11.8241C106.689 14.5255 105.614 18.7307 104.379 20.5351C102.561 23.1204 100.933 22.1707 100.758 21.8278Z" fill="white"/>
</svg>
