<svg width="129" height="26" viewBox="0 0 129 26" fill="none" xmlns="http://www.w3.org/2000/svg">
<g clip-path="url(#clip0_3_502)">
<path fill-rule="evenodd" clip-rule="evenodd" d="M14.3379 25.2069C8.43149 25.2069 4.27908 23.6709 2.0294 20.6704C0.0468164 18.0374 0.239567 15.0739 0.352464 14.561L0.429565 14.487V14.3046C0.429565 11.5605 3.59344 0.47583 18.1847 0.47583C23.4055 0.47583 27.0622 1.71833 29.0834 4.20598C31.2174 6.83902 30.8374 10.133 30.6447 11.1931H21.7671C21.8442 10.3154 21.6515 9.21828 20.9658 8.37497C20.3187 7.64268 19.4045 7.24085 18.1847 7.24085C14.8308 7.24085 11.4412 9.69149 10.3342 12.9484C9.80002 14.7038 10.0286 16.3138 10.907 17.4849C11.7826 18.582 13.1539 19.1689 14.8308 19.1689C17.8405 19.1689 19.4789 17.3395 19.936 16.7182H29.3477C28.6263 18.6586 25.2724 25.2069 14.3379 25.2069Z" fill="#474747"/>
<path fill-rule="evenodd" clip-rule="evenodd" d="M95.6128 24.4747L102.053 1.68408H128.306L126.745 7.50005H109.827L109.103 10.5746H126.021L124.685 15.6212H107.767L107.043 18.4393H123.697L122.133 24.4747H95.6128Z" fill="#474747"/>
<path fill-rule="evenodd" clip-rule="evenodd" d="M52.0235 24.731L51.7564 22.7562H41.9261L40.4006 24.4746H29.959L47.9813 1.72095H57.6601L62.3467 24.731H52.0235ZM44.6302 18.6956H51.3351L50.688 10.392L44.6302 18.6956Z" fill="#474747"/>
<path fill-rule="evenodd" clip-rule="evenodd" d="M79.4575 25.207C79.1904 25.207 79.0775 25.207 79.039 25.207C78.9619 25.207 71.417 24.9505 68.2559 22.8304C65.8548 20.8556 65.5877 18.0375 65.4748 16.832V16.721H75.228C75.2665 17.1968 75.3794 17.9635 75.9907 18.6244C76.7535 19.502 78.0477 19.9409 79.8017 19.9409C82.6985 19.9409 83.3456 19.0632 83.6512 18.6614L83.7283 18.5873L83.844 18.4763V18.2939C83.844 17.5246 83.6154 17.1968 82.2827 16.6839C80.7572 16.3905 72.4909 14.1593 71.0811 13.2816C71.0425 13.2446 70.9297 13.1362 70.814 13.0252C69.9384 12.2215 68.4514 10.9023 68.4514 8.70814C68.68 5.63625 72.3009 0.98877 81.407 0.98877C81.6356 0.98877 81.8641 0.98877 82.0927 0.98877C87.6549 0.98877 91.923 2.15989 93.7514 4.2087L93.8285 4.28272C93.9056 4.35674 95.354 5.78165 95.2769 8.96457L85.9036 8.74515V8.08689L85.8651 8.01287C85.218 6.80473 84.2267 6.29452 82.3983 6.29452C80.6443 6.29452 78.6259 6.47692 78.6259 7.94149C78.6259 8.96457 79.9587 9.51444 80.9885 9.80789C81.597 9.9903 82.6654 10.2467 83.9238 10.5032C85.9064 10.905 88.3819 11.4179 89.9074 12.0391C92.8785 12.9908 93.9469 14.3073 93.7183 16.758C93.7183 16.9774 93.8698 20.7816 89.3374 23.0498C85.1354 25.0589 80.7159 25.207 79.4575 25.207Z" fill="#474747"/>
</g>
<defs>
<clipPath id="clip0_3_502">
<rect width="129" height="26" fill="white"/>
</clipPath>
</defs>
</svg>
